<svg xmlns="http://www.w3.org/2000/svg" xmlns:xlink="http://www.w3.org/1999/xlink" width="337.509" height="286.069" viewBox="0 0 337.509 286.069"><defs><linearGradient id="a" x1="0.102" y1="0.123" x2="0.899" y2="0.878" gradientUnits="objectBoundingBox"><stop offset="0" stop-color="#ffde80"/><stop offset="1" stop-color="#f4ce54"/></linearGradient><filter id="b" x="0" y="0" width="337.509" height="286.069" filterUnits="userSpaceOnUse"><feOffset dx="2" dy="2" input="SourceAlpha"/><feGaussianBlur stdDeviation="1" result="c"/><feFlood flood-opacity="0.502"/><feComposite operator="in" in2="c"/><feComposite in="SourceGraphic"/></filter></defs><g transform="translate(1170.184 713.055)"><g transform="matrix(1, 0, 0, 1, -1170.18, -713.06)" filter="url(#b)"><path d="M-920.552-712.055l82.877,140.035-82.877,140.034h-165.755l-82.877-140.034,82.877-140.035Z" transform="translate(1170.18 713.06)" fill="url(#a)"/></g><g transform="translate(-1092.263 -659.858)"><path d="M-985.665-671.379a7.277,7.277,0,0,1,2.624,2.628c5.379,8.028,10.782,16.04,15.62,24.413a102.253,102.253,0,0,1,7.3,15.016c2.483,6.575,1.907,12.972-.908,19.256a26.881,26.881,0,0,1-11.81,12.785,27.15,27.15,0,0,1-15.368,3.388,27.2,27.2,0,0,1-15.753-6.294,27.433,27.433,0,0,1-9.267-14.819,23.4,23.4,0,0,1,.792-14.194,97.526,97.526,0,0,1,7.126-14.762c4.992-8.663,10.539-16.973,16.139-25.249a5.929,5.929,0,0,1,2.451-2.169Zm22.886,51.544c.045-2.933-2.207-4.608-4.46-3.77a3.473,3.473,0,0,0-2.2,3.393,15.967,15.967,0,0,1-1.721,6.219,17.651,17.651,0,0,1-6.786,7.136,3.231,3.231,0,0,0-1.089,4.715,3.246,3.246,0,0,0,4.639.934,27.639,27.639,0,0,0,3.261-2.321A23.615,23.615,0,0,0-962.779-619.836Z" transform="translate(1136.222 671.379)" fill="#fff"/><path d="M-1109.241-583.013c.95-2.221,2.65-3.01,5.025-2.948,4.06.108,8.127-.012,12.188.058a1.671,1.671,0,0,0,1.82-1.228c1.7-3.841,3.434-7.666,5.247-11.454,3.417-7.142,9.194-11.443,16.609-13.878a102.557,102.557,0,0,1,25.317-4.649,132.728,132.728,0,0,1,27.243.923,78.157,78.157,0,0,1,20.74,5.6c5.5,2.407,9.161,6.618,11.82,11.771,1.969,3.815,3.658,7.776,5.395,11.707a1.676,1.676,0,0,0,1.832,1.207c4.209-.063,8.419-.037,12.63-.023,3.421.01,5.006,1.97,4.328,5.324-.621,3.066-1.233,6.134-1.877,9.2-.54,2.561-1.9,3.652-4.518,3.679-1.214.013-2.429,0-3.871,0,.349.508.563.862.817,1.184a26.468,26.468,0,0,1-1.76,34.533,3.459,3.459,0,0,0-.852,2.148c-.079,4.209-.023,8.419-.045,12.63-.019,3.875-2.342,6.2-6.222,6.226q-6.315.038-12.63,0c-3.819-.024-6.111-2.314-6.163-6.118-.024-1.759,0-3.52,0-5.419h-75.705c0,1.875.023,3.677-.005,5.478-.059,3.724-2.352,6.029-6.075,6.057-4.209.032-8.419.024-12.63,0-3.989-.018-6.294-2.315-6.312-6.281-.018-4.358.023-8.714-.036-13.071a2.745,2.745,0,0,0-.708-1.771c-9.111-8.832-10.027-24.534-1.984-34.633.177-.223.323-.471.656-.961-1.256,0-2.3,0-3.344,0-3.016-.012-4.253-1.05-4.869-3.97-.655-3.1-1.367-6.177-2.054-9.266Zm121.79,3.105a87.282,87.282,0,0,0-6.973-15.385,11.562,11.562,0,0,0-4.635-4.349,49.972,49.972,0,0,0-14.336-4.531,119.838,119.838,0,0,0-33.184-1.136c-6.973.692-13.844,1.9-20.356,4.654-2.958,1.251-5.608,2.905-7.014,5.9-2.237,4.768-4.331,9.6-6.472,14.416-.046.1.051.267.087.426Zm7.515,30.618a11.391,11.391,0,0,0-11.28-11.335,11.44,11.44,0,0,0-11.383,11.394,11.393,11.393,0,0,0,11.3,11.314A11.362,11.362,0,0,0-979.936-549.29Zm-96.245,11.33c6.408-.468,11.232-5.736,10.875-11.69a11.282,11.282,0,0,0-11.653-10.923,11.1,11.1,0,0,0-10.985,11.7C-1087.585-542.3-1082.247-537.517-1076.181-537.96Z" transform="translate(1109.241 686.661)" fill="#fff"/><path d="M-1109.241-643.511c.808-1.641,1.816-2.289,3.182-1.9a3.692,3.692,0,0,1,1.473.894q16.19,15.549,32.349,31.129c.193.186.389.37.648.613.465-.436.921-.864,1.376-1.291a2.614,2.614,0,0,1,3.857-.11,2.611,2.611,0,0,1-.257,3.848c-.984.955-1.984,1.9-2.98,2.837a2.62,2.62,0,0,1-4.019-.019q-16.7-16.078-33.394-32.162a7.462,7.462,0,0,1-2.237-2.664Z" transform="translate(1109.241 678.703)" fill="#fff"/><path d="M-1052.6-640.938c-1.77.25-3.435.5-5.1.716a7.125,7.125,0,0,1-1.817.113,2.485,2.485,0,0,1-2.169-2.48,2.472,2.472,0,0,1,2.068-2.568c2.633-.427,5.278-.78,7.917-1.161.461-.067.92-.141,1.383-.178a2.547,2.547,0,0,1,2.894,2.591q.031,4.52,0,9.039a2.585,2.585,0,0,1-2.613,2.618,2.57,2.57,0,0,1-2.551-2.593c-.027-1.739-.008-3.479-.009-5.218Z" transform="translate(1122.709 678.423)" fill="#fff"/><path d="M-1055.656-635.423a6.137,6.137,0,0,1-.867,1.483c-1.182,1.236-2.447,2.395-3.708,3.549a2.568,2.568,0,0,1-3.738-.089,2.559,2.559,0,0,1,.191-3.679c1.245-1.21,2.5-2.412,3.778-3.585a2.416,2.416,0,0,1,2.79-.452A2.731,2.731,0,0,1-1055.656-635.423Z" transform="translate(1121.867 680.706)" fill="#fff"/><path d="M-1064.319-627.346a7.955,7.955,0,0,1-.979,1.725c-1.183,1.238-2.446,2.4-3.71,3.56a2.561,2.561,0,0,1-3.692-.041,2.59,2.59,0,0,1,.154-3.742q1.815-1.769,3.675-3.492a2.45,2.45,0,0,1,2.853-.494A2.95,2.95,0,0,1-1064.319-627.346Z" transform="translate(1119.385 683.074)" fill="#fff"/></g></g></svg>