<svg xmlns="http://www.w3.org/2000/svg" width="132.055" height="31.711" viewBox="0 0 132.055 31.711"><g transform="translate(-253.723 -1027.408)"><path d="M317.829,1050.572c0-2.405-.01-4.81,0-7.215a8.021,8.021,0,0,1,6.854-7.644,8.344,8.344,0,0,1,8.541,4.394,8.026,8.026,0,0,1-5.8,11.381,7.574,7.574,0,0,1-5.75-1.351c-.22-.155-.445-.354-.735-.228-.339.148-.308.483-.309.774-.007,2.486-.031,4.972.005,7.458.011.756-.262,1-.99.977-1.822-.053-1.821-.028-1.821-1.9Q317.83,1053.9,317.829,1050.572Zm13.391-6.919a5.308,5.308,0,1,0,0,.051Z" fill="#a8a8a8"/><path d="M287.149,1040.643c0-3.163.019-6.326-.014-9.489-.008-.723.175-.98.947-.972,3.6.04,7.2.031,10.8,0,.649-.005.852.22.836.844-.059,2.127.258,1.867-1.847,1.883-2.327.019-4.654.027-6.98-.007-.757-.011-1,.275-.974,1,.042,1.485.048,2.974.01,4.459-.019.7.209.954.925.944,2.273-.031,4.546.016,6.82-.013.673-.009.892.232.91.885.042,1.7.065,1.7-1.626,1.7-2.057,0-4.113.021-6.169,0-.63-.008-.876.209-.866.842.026,1.567.043,3.136,0,4.7-.021.734.27.928.951.922,2.868-.026,5.736.005,8.6-.031.734-.009,1,.188.971.96-.08,1.876-.046,1.87-1.919,1.867-3.49-.005-6.98-.014-10.47.014-.662.005-.9-.186-.9-.866.025-3.217.011-6.435.011-9.653Z" fill="#a8a8a8"/><path d="M274.1,1040.676c0-3.159.019-6.319-.014-9.479-.007-.763.2-1.039,1.009-1.013,2.02.065,1.643-.128,1.652,1.639.03,6.077,0,12.152,0,18.229,0,1.1-.014,1.106-1.151,1.1-1.505-.012-1.5-.012-1.5-1.48q.008-4.5,0-8.993Z" fill="#a8a8a8"/><path d="M283.307,1043.74c0,2.162-.02,4.326.011,6.487.01.7-.231.945-.94.942-1.986-.016-1.731.1-1.737-1.662q-.015-6.123-.007-12.246c0-.992.08-1.072,1.049-1.085,1.619-.02,1.62-.02,1.622,1.562v6Z" fill="#a8a8a8"/><path d="M281.845,1027.408c.2.554.368,1.125.61,1.658a3.755,3.755,0,0,0,2.891,2.231,1.259,1.259,0,0,1,.288.115c.017.007.019.048.062.169a4.465,4.465,0,0,0-3.737,3.309,4.686,4.686,0,0,0-3.875-3.4c2.232-.517,3.62-1.72,3.744-4.066Z" fill="#a8a8a8"/><path d="M303.658,1036.1c1.016-.358,1.643.411,2.265,1.249.884,1.191,1.832,2.338,2.7,3.542.408.566.686.557,1.092.028,1.05-1.37,2.147-2.7,3.178-4.088a1.533,1.533,0,0,1,1.5-.726c.455.045.919,0,1.378.016.2.006.472-.085.571.174.089.231-.105.4-.235.568-1.542,1.981-3.047,3.992-4.645,5.926-.573.693-.41,1.143.062,1.736,1.545,1.941,3.064,3.9,4.578,5.867.132.174.452.322.314.593-.127.253-.437.117-.666.158a3.163,3.163,0,0,1-3.576-1.642,34.159,34.159,0,0,0-2.471-3.2c-.36-.463-.624-.549-1.038.009-.993,1.345-2.105,2.6-3.075,3.963a1.769,1.769,0,0,1-1.829.876c-.581-.079-1.462.265-1.675-.184-.237-.5.518-1.021.88-1.5q2.012-2.639,4.088-5.227a.883.883,0,0,0,.04-1.249.981.981,0,0,0-.083-.077c-1.61-1.994-3.172-4.024-4.744-6.045-.143-.184-.408-.385-.29-.626s.439-.126.671-.142C302.917,1036.086,303.188,1036.1,303.658,1036.1Z" fill="#a8a8a8"/><path d="M379.763,1051.535a7.953,7.953,0,0,1-5.426-2.089c-.472-.419-.442-.748.04-1.1.238-.175.481-.347.7-.54a.8.8,0,0,1,1.12-.131.829.829,0,0,1,.181.2,4.861,4.861,0,0,0,5.188.993,2.086,2.086,0,0,0,1.449-2.112,2.052,2.052,0,0,0-1.644-1.793c-.92-.306-1.881-.491-2.824-.728a10.412,10.412,0,0,1-2.414-.906c-2.2-1.179-2.256-4.536-.464-6.138a6.955,6.955,0,0,1,9.039.379c.6.638.577.839-.126,1.326-1.078.751-1.069.739-2.106-.04a4.048,4.048,0,0,0-4.211-.5,1.816,1.816,0,0,0-1.3,1.683c-.027.874.627,1.223,1.256,1.521a9.632,9.632,0,0,0,2.483.719,10.394,10.394,0,0,1,2.931.9,3.756,3.756,0,0,1,2.14,3.777,4.156,4.156,0,0,1-2.426,3.82A7.987,7.987,0,0,1,379.763,1051.535Z" fill="#a8a8a8"/><path d="M353.4,1044.9c-1.783,0-3.567.009-5.354-.005-.624-.006-.741.206-.518.787a5.445,5.445,0,0,0,8.383,2.184c.647-.557,1.084-.564,1.633.006a4.528,4.528,0,0,0,.45.342c.637.515.639.7.019,1.26a8.25,8.25,0,0,1-9.156,1.179,8.013,8.013,0,0,1-4.275-8.071,7.819,7.819,0,0,1,12.1-5.541,6.74,6.74,0,0,1,2.914,6.086c-.061,1.762-.085,1.763-1.818,1.765q-2.188,0-4.381,0Zm-1.388-2.518v.006c1.269,0,2.538,0,3.807,0,1.105,0,1.223-.189.8-1.237a4.528,4.528,0,0,0-4.718-2.812,5.264,5.264,0,0,0-4.468,3.363c-.158.525.023.687.524.682C349.311,1042.376,350.661,1042.383,352.011,1042.383Z" fill="#a8a8a8"/><path d="M263.119,1030.213c.917-.252,1.4.213,1.77,1.188,1.574,4.2,3.224,8.36,4.847,12.535.782,2.014,1.554,4.032,2.352,6.039.445,1.123.419,1.184-.752,1.183-1.5,0-1.5,0-2.046-1.438-.376-.984-.767-1.964-1.117-2.957a.865.865,0,0,0-.949-.668q-4.179.029-8.36-.006a.988.988,0,0,0-1.081.744c-.409,1.143-.909,2.255-1.29,3.406a1.184,1.184,0,0,1-1.37.925c-1.631-.055-1.631-.02-1.038-1.547,2.393-6.168,4.817-12.323,7.145-18.514C261.614,1030.087,262.249,1030.184,263.119,1030.213Zm-.1,3.675c-.112.121-.163.154-.181.2q-1.69,4.29-3.372,8.582c-.218.554.09.651.554.647,1.946-.011,3.894-.031,5.839-.005.744.01.815-.277.577-.883-.672-1.706-1.278-3.44-1.993-5.128A26.9,26.9,0,0,0,263.02,1033.888Z" fill="#a8a8a8"/><path d="M366.252,1051.537a7.714,7.714,0,0,1-5.188-2.155c-.409-.363-.412-.661.052-.955a.442.442,0,0,0,.065-.048c1.255-1.021,1.259-1.026,2.556-.09a4.766,4.766,0,0,0,4.918.472,1.962,1.962,0,0,0-.21-3.716c-.994-.34-2.042-.517-3.049-.822a9.535,9.535,0,0,1-2.676-1.024,3.944,3.944,0,0,1,.062-6.234,6.906,6.906,0,0,1,8.895.743c.427.448.446.763-.1,1.075a2.175,2.175,0,0,0-.333.231,1.167,1.167,0,0,1-1.84-.036,3.867,3.867,0,0,0-4.326-.615,1.854,1.854,0,0,0-1.28,1.631c-.048.833.566,1.243,1.226,1.547a10.51,10.51,0,0,0,2.481.726,13.2,13.2,0,0,1,3.079.966c2.646,1.2,2.808,5.69-.02,7.332A8.256,8.256,0,0,1,366.252,1051.537Z" fill="#a8a8a8"/><path d="M335.948,1043.542c0-2.19.028-4.38-.012-6.568-.014-.726.247-.985.941-.915a6.078,6.078,0,0,0,.973,0c.5-.031.842.072.832.682-.01.641.317.554.716.3a7.877,7.877,0,0,1,3.694-1.335c.617-.053.936.137.892.792a5.106,5.106,0,0,0,0,.811c.067.693-.189.99-.925,1.1a5.2,5.2,0,0,0-4.376,5.154c-.01,2.216-.024,4.433,0,6.649.01.7-.25.953-.944.95-2.115-.012-1.767.069-1.787-1.7C335.93,1047.488,335.947,1045.515,335.948,1043.542Z" fill="#a8a8a8"/></g></svg>