<svg xmlns="http://www.w3.org/2000/svg" width="11.146" height="20.653" viewBox="0 0 11.146 20.653"><path d="M1245.34,650.619h-.3c-.74,0-1.48,0-2.219,0-.448,0-.593-.144-.595-.589q-.006-1.525,0-3.052c0-.447.146-.584.593-.585.74,0,1.48,0,2.219,0h.3c0-.124,0-.223,0-.321.02-.974-.027-1.955.074-2.921a4.419,4.419,0,0,1,3.663-4.067,6.493,6.493,0,0,1,1.174-.12c.848-.018,1.7-.009,2.546-.005.451,0,.572.124.574.567q0,1.425,0,2.85c0,.433-.136.567-.576.573-.614.008-1.228,0-1.841.013a3.3,3.3,0,0,0-.526.046.764.764,0,0,0-.686.728c-.023.855-.007,1.712-.007,2.606h.259q1.336,0,2.672,0c.46,0,.6.141.6.6q0,1.551,0,3.1c0,.409-.113.529-.521.532-.908.008-1.816,0-2.723.006h-.308v8.186c0,.755-.08.835-.837.835h-2.9c-.512,0-.638-.123-.638-.64q0-4.01,0-8.019Z" transform="translate(-1242.227 -638.951)" fill="#fff"/></svg>