<svg xmlns="http://www.w3.org/2000/svg" xmlns:xlink="http://www.w3.org/1999/xlink" viewBox="0 0 511.84 432.42"><defs><style>.cls-1{fill:url(#Безымянный_градиент_3);}.cls-2{fill:#fff;}</style><linearGradient id="Безымянный_градиент_3" x1="1.3" y1="1000.17" x2="2.53" y2="999.01" gradientTransform="matrix(331.51, 0, 0, -280.07, -135.51, 280455.09)" gradientUnits="userSpaceOnUse"><stop offset="0" stop-color="#ffde80"/><stop offset="1" stop-color="#f4ce54"/></linearGradient></defs><g id="Слой_1" data-name="Слой 1"><path id="Многоугольник_10-3-2" data-name="Многоугольник 10-3-2" class="cls-1" d="M627.84,284.15l128,216.21-128,216.21H371.92L244,500.36l128-216.21Z" transform="translate(-243.96 -284.15)"/></g><g id="Слой_2" data-name="Слой 2"><path class="cls-2" d="M583.47,392.55a3.63,3.63,0,0,1,2.74,2,6.07,6.07,0,0,1,.41,1.84c.07.91,0,1.83,0,2.74a3.9,3.9,0,0,1-2.25,4.07l.33.53c1.16,1.74,2.34,3.48,3.48,5.24a12.53,12.53,0,0,1,2.08,7q0,13.5,0,27a5.47,5.47,0,0,1-5.63,5.59H563a5.45,5.45,0,0,1-5.57-5.42q0-13.69,0-27.39a12.61,12.61,0,0,1,2.27-7.14c1.1-1.63,2.18-3.27,3.28-4.91l.32-.52a3.94,3.94,0,0,1-2.24-4.08c0-.95,0-1.9,0-2.85a3.65,3.65,0,0,1,2.91-3.68l.25-.09ZM561.05,418.4a4.84,4.84,0,0,0,.49-.14,12.25,12.25,0,0,1,6.73-.41A15.3,15.3,0,0,1,573,420a12,12,0,0,0,4.5,1.6c3.23.53,6.14-.61,9.08-1.69,0-1.42,0-2.82,0-4.23a8.56,8.56,0,0,0-1.38-4.49q-2.43-3.74-4.93-7.43a.75.75,0,0,0-.55-.22q-5.91,0-11.83,0a.89.89,0,0,0-.64.34c-1.56,2.29-3.07,4.62-4.64,6.91S560.88,415.69,561.05,418.4Z" transform="translate(-243.96 -284.15)"/><path class="cls-2" d="M624.64,407.76q-1.57,4.5-3.13,9c-.66,1.9-1.29,3.81-1.94,5.72-.59,1.71-1.87,2-3.07.61q-4.57-5.14-9.13-10.3c-1.34-1.52-1-2.63.94-3.16l2.49-.69c-.36-1-.64-2.06-1-3-6-13.91-16.36-22.13-31.31-24.56-3.77-.6-7.53-.27-11.3-.1a4.68,4.68,0,0,1-5-3.88,4.61,4.61,0,0,1,3.25-5.23,17.14,17.14,0,0,1,2.8-.33l1.92-.19h6.06l.95.17a78.24,78.24,0,0,1,8,1.35q25.78,7.16,34.48,32.52c.09.27.22.52.34.82l2.14-.54c1.4-.37,1.72-.27,2.58.84Z" transform="translate(-243.96 -284.15)"/><path class="cls-2" d="M538,390.24c-.66-.6-1.33-1.16-1.94-1.79a1.56,1.56,0,0,1,.87-2.77q7.65-1.56,15.3-3.07a1.56,1.56,0,0,1,1.87,2.12q-2.26,6.9-4.59,13.78a1.55,1.55,0,0,1-2.75.64c-.7-.68-1.33-1.42-2-2.19a34.53,34.53,0,0,0-6.08,8.4q-10.26,20.46,1.69,40c.68,1.11,1.43,2.18,2.12,3.28a4.69,4.69,0,1,1-7.87,5.1c-4-5.71-7.21-11.76-8.68-18.61q-5.29-24.79,11.35-43.93l.52-.59C537.84,390.57,537.87,390.51,538,390.24Z" transform="translate(-243.96 -284.15)"/><path class="cls-2" d="M568.32,458.59a31.12,31.12,0,0,0,8.46,1.07c16-.32,27.88-7.47,35.55-21.54.67-1.22,1.24-2.51,1.92-3.72a4.67,4.67,0,0,1,8.36,4.15c-4,8.9-9.66,16.49-17.85,22a48.13,48.13,0,0,1-34.15,8c-1.54-.21-3.07-.52-4.74-.81-.21.76-.44,1.56-.64,2.36a1.76,1.76,0,0,1-1.26,1.47,1.68,1.68,0,0,1-1.77-.73c-3.37-3.84-6.76-7.67-10.12-11.52a1.57,1.57,0,0,1,.91-2.78q7-1.47,13.94-2.86c1.72-.35,2.5.58,2.06,2.31C568.77,456.84,568.56,457.68,568.32,458.59Z" transform="translate(-243.96 -284.15)"/><path class="cls-2" d="M375.36,524.09c1.38-3.22,3.84-4.36,7.28-4.27,5.88.16,11.76,0,17.65.09a2.42,2.42,0,0,0,2.63-1.78c2.46-5.56,5-11.1,7.6-16.59,5-10.34,13.31-16.56,24.05-20.09a148.06,148.06,0,0,1,36.65-6.73,192,192,0,0,1,39.45,1.33,113.23,113.23,0,0,1,30,8.11c8,3.49,13.27,9.58,17.11,17,2.86,5.52,5.3,11.26,7.82,16.95a2.43,2.43,0,0,0,2.65,1.75c6.09-.1,12.19-.06,18.29,0,4.95,0,7.25,2.86,6.26,7.71-.89,4.44-1.78,8.88-2.71,13.32-.79,3.71-2.75,5.28-6.55,5.32-1.75,0-3.51,0-5.6,0,.5.73.81,1.25,1.18,1.71a38.32,38.32,0,0,1-2.55,50,5,5,0,0,0-1.23,3.11c-.12,6.1,0,12.2-.07,18.29,0,5.61-3.39,9-9,9q-9.13,0-18.28,0c-5.53,0-8.85-3.35-8.93-8.86,0-2.55,0-5.1,0-7.85H429.46c0,2.72,0,5.32,0,7.93-.08,5.4-3.4,8.73-8.79,8.77-6.1,0-12.2,0-18.29,0-5.78,0-9.12-3.35-9.14-9.1,0-6.31,0-12.61-.05-18.92a4.06,4.06,0,0,0-1-2.57C379,585,377.63,562.25,389.28,547.63c.25-.33.47-.69,1-1.4h-4.84c-4.37,0-6.16-1.52-7.05-5.74-.95-4.49-2-9-3-13.42Zm176.35,4.5c-3-7.88-5.86-15.38-10.1-22.28a16.83,16.83,0,0,0-6.71-6.3,72.7,72.7,0,0,0-20.76-6.56,173.88,173.88,0,0,0-48.05-1.64c-10.09,1-20,2.75-29.47,6.74-4.29,1.81-8.12,4.21-10.16,8.55-3.24,6.9-6.27,13.9-9.37,20.87-.07.15.07.39.13.62Zm10.88,44.33a16.41,16.41,0,1,0-16.46,16.47A16.5,16.5,0,0,0,562.59,572.92ZM423.23,589.33c9.28-.68,16.26-8.31,15.75-16.93-.58-9.65-8.27-16.16-16.87-15.82a16.08,16.08,0,0,0-15.91,16.94C406.72,583,414.45,590,423.23,589.33Z" transform="translate(-243.96 -284.15)"/></g></svg>