<svg xmlns="http://www.w3.org/2000/svg" xmlns:xlink="http://www.w3.org/1999/xlink" viewBox="0 0 511.84 432.42"><defs><style>.cls-1{fill:url(#Безымянный_градиент_3);}.cls-2{fill:#fff;}</style><linearGradient id="Безымянный_градиент_3" x1="1.3" y1="1000.17" x2="2.53" y2="999.01" gradientTransform="matrix(331.51, 0, 0, -280.07, -135.51, 280455.09)" gradientUnits="userSpaceOnUse"><stop offset="0" stop-color="#ffde80"/><stop offset="1" stop-color="#f4ce54"/></linearGradient></defs><g id="Слой_1" data-name="Слой 1"><path id="Многоугольник_10-3-2" data-name="Многоугольник 10-3-2" class="cls-1" d="M627.84,284.15l128,216.21-128,216.21H371.92L244,500.36l128-216.21Z" transform="translate(-243.96 -284.15)"/></g><g id="Слой_2" data-name="Слой 2"><path class="cls-2" d="M579.43,371.62a10.39,10.39,0,0,1,5.45,2.24c1.94,1.45,3.9,2.87,5.81,4.37a11.56,11.56,0,0,0,7,2.51c2.53.06,5.06.22,7.58.42a10.53,10.53,0,0,1,9.56,8.33c.64,2.62,1.25,5.26,1.87,7.89a10,10,0,0,0,3,5.11c1.86,1.76,3.75,3.5,5.61,5.27A10.57,10.57,0,0,1,627.62,421c-.88,1.76-1.67,3.57-2.68,5.25a13.7,13.7,0,0,0-1.6,9.85c.34,2,.54,4,.74,6A10.47,10.47,0,0,1,618,452.77c-2.45,1.14-5,2.17-7.44,3.21a11,11,0,0,0-5.17,4.33c-1.32,2.07-2.67,4.12-4,6.17A10.54,10.54,0,0,1,588.71,471l-7.46-2.23a10.2,10.2,0,0,0-5.92,0c-2.72.81-5.43,1.67-8.17,2.42a10.34,10.34,0,0,1-11.33-4.12c-1.53-2.18-3-4.43-4.4-6.68a11.17,11.17,0,0,0-5.39-4.53c-2.3-.94-4.58-1.94-6.87-2.94a10.61,10.61,0,0,1-6.45-11.6c.33-2.47.61-4.95.89-7.42a10.79,10.79,0,0,0-1.15-6.33c-1.15-2.21-2.26-4.44-3.37-6.67a10.56,10.56,0,0,1,2.36-13.23c1.79-1.69,3.58-3.38,5.39-5.05a10.94,10.94,0,0,0,3.33-5.85c.55-2.43,1.12-4.85,1.7-7.28a10.6,10.6,0,0,1,10.34-8.45q3.94-.15,7.89-.44a10.26,10.26,0,0,0,5.52-2.15c2-1.52,4.06-3,6.07-4.55A11.78,11.78,0,0,1,579.43,371.62Zm-1.09,84.5a34.5,34.5,0,1,0-34.47-34.57A34.51,34.51,0,0,0,578.34,456.12Z" transform="translate(-243.96 -284.15)"/><path class="cls-2" d="M547.24,421.6a31.12,31.12,0,1,1,31.1,31.15A31.14,31.14,0,0,1,547.24,421.6ZM574,424.36a5.75,5.75,0,0,0-.61-.83c-2-2-4-4.1-6.11-6.11a4.62,4.62,0,0,0-6.54,0,4.54,4.54,0,0,0,0,6.53q5.09,5.19,10.28,10.29a4.49,4.49,0,0,0,6.52,0c6.18-6.2,12.34-12.4,18.43-18.68a5.63,5.63,0,0,0,1.32-3,4.3,4.3,0,0,0-2.61-4.41,4.47,4.47,0,0,0-5.16.88c-2.26,2.21-4.44,4.5-6.69,6.72C580,418.57,577.06,421.38,574,424.36Z" transform="translate(-243.96 -284.15)"/><path class="cls-2" d="M371,524.09c1.38-3.22,3.84-4.36,7.28-4.27,5.88.16,11.77,0,17.65.09a2.42,2.42,0,0,0,2.63-1.78c2.46-5.56,5-11.1,7.6-16.59,4.95-10.34,13.31-16.56,24.05-20.09a148.06,148.06,0,0,1,36.65-6.73,192,192,0,0,1,39.45,1.33,113.23,113.23,0,0,1,30,8.11c8,3.49,13.27,9.58,17.12,17,2.85,5.52,5.29,11.26,7.81,16.95a2.43,2.43,0,0,0,2.65,1.75c6.09-.1,12.19-.06,18.29,0,4.95,0,7.25,2.86,6.26,7.71-.89,4.44-1.78,8.88-2.71,13.32-.78,3.71-2.75,5.28-6.55,5.32-1.75,0-3.51,0-5.6,0,.5.73.81,1.25,1.18,1.71a38.32,38.32,0,0,1-2.55,50,5,5,0,0,0-1.23,3.11c-.12,6.1,0,12.2-.07,18.29,0,5.61-3.39,9-9,9q-9.13,0-18.28,0c-5.53,0-8.85-3.35-8.93-8.86,0-2.55,0-5.1,0-7.85H425.12c0,2.72,0,5.32,0,7.93-.08,5.4-3.4,8.73-8.79,8.77-6.1,0-12.2,0-18.29,0-5.78,0-9.12-3.35-9.14-9.1,0-6.31,0-12.61-.05-18.92a4,4,0,0,0-1-2.57c-13.19-12.79-14.52-35.52-2.87-50.14.26-.33.47-.69.95-1.4h-4.84c-4.37,0-6.16-1.52-7.05-5.74-.95-4.49-2-9-3-13.42Zm176.35,4.5c-3-7.88-5.86-15.38-10.1-22.28a16.83,16.83,0,0,0-6.71-6.3,72.7,72.7,0,0,0-20.76-6.56,173.87,173.87,0,0,0-48.05-1.64c-10.09,1-20,2.75-29.47,6.74-4.28,1.81-8.12,4.21-10.16,8.55-3.24,6.9-6.27,13.9-9.37,20.87-.07.15.07.39.13.62Zm10.88,44.33a16.41,16.41,0,1,0-16.46,16.47A16.49,16.49,0,0,0,558.25,572.92ZM418.89,589.33c9.28-.68,16.27-8.31,15.75-16.93-.58-9.65-8.27-16.16-16.87-15.82a16.08,16.08,0,0,0-15.91,16.94C402.38,583,410.11,590,418.89,589.33Z" transform="translate(-243.96 -284.15)"/></g></svg>