<svg xmlns="http://www.w3.org/2000/svg" xmlns:xlink="http://www.w3.org/1999/xlink" viewBox="0 0 511.84 432.42"><defs><style>.cls-1{fill:url(#Безымянный_градиент_3);}.cls-2{fill:#fff;}</style><linearGradient id="Безымянный_градиент_3" x1="1.3" y1="1000.17" x2="2.53" y2="999.01" gradientTransform="matrix(331.51, 0, 0, -280.07, -135.51, 280455.09)" gradientUnits="userSpaceOnUse"><stop offset="0" stop-color="#ffde80"/><stop offset="1" stop-color="#f4ce54"/></linearGradient></defs><g id="Слой_1" data-name="Слой 1"><path id="Многоугольник_10-3-2" data-name="Многоугольник 10-3-2" class="cls-1" d="M627.84,284.15l128,216.21-128,216.21H371.92L244,500.36l128-216.21Z" transform="translate(-243.96 -284.15)"/></g><g id="Слой_2" data-name="Слой 2"><path class="cls-2" d="M376,522.89c1.38-3.22,3.84-4.36,7.28-4.27,5.88.16,11.76,0,17.65.09a2.42,2.42,0,0,0,2.63-1.78c2.46-5.56,5-11.1,7.6-16.59,4.94-10.34,13.31-16.56,24.05-20.09a148.06,148.06,0,0,1,36.65-6.73,192,192,0,0,1,39.45,1.33,113.23,113.23,0,0,1,30,8.11c8,3.49,13.26,9.58,17.11,17.05,2.85,5.52,5.3,11.26,7.82,17a2.43,2.43,0,0,0,2.65,1.75c6.09-.1,12.19-.06,18.29,0,5,0,7.24,2.86,6.26,7.71-.9,4.44-1.78,8.88-2.72,13.32-.78,3.7-2.74,5.28-6.54,5.32-1.76,0-3.51,0-5.6,0,.5.73.81,1.25,1.18,1.71a38.32,38.32,0,0,1-2.55,50,5,5,0,0,0-1.23,3.11c-.12,6.1,0,12.2-.07,18.29,0,5.61-3.39,9-9,9q-9.14,0-18.28,0c-5.53,0-8.85-3.35-8.93-8.86,0-2.55,0-5.1,0-7.85H430.07c0,2.72,0,5.32,0,7.93-.08,5.4-3.41,8.73-8.79,8.77-6.1.05-12.2,0-18.29,0-5.78,0-9.12-3.35-9.14-9.1,0-6.31,0-12.61,0-18.92a4.06,4.06,0,0,0-1-2.57c-13.19-12.79-14.52-35.52-2.87-50.14.25-.33.46-.69.95-1.4H386c-4.37,0-6.16-1.52-7.06-5.74-.94-4.49-2-8.95-3-13.42Zm176.35,4.5c-3-7.88-5.86-15.38-10.1-22.28a16.83,16.83,0,0,0-6.71-6.3,72.7,72.7,0,0,0-20.76-6.56,173.88,173.88,0,0,0-48.05-1.64c-10.1,1-20,2.75-29.47,6.74-4.29,1.81-8.12,4.21-10.16,8.55-3.24,6.9-6.27,13.9-9.37,20.87-.07.15.07.39.13.62Zm10.88,44.33a16.41,16.41,0,1,0-16.46,16.47A16.5,16.5,0,0,0,563.2,571.72ZM423.84,588.13c9.28-.68,16.26-8.31,15.75-16.93-.58-9.65-8.27-16.16-16.88-15.82a16.08,16.08,0,0,0-15.9,16.94C407.33,581.83,415.06,588.77,423.84,588.13Z" transform="translate(-243.96 -284.15)"/><path class="cls-2" d="M580.6,474.85c-1.43-.23-2.88-.41-4.3-.71-8.48-1.79-15.3-6.33-20.91-12.8a53.3,53.3,0,0,1-12.15-26.2c-2.42-13.72-.74-26.91,5.75-39.32,4.37-8.37,10.48-15.19,19.1-19.36,11.29-5.45,22.38-4.73,33,1.79C609.54,383.42,615.17,391,619,400a60,60,0,0,1,4.56,28.9c-.92,11.22-4.43,21.53-11.4,30.49-5.37,6.91-12.08,12-20.66,14.27-1.75.47-3.57.66-5.36,1-.26,0-.51.11-.77.17ZM617,424.27a54.14,54.14,0,0,0-5.33-24.09c-3.35-6.8-8-12.52-14.55-16.46a26.09,26.09,0,0,0-23.2-2.39c-7.52,2.71-13,8-17.18,14.62A51.74,51.74,0,0,0,549,424a52.73,52.73,0,0,0,5.31,23.56c3.39,6.86,8,12.63,14.7,16.58A26,26,0,0,0,590.36,467c8.42-2.46,14.45-8.05,19-15.32A51.52,51.52,0,0,0,617,424.27Z" transform="translate(-243.96 -284.15)"/><path class="cls-2" d="M552.4,423.88a49.42,49.42,0,0,1,6.74-25.45c3.5-5.85,8.11-10.58,14.46-13.34a22.71,22.71,0,0,1,19.09.14c6.27,2.84,10.82,7.56,14.27,13.4a48.42,48.42,0,0,1,6.54,23.29,50.21,50.21,0,0,1-5,24.3c-3.07,6.26-7.31,11.56-13.44,15.06-7.15,4.09-14.56,4.57-22.11,1.08-6.08-2.82-10.5-7.45-13.88-13.12a48,48,0,0,1-6.61-23.47C552.47,425.14,552.43,424.51,552.4,423.88Zm10.53,6.77a9.16,9.16,0,0,0,1.39-1q14.76-14.72,29.5-29.47l.42-.43a1.7,1.7,0,0,0,.1-2.55,1.73,1.73,0,0,0-2.49.15c-.15.13-.29.28-.43.42q-14.74,14.75-29.48,29.49a4.5,4.5,0,0,0-.82,1C560.53,429.31,561.35,430.63,562.93,430.65Zm22-32.4c-.45-.52-.76-1.11-1.25-1.37a1.74,1.74,0,0,0-2.13.57q-9.07,9.09-18.14,18.16a1.72,1.72,0,1,0,2.37,2.42q9.12-9.09,18.21-18.23A8.08,8.08,0,0,0,584.89,398.25Z" transform="translate(-243.96 -284.15)"/></g></svg>