<svg xmlns="http://www.w3.org/2000/svg" xmlns:xlink="http://www.w3.org/1999/xlink" viewBox="0 0 511.84 432.42"><defs><style>.cls-1{fill:url(#Безымянный_градиент_3);}.cls-2{fill:#fff;}</style><linearGradient id="Безымянный_градиент_3" x1="1.3" y1="1000.17" x2="2.53" y2="999.01" gradientTransform="matrix(331.51, 0, 0, -280.07, -135.51, 280455.09)" gradientUnits="userSpaceOnUse"><stop offset="0" stop-color="#ffde80"/><stop offset="1" stop-color="#f4ce54"/></linearGradient></defs><g id="Слой_1" data-name="Слой 1"><path id="Многоугольник_10-3-2" data-name="Многоугольник 10-3-2" class="cls-1" d="M627.84,284.15l128,216.21-128,216.21H371.92L244,500.36l128-216.21Z" transform="translate(-243.96 -284.15)"/></g><g id="Слой_2" data-name="Слой 2"><path class="cls-2" d="M377.24,524.52c1.37-3.22,3.83-4.36,7.27-4.27,5.88.16,11.77,0,17.65.08a2.43,2.43,0,0,0,2.64-1.77q3.68-8.35,7.59-16.59c4.95-10.34,13.32-16.57,24.05-20.09a148.61,148.61,0,0,1,36.66-6.74,192.73,192.73,0,0,1,39.45,1.34,113.33,113.33,0,0,1,30,8.11c8,3.48,13.26,9.58,17.11,17,2.85,5.53,5.3,11.26,7.81,17a2.43,2.43,0,0,0,2.66,1.75c6.09-.09,12.19-.05,18.28,0,5,0,7.25,2.85,6.27,7.71-.9,4.44-1.79,8.88-2.72,13.31-.78,3.71-2.75,5.29-6.54,5.33-1.76,0-3.52,0-5.61,0,.51.74.82,1.25,1.19,1.72a38.34,38.34,0,0,1-2.55,50,5,5,0,0,0-1.24,3.11c-.11,6.09,0,12.19-.06,18.29,0,5.61-3.39,9-9,9q-9.15.06-18.29,0c-5.53,0-8.85-3.35-8.92-8.86,0-2.54,0-5.09,0-7.84H431.33c0,2.71,0,5.32,0,7.93-.09,5.39-3.41,8.73-8.8,8.77-6.09.05-12.19,0-18.29,0-5.77,0-9.11-3.36-9.13-9.1,0-6.31,0-12.62-.06-18.93a4,4,0,0,0-1-2.56c-13.2-12.79-14.52-35.53-2.88-50.15.26-.32.47-.68,1-1.39h-4.84c-4.37,0-6.16-1.52-7.05-5.75-.95-4.48-2-8.94-3-13.41ZM553.58,529c-3-7.88-5.85-15.37-10.09-22.27a16.76,16.76,0,0,0-6.71-6.3A72.49,72.49,0,0,0,516,493.88a173.11,173.11,0,0,0-48-1.64c-10.1,1-20.05,2.74-29.48,6.73-4.28,1.82-8.12,4.21-10.15,8.55-3.24,6.91-6.27,13.91-9.38,20.88-.06.14.08.38.13.61Zm10.89,44.34A16.41,16.41,0,1,0,548,589.82,16.51,16.51,0,0,0,564.47,573.35Zm-139.36,16.4c9.27-.68,16.26-8.3,15.74-16.92-.57-9.66-8.26-16.16-16.87-15.82A16.08,16.08,0,0,0,408.07,574C408.59,583.46,416.32,590.39,425.11,589.75Z" transform="translate(-243.96 -284.15)"/><path class="cls-2" d="M577.31,422.51a.78.78,0,0,0-.24.59c0,1.8,0,3.6,0,5.4,0,.14,0,.28.06.49,1.75-1,3.42-2,5.09-2.95a.5.5,0,0,0,.22-.36c0-2,0-4,0-6.15C580.65,420.57,579,421.52,577.31,422.51Z" transform="translate(-243.96 -284.15)"/><path class="cls-2" d="M575.73,413.63a.67.67,0,0,0-.57,0c-.56.28-1.09.61-1.63.92l-3.59,2.08,3.52,2c.55.32,1.12.87,1.68.87s1.13-.54,1.69-.86l3.84-2.23C579,415.47,577.35,414.54,575.73,413.63Z" transform="translate(-243.96 -284.15)"/><path class="cls-2" d="M586.15,413.28c1.66-.95,3.32-1.89,5-2.86a.5.5,0,0,0,.22-.36c0-1.89,0-3.78,0-5.67-.09,0-.14,0-.17,0-1.66.95-3.32,1.89-5,2.87a.72.72,0,0,0-.24.53c0,.84,0,1.68,0,2.52v3C586.08,413.28,586.12,413.3,586.15,413.28Z" transform="translate(-243.96 -284.15)"/><path class="cls-2" d="M582.08,407.18c-.92-.56-1.85-1.09-2.78-1.62l-2.24-1.28c0,2,0,3.85,0,5.71a.79.79,0,0,0,.36.51c1.53.91,3.07,1.79,4.61,2.67a3.22,3.22,0,0,0,.39.15c0-1.91,0-3.77,0-5.62A.76.76,0,0,0,582.08,407.18Z" transform="translate(-243.96 -284.15)"/><path class="cls-2" d="M623.73,383.64l-38.58-11.58a1.65,1.65,0,0,1-.36-.16h-1.17q-7.77,2.36-15.53,4.71l-23.51,7.05c-2,.59-2.68,1.54-2.68,3.55q0,21.21,0,42.42c0,5.87,2.18,11,5.53,15.71,4.24,6,9.69,10.66,15.55,14.91a126.21,126.21,0,0,0,19.46,11.46,3.76,3.76,0,0,0,3.54,0c9.89-4.78,19.2-10.46,27.35-17.87,4.6-4.17,8.62-8.83,11.13-14.61a24.23,24.23,0,0,0,2-9.7q0-21.11,0-42.22C626.51,385.17,625.82,384.26,623.73,383.64ZM597,411.69l5.63,3.26c1.58.91,1.58,2.48,0,3.39l-5.81,3.35.59.36c1.37.79,2.75,1.57,4.11,2.38a.77.77,0,0,0,.9,0c2.48-1.45,5-2.88,7.46-4.32a1.75,1.75,0,0,1,2,0,1.65,1.65,0,0,1,.74,1.67,1.77,1.77,0,0,1-1,1.38l-5.48,3.17-.62.38,3.68,2.13c.24.14.48.27.71.42a1.76,1.76,0,0,1,.63,2.4,1.73,1.73,0,0,1-2.4.64c-1.33-.73-2.64-1.51-4-2.27-.12-.07-.24-.12-.47-.23v.69c0,2.17,0,4.34,0,6.52a1.73,1.73,0,0,1-1.46,1.73,1.75,1.75,0,0,1-1.9-1.07,2.93,2.93,0,0,1-.16-1c0-2.74,0-5.48,0-8.22a1.06,1.06,0,0,0-.65-1.09c-1.53-.84-3-1.74-4.64-2.66,0,.25,0,.44,0,.62v6.46c0,1.81-1.36,2.58-2.94,1.67l-5.39-3.11L586,430v3.64c0,.76-.21,1.65.12,2.23s1.21.81,1.85,1.18l5.89,3.4a1.82,1.82,0,0,1,1,1.76,1.76,1.76,0,0,1-2.7,1.37c-1.8-1-3.59-2.07-5.39-3.1l-.77-.44c0,.19,0,.34,0,.48,0,1.35,0,2.7,0,4.05a2.14,2.14,0,0,1-1.32,2.3h-.94a2.25,2.25,0,0,1-1.31-2.38c.07-1.45,0-2.92,0-4.47l-3.68,2.12c-.82.47-1.62.94-2.44,1.4a1.77,1.77,0,1,1-1.75-3.07c2.47-1.43,4.94-2.86,7.43-4.27a.77.77,0,0,0,.45-.78c0-1.78,0-3.56,0-5.44l-1.23.7-4.77,2.76a1.81,1.81,0,0,1-2.92-1.69v-7a4.89,4.89,0,0,0-.51.25c-1.46.84-2.91,1.69-4.37,2.51a.73.73,0,0,0-.43.74c0,2.9,0,5.79,0,8.69a1.75,1.75,0,0,1-1.1,1.72,1.51,1.51,0,0,1-1.83-.35,2.46,2.46,0,0,1-.58-1.4c-.06-2.12,0-4.23,0-6.35v-.71l-.52.25c-1.07.61-2.13,1.24-3.2,1.84a1.77,1.77,0,1,1-1.73-3.08c1.18-.69,2.37-1.37,3.65-2.1l-.56-.36-5.59-3.23a1.77,1.77,0,0,1-.93-1.92,1.65,1.65,0,0,1,1.54-1.38,2.47,2.47,0,0,1,1.27.32q3.6,2,7.16,4.14a1.14,1.14,0,0,0,1.36,0c1.44-.88,2.91-1.7,4.43-2.58-.19-.12-.31-.22-.45-.3l-5.39-3.11a1.79,1.79,0,0,1,0-3.33l5.54-3.2.6-.36-.52-.34c-1.48-.85-3-1.68-4.42-2.56a.86.86,0,0,0-1,0q-3.69,2.18-7.41,4.29a1.77,1.77,0,1,1-1.74-3.07l5.53-3.2c.17-.09.33-.2.57-.35l-2.82-1.63c-.32-.19-.65-.36-1-.56a1.75,1.75,0,0,1-.61-2.41,1.73,1.73,0,0,1,2.35-.65c1.11.6,2.2,1.26,3.31,1.89.15.09.3.16.53.27v-6.92c0-1.25.7-2,1.78-2s1.75.81,1.75,2.06c0,2.82,0,5.64,0,8.45a.77.77,0,0,0,.45.78c1.45.81,2.88,1.66,4.33,2.49l.53.28v-.65c0-2,0-4.07,0-6.1a1.79,1.79,0,0,1,2.89-1.65l5.39,3.11.63.33v-1.07c0-1,0-2,0-3.05a4.91,4.91,0,0,0-.12-2.12c-.3-.54-1.13-.77-1.74-1.12l-6-3.43a1.79,1.79,0,1,1,1.78-3.06l5.44,3.13c.16.1.33.18.59.33v-3.28c0-.35,0-.7,0-1a1.78,1.78,0,0,1,1.8-1.78,1.75,1.75,0,0,1,1.73,1.79c0,1.4,0,2.81,0,4.32l.6-.32c1.87-1.07,3.73-2.16,5.6-3.22a1.77,1.77,0,1,1,1.78,3.05l-.61.35c-2.3,1.33-4.6,2.67-6.91,4a.77.77,0,0,0-.47.77c0,1.74,0,3.48,0,5.22,0,.15,0,.3,0,.53l.5-.25,5.49-3.17a1.8,1.8,0,0,1,2.9,1.69v6.72c.23-.12.4-.2.56-.3,1.42-.82,2.84-1.65,4.27-2.45a.79.79,0,0,0,.48-.82c0-2.86,0-5.72,0-8.58a1.8,1.8,0,0,1,.94-1.7,1.64,1.64,0,0,1,1.79.06,1.81,1.81,0,0,1,.82,1.65c0,2.09,0,4.19,0,6.28v.72c.2-.09.34-.13.46-.2l3.76-2.17a1.78,1.78,0,1,1,1.78,3.06l-4.19,2.42.56.34,5.48,3.17a1.83,1.83,0,0,1,1,1.4,1.68,1.68,0,0,1-.73,1.69,1.72,1.72,0,0,1-1.94.05l-5.28-3.05c-.8-.45-1.59-.92-2.4-1.36a.69.69,0,0,0-.56,0c-1.71,1-3.4,1.95-5.16,3C596.73,411.51,596.86,411.61,597,411.69Z" transform="translate(-243.96 -284.15)"/><path class="cls-2" d="M591.15,422.52c-1.68-1-3.37-1.95-5.18-3,0,2.13,0,4.13,0,6.14a.63.63,0,0,0,.32.42q2.33,1.37,4.66,2.7a2.17,2.17,0,0,0,.39.14c0-2,0-4,0-6A.59.59,0,0,0,591.15,422.52Z" transform="translate(-243.96 -284.15)"/><path class="cls-2" d="M591.52,414.26c-1.16.81-2.44,1.44-3.67,2.15,0,.08.06.13.08.15,1.71,1,3.41,2,5.13,2.95a.73.73,0,0,0,.57-.06c.92-.51,1.83-1.05,2.74-1.58l2.12-1.22c-1.42-.83-2.81-1.52-4.07-2.4A2.18,2.18,0,0,0,591.52,414.26Z" transform="translate(-243.96 -284.15)"/><path class="cls-2" d="M373.25,425.4c1.17-2.38,2.63-3.32,4.61-2.75a5.34,5.34,0,0,1,2.13,1.29q23.44,22.51,46.84,45.07l.94.89,2-1.87c1.8-1.69,4.05-1.75,5.58-.16s1.4,3.86-.37,5.58c-1.42,1.38-2.87,2.74-4.31,4.1-1.91,1.81-3.93,1.8-5.82,0L376.49,431c-1.22-1.17-2.64-2.18-3.24-3.86Z" transform="translate(-243.96 -284.15)"/><path class="cls-2" d="M474.76,428.72c-2.56.36-5,.72-7.39,1a10.61,10.61,0,0,1-2.63.16,3.71,3.71,0,0,1-.14-7.31c3.81-.62,7.64-1.13,11.46-1.68.67-.1,1.33-.21,2-.26a3.69,3.69,0,0,1,4.19,3.75q0,6.54,0,13.09a3.74,3.74,0,1,1-7.47,0c0-2.51,0-5,0-7.55Z" transform="translate(-243.96 -284.15)"/><path class="cls-2" d="M469.12,440a8.67,8.67,0,0,1-1.26,2.15c-1.71,1.78-3.54,3.46-5.37,5.14a3.75,3.75,0,1,1-5.13-5.46c1.8-1.75,3.61-3.49,5.47-5.19a3.48,3.48,0,0,1,4-.65C468.33,436.66,469.05,437.84,469.12,440Z" transform="translate(-243.96 -284.15)"/><path class="cls-2" d="M453,455.13a11.5,11.5,0,0,1-1.42,2.5c-1.71,1.79-3.54,3.48-5.37,5.15a3.7,3.7,0,0,1-5.34,0,3.75,3.75,0,0,1,.22-5.42q2.63-2.56,5.32-5.06a3.55,3.55,0,0,1,4.13-.72A4.27,4.27,0,0,1,453,455.13Z" transform="translate(-243.96 -284.15)"/></g></svg>