<svg xmlns="http://www.w3.org/2000/svg" xmlns:xlink="http://www.w3.org/1999/xlink" viewBox="0 0 511.84 432.42"><defs><style>.cls-1{fill:url(#Безымянный_градиент_3);}.cls-2{fill:#fff;}</style><linearGradient id="Безымянный_градиент_3" x1="1.3" y1="1000.17" x2="2.53" y2="999.01" gradientTransform="matrix(331.51, 0, 0, -280.07, -135.51, 280455.09)" gradientUnits="userSpaceOnUse"><stop offset="0" stop-color="#ffde80"/><stop offset="1" stop-color="#f4ce54"/></linearGradient></defs><g id="Слой_1" data-name="Слой 1"><path id="Многоугольник_10-3-2" data-name="Многоугольник 10-3-2" class="cls-1" d="M627.84,284.15l128,216.21-128,216.21H371.92L244,500.36l128-216.21Z" transform="translate(-243.96 -284.15)"/></g><g id="Слой_2" data-name="Слой 2"><path class="cls-2" d="M376.13,522.89c1.38-3.22,3.84-4.36,7.28-4.27,5.88.16,11.77,0,17.65.09a2.42,2.42,0,0,0,2.63-1.78c2.46-5.56,5-11.1,7.6-16.59,4.95-10.34,13.31-16.56,24-20.09A148.06,148.06,0,0,1,472,473.52a192,192,0,0,1,39.45,1.33,113.23,113.23,0,0,1,30,8.11c8,3.49,13.27,9.58,17.12,17.05,2.85,5.52,5.29,11.26,7.81,17a2.43,2.43,0,0,0,2.65,1.75c6.09-.1,12.19-.06,18.29,0,4.95,0,7.25,2.86,6.26,7.71-.89,4.44-1.78,8.88-2.71,13.32-.78,3.7-2.75,5.28-6.55,5.32-1.75,0-3.51,0-5.6,0,.5.73.81,1.25,1.18,1.71a38.32,38.32,0,0,1-2.55,50,5,5,0,0,0-1.23,3.11c-.12,6.1,0,12.2-.06,18.29,0,5.61-3.4,9-9,9q-9.13,0-18.28,0c-5.53,0-8.85-3.35-8.93-8.86,0-2.55,0-5.1,0-7.85H430.23c0,2.72,0,5.32,0,7.93-.08,5.4-3.4,8.73-8.79,8.77-6.1.05-12.19,0-18.29,0-5.78,0-9.12-3.35-9.14-9.1,0-6.31,0-12.61-.05-18.92a4,4,0,0,0-1-2.57c-13.19-12.79-14.52-35.52-2.87-50.14.26-.33.47-.69.95-1.4h-4.84c-4.37,0-6.16-1.52-7.05-5.74-.95-4.49-2-8.95-3-13.42Zm176.35,4.5c-3-7.88-5.86-15.38-10.1-22.28a16.83,16.83,0,0,0-6.71-6.3,72.7,72.7,0,0,0-20.76-6.56,173.87,173.87,0,0,0-48-1.64c-10.09,1-20,2.75-29.47,6.74-4.28,1.81-8.12,4.21-10.16,8.55-3.24,6.9-6.27,13.9-9.37,20.87-.07.15.07.39.13.62Zm10.88,44.33a16.41,16.41,0,1,0-16.46,16.47A16.49,16.49,0,0,0,563.36,571.72ZM424,588.13c9.28-.68,16.27-8.31,15.75-16.93-.58-9.65-8.27-16.16-16.87-15.82A16.08,16.08,0,0,0,407,572.32C407.49,581.83,415.22,588.77,424,588.13Z" transform="translate(-243.96 -284.15)"/><path class="cls-2" d="M624.26,384.55,585.67,373c-.12,0-.23-.11-.35-.16h-1.18l-15.52,4.7-23.51,7.05c-2,.59-2.68,1.54-2.68,3.55q0,21.21,0,42.42c0,5.88,2.18,11,5.52,15.71,4.25,5.95,9.7,10.66,15.56,14.91A126.12,126.12,0,0,0,583,472.62a3.76,3.76,0,0,0,3.54,0,113.67,113.67,0,0,0,27.36-17.87c4.6-4.17,8.61-8.83,11.13-14.61a24.22,24.22,0,0,0,2-9.7q0-21.1,0-42.22C627,386.08,626.34,385.18,624.26,384.55Zm-27.58,7.94c1.21-1.27,2.46-2.5,3.72-3.73a1.7,1.7,0,0,1,2.44,2.36q-1.86,1.94-3.8,3.79a1.6,1.6,0,0,1-1.89.33,1.86,1.86,0,0,1-1-1.78A3.52,3.52,0,0,1,596.68,392.49ZM584.33,381.3h.8a2.12,2.12,0,0,1,1.37,2.32c0,1.43,0,2.87,0,4.31a2.89,2.89,0,0,1-.28,1.19,1.67,1.67,0,0,1-1.81.82,1.76,1.76,0,0,1-1.37-1.42,5.22,5.22,0,0,1,0-.69c0-1.4,0-2.81,0-4.21A2.14,2.14,0,0,1,584.33,381.3Zm.4,12.65a12.78,12.78,0,1,1-12.8,12.78A12.92,12.92,0,0,1,584.73,394Zm-17.21-5.64a1.58,1.58,0,0,1,1.52.43c1.27,1.25,2.55,2.5,3.79,3.8a3.27,3.27,0,0,1,.48.92,1.81,1.81,0,0,1-1,1.75,1.55,1.55,0,0,1-1.82-.21c-.52-.45-1-1-1.49-1.45-.79-.78-1.6-1.55-2.35-2.36A1.7,1.7,0,0,1,567.52,388.31Zm-5.95,20.19a2.12,2.12,0,0,1-2.32-1.37v-.79a2.12,2.12,0,0,1,2.32-1.37c1.44,0,2.88,0,4.32,0a2.89,2.89,0,0,1,1.19.28,1.67,1.67,0,0,1,.82,1.81,1.74,1.74,0,0,1-1.42,1.36,3.94,3.94,0,0,1-.69.05C564.38,408.49,563,408.45,561.57,408.5Zm5.1,16.2a1.67,1.67,0,0,1,0-2.37c1.23-1.27,2.49-2.53,3.77-3.75a1.61,1.61,0,0,1,1.93-.33,1.83,1.83,0,0,1,1,1.79,3.72,3.72,0,0,1-.54,1c-1.2,1.25-2.44,2.48-3.68,3.69A1.68,1.68,0,0,1,566.67,424.7Zm16.38,26.16a12.55,12.55,0,0,1-.41,3.52,5.4,5.4,0,0,1-1.55,2.48,5.92,5.92,0,0,1-2.28,1.32,9.92,9.92,0,0,1-3,.42,12.51,12.51,0,0,1-3.57-.45,5.76,5.76,0,0,1-2.44-1.38,5.56,5.56,0,0,1-1.38-2.41,12,12,0,0,1-.45-3.5v-8.64a2.42,2.42,0,0,1,.5-1.66,1.7,1.7,0,0,1,1.31-.55,1.74,1.74,0,0,1,1.34.55,2.42,2.42,0,0,1,.5,1.66v8.84a8.19,8.19,0,0,0,.33,2.52,3,3,0,0,0,1.2,1.57,4.39,4.39,0,0,0,2.4.56,3.6,3.6,0,0,0,3-1.14,5.53,5.53,0,0,0,.88-3.44v-8.91a2.4,2.4,0,0,1,.49-1.66,1.67,1.67,0,0,1,1.31-.55,1.71,1.71,0,0,1,1.33.55,2.36,2.36,0,0,1,.51,1.66Zm.12-19.69a2.39,2.39,0,0,1-.19-.87c0-1.65,0-3.3,0-5a1.75,1.75,0,0,1,1.45-1.81,1.71,1.71,0,0,1,1.91,1.08,2.56,2.56,0,0,1,.14.87c0,.8,0,1.59,0,2.38h0c0,.85,0,1.69,0,2.53a1.8,1.8,0,0,1-1.47,1.76A1.75,1.75,0,0,1,583.17,431.17Zm18.29,11.06c-.05.2-.12.41-.19.61s-.15.41-.22.62L596.7,455.2c-.16.45-.31.88-.47,1.29a4.78,4.78,0,0,1-.54,1.06,2.37,2.37,0,0,1-.81.76,2.54,2.54,0,0,1-1.25.29,2.5,2.5,0,0,1-1.24-.29,2.3,2.3,0,0,1-.82-.76,5.64,5.64,0,0,1-.55-1.07c-.15-.4-.31-.83-.46-1.28l-4.28-11.64-.23-.63a5.16,5.16,0,0,1-.2-.66,3.1,3.1,0,0,1-.08-.6,1.58,1.58,0,0,1,.51-1.14,1.65,1.65,0,0,1,1.26-.52,1.48,1.48,0,0,1,1.32.57,7.56,7.56,0,0,1,.79,1.82l4.07,12.06,4.08-12.14c.21-.64.37-1.08.48-1.33a1.78,1.78,0,0,1,.53-.68,1.53,1.53,0,0,1,1-.3,1.74,1.74,0,0,1,1.49.86,1.49,1.49,0,0,1,.23.77A3.25,3.25,0,0,1,601.46,442.23Zm.78-17.19a1.61,1.61,0,0,1-1.89-.31c-.63-.58-1.22-1.2-1.83-1.81s-1.23-1.21-1.83-1.83a1.72,1.72,0,1,1,2.44-2.41c1.17,1.16,2.36,2.32,3.5,3.52a4.85,4.85,0,0,1,.63,1.06A1.86,1.86,0,0,1,602.24,425Zm8-17.91a2.14,2.14,0,0,1-2.32,1.37c-1.44-.05-2.89,0-4.33,0a2.8,2.8,0,0,1-1.18-.28,1.65,1.65,0,0,1-.83-1.81A1.76,1.76,0,0,1,603,405a4,4,0,0,1,.69,0c1.41,0,2.82,0,4.23,0a2.14,2.14,0,0,1,2.32,1.37Z" transform="translate(-243.96 -284.15)"/><path class="cls-2" d="M373,425.28c1.17-2.38,2.63-3.32,4.61-2.75a5.34,5.34,0,0,1,2.13,1.29q23.44,22.51,46.84,45.07l.94.89,2-1.87c1.8-1.69,4-1.75,5.58-.16s1.4,3.86-.37,5.57c-1.42,1.39-2.87,2.75-4.31,4.11-1.91,1.81-3.93,1.8-5.82,0L376.2,430.84c-1.22-1.17-2.63-2.18-3.24-3.86Z" transform="translate(-243.96 -284.15)"/><path class="cls-2" d="M474.48,428.6c-2.57.36-5,.72-7.4,1a10.61,10.61,0,0,1-2.63.16,3.71,3.71,0,0,1-.14-7.31c3.81-.62,7.64-1.13,11.46-1.68.67-.1,1.34-.21,2-.26A3.68,3.68,0,0,1,482,424.3c0,4.36,0,8.73,0,13.09a3.74,3.74,0,1,1-7.47,0c0-2.51,0-5,0-7.55Z" transform="translate(-243.96 -284.15)"/><path class="cls-2" d="M468.83,439.89a8.67,8.67,0,0,1-1.26,2.15c-1.71,1.78-3.54,3.46-5.37,5.14a3.75,3.75,0,1,1-5.13-5.46c1.8-1.75,3.61-3.49,5.47-5.19a3.48,3.48,0,0,1,4-.65C468,436.54,468.76,437.72,468.83,439.89Z" transform="translate(-243.96 -284.15)"/><path class="cls-2" d="M452.69,455a11.1,11.1,0,0,1-1.42,2.5c-1.71,1.79-3.54,3.48-5.37,5.15a3.7,3.7,0,0,1-5.34-.05,3.75,3.75,0,0,1,.22-5.42q2.63-2.56,5.32-5.06a3.55,3.55,0,0,1,4.13-.72A4.27,4.27,0,0,1,452.69,455Z" transform="translate(-243.96 -284.15)"/></g></svg>