<svg xmlns="http://www.w3.org/2000/svg" xmlns:xlink="http://www.w3.org/1999/xlink" viewBox="0 0 511.84 432.42"><defs><style>.cls-1{fill:url(#Безымянный_градиент_3);}.cls-2{fill:#fff;}</style><linearGradient id="Безымянный_градиент_3" x1="1.3" y1="1000.17" x2="2.53" y2="999.01" gradientTransform="matrix(331.51, 0, 0, -280.07, -135.51, 280455.09)" gradientUnits="userSpaceOnUse"><stop offset="0" stop-color="#ffde80"/><stop offset="1" stop-color="#f4ce54"/></linearGradient></defs><g id="Слой_1" data-name="Слой 1"><path id="Многоугольник_10-3-2" data-name="Многоугольник 10-3-2" class="cls-1" d="M627.84,284.15l128,216.21-128,216.21H371.92L244,500.36l128-216.21Z" transform="translate(-243.96 -284.15)"/></g><g id="Слой_2" data-name="Слой 2"><path class="cls-2" d="M375,524.16c1.37-3.22,3.83-4.36,7.27-4.27,5.88.16,11.77,0,17.65.09a2.43,2.43,0,0,0,2.64-1.78q3.68-8.34,7.59-16.59c4.95-10.34,13.31-16.57,24.05-20.09a148.05,148.05,0,0,1,36.66-6.73,191.9,191.9,0,0,1,39.44,1.33,113.23,113.23,0,0,1,30,8.11c8,3.49,13.27,9.58,17.12,17,2.85,5.52,5.3,11.25,7.81,17a2.42,2.42,0,0,0,2.65,1.74c6.1-.09,12.19-.05,18.29,0,5,0,7.25,2.85,6.27,7.71-.9,4.44-1.79,8.88-2.72,13.31-.78,3.71-2.75,5.29-6.54,5.33-1.76,0-3.52,0-5.61,0,.51.73.82,1.24,1.19,1.71a38.34,38.34,0,0,1-2.55,50,5,5,0,0,0-1.24,3.11c-.11,6.1,0,12.19-.06,18.29,0,5.61-3.39,9-9,9q-9.15,0-18.29,0c-5.53,0-8.85-3.35-8.92-8.86,0-2.55,0-5.1,0-7.85H429.05c0,2.71,0,5.32,0,7.93-.09,5.39-3.41,8.73-8.8,8.77-6.1.05-12.19,0-18.29,0-5.77,0-9.11-3.35-9.14-9.1,0-6.31,0-12.62-.05-18.92a4,4,0,0,0-1-2.57c-13.2-12.79-14.52-35.52-2.88-50.15.26-.32.47-.68.95-1.39H385c-4.37,0-6.16-1.52-7.05-5.75-.95-4.48-2-8.94-3-13.41Zm176.34,4.5c-2.95-7.88-5.85-15.38-10.1-22.28a16.69,16.69,0,0,0-6.71-6.3,72.64,72.64,0,0,0-20.75-6.56,173.88,173.88,0,0,0-48.05-1.64c-10.1,1-20.05,2.75-29.48,6.74-4.28,1.81-8.12,4.2-10.15,8.55-3.24,6.9-6.27,13.9-9.38,20.87-.06.15.08.39.13.62ZM562.18,573a16.41,16.41,0,1,0-16.46,16.47A16.49,16.49,0,0,0,562.18,573Zm-139.36,16.4c9.28-.67,16.27-8.3,15.75-16.92-.58-9.65-8.27-16.16-16.87-15.82a16.09,16.09,0,0,0-15.91,16.94C406.31,583.1,414,590,422.82,589.39Z" transform="translate(-243.96 -284.15)"/><path class="cls-2" d="M572.55,471.8h-5.48c-.26-.06-.51-.12-.76-.16-2.67-.41-5.39-.64-8-1.26a40.77,40.77,0,0,1-24.57-16.12,44.38,44.38,0,0,1-8-34.61c2.87-16.58,12.5-27.74,28.23-33.63,2-.75,4.09-1.28,6.13-1.9v-6.76h-5.74v-5.81h29.38v5.88h-5.86v6.72a45.21,45.21,0,0,1,28.34,19.16c-.92-2.74-.29-5.24.93-7.69a67.25,67.25,0,0,1,8.11-12.07c.05-.06.17-.07.31-.12,3.19,4.1,6.4,8.19,8.48,13a10.14,10.14,0,0,1,1,3.94,9,9,0,0,1-5.49,8.55,9.29,9.29,0,0,1-10.2-1.26c-.29-.22-.56-.47-.9-.76,0,.2,0,.27,0,.32.15.32.31.64.47,1a40.91,40.91,0,0,1,4.37,15.93,44,44,0,0,1-7.43,27.75c-6.83,10.29-16.24,16.88-28.47,19.23C575.78,471.39,574.16,471.56,572.55,471.8Zm-3.43-76.48c-17.25.05-32,12.08-32.44,32.31-.35,17.6,14.44,32.26,32.3,32.38s32.72-14.48,32.48-32.19C601.19,407.26,586.2,395.41,569.12,395.32Z" transform="translate(-243.96 -284.15)"/><path class="cls-2" d="M566.13,401.18v5.67H572v-5.66a26.4,26.4,0,0,1,13.7,5.65l-4,3.85L586,415l3.78-4a26.6,26.6,0,0,1,5.69,13.65H589.8v5.86h5.66a26.57,26.57,0,0,1-5.63,13.62l-3.88-4-4.3,4.3,4.1,3.83A26.6,26.6,0,0,1,572,453.92v-5.66h-5.88v5.66a26.51,26.51,0,0,1-13.61-5.63l4-3.79-4.31-4.26-3.81,4a26.53,26.53,0,0,1-5.75-13.72h5.67v-5.89H542.7a26.38,26.38,0,0,1,5.71-13.72l3.81,4,4.21-4.2-4-3.83A26.45,26.45,0,0,1,566.13,401.18Zm0,29.25H580.8v-5.86H572v-11.7h-5.81Z" transform="translate(-243.96 -284.15)"/></g></svg>