<svg xmlns="http://www.w3.org/2000/svg" xmlns:xlink="http://www.w3.org/1999/xlink" viewBox="0 0 511.84 432.42"><defs><style>.cls-1{fill:url(#Безымянный_градиент_3);}.cls-2{fill:#fff;}</style><linearGradient id="Безымянный_градиент_3" x1="1.3" y1="1000.17" x2="2.53" y2="999.01" gradientTransform="matrix(331.51, 0, 0, -280.07, -135.51, 280455.09)" gradientUnits="userSpaceOnUse"><stop offset="0" stop-color="#ffde80"/><stop offset="1" stop-color="#f4ce54"/></linearGradient></defs><g id="Слой_1" data-name="Слой 1"><path id="Многоугольник_10-3-2" data-name="Многоугольник 10-3-2" class="cls-1" d="M627.84,284.15l128,216.21-128,216.21H371.92L244,500.36l128-216.21Z" transform="translate(-243.96 -284.15)"/></g><g id="Слой_2" data-name="Слой 2"><path class="cls-2" d="M377.87,522.89c1.37-3.22,3.84-4.36,7.27-4.27,5.88.16,11.77,0,17.65.09a2.43,2.43,0,0,0,2.64-1.78c2.46-5.56,5-11.1,7.59-16.59,5-10.34,13.32-16.56,24.05-20.09a148.14,148.14,0,0,1,36.66-6.73,192,192,0,0,1,39.45,1.33,113.33,113.33,0,0,1,30,8.11c8,3.49,13.26,9.58,17.11,17.05,2.85,5.52,5.3,11.26,7.81,17a2.44,2.44,0,0,0,2.66,1.75c6.09-.1,12.19-.06,18.28,0,5,0,7.25,2.86,6.27,7.71-.9,4.44-1.78,8.88-2.72,13.32-.78,3.7-2.75,5.28-6.54,5.32-1.76,0-3.52,0-5.61,0,.51.73.82,1.25,1.19,1.71a38.33,38.33,0,0,1-2.55,50,5,5,0,0,0-1.24,3.11c-.11,6.1,0,12.2-.06,18.29,0,5.61-3.39,9-9,9q-9.15,0-18.29,0c-5.53,0-8.85-3.35-8.92-8.86,0-2.55,0-5.1,0-7.85H432c0,2.72,0,5.32,0,7.93-.09,5.4-3.41,8.73-8.8,8.77-6.09.05-12.19,0-18.29,0-5.77,0-9.11-3.35-9.13-9.1,0-6.31,0-12.61-.06-18.92a4,4,0,0,0-1-2.57c-13.2-12.79-14.52-35.52-2.88-50.14.26-.33.47-.69,1-1.4h-4.84c-4.37,0-6.15-1.52-7.05-5.74-.95-4.49-2-8.95-3-13.42Zm176.34,4.5c-3-7.88-5.85-15.38-10.09-22.28a16.83,16.83,0,0,0-6.71-6.3,72.8,72.8,0,0,0-20.76-6.56,173.88,173.88,0,0,0-48-1.64c-10.1,1-20.05,2.75-29.48,6.74-4.28,1.81-8.12,4.21-10.15,8.55-3.24,6.9-6.27,13.9-9.37,20.87-.07.15.07.39.12.62Zm10.89,44.33a16.41,16.41,0,1,0-16.46,16.47A16.51,16.51,0,0,0,565.1,571.72ZM425.74,588.13c9.28-.68,16.26-8.31,15.74-16.93-.57-9.65-8.26-16.16-16.87-15.82a16.07,16.07,0,0,0-15.9,16.94C409.22,581.83,417,588.77,425.74,588.13Z" transform="translate(-243.96 -284.15)"/><path class="cls-2" d="M377.87,423.77c1.17-2.38,2.63-3.31,4.61-2.75a5.45,5.45,0,0,1,2.13,1.29q23.44,22.51,46.84,45.08l.94.89c.67-.64,1.33-1.25,2-1.87,1.8-1.69,4.05-1.76,5.58-.16s1.4,3.86-.37,5.57c-1.42,1.38-2.87,2.74-4.31,4.11-1.91,1.8-3.93,1.79-5.82,0q-24.18-23.28-48.35-46.57c-1.22-1.17-2.64-2.17-3.24-3.86Z" transform="translate(-243.96 -284.15)"/><path class="cls-2" d="M479.38,427.09c-2.56.37-5,.72-7.39,1a10.61,10.61,0,0,1-2.63.16,3.71,3.71,0,0,1-.14-7.31c3.81-.62,7.64-1.13,11.46-1.68.67-.1,1.33-.2,2-.26a3.69,3.69,0,0,1,4.19,3.75q0,6.56,0,13.09a3.74,3.74,0,1,1-7.47,0c0-2.52,0-5,0-7.56Z" transform="translate(-243.96 -284.15)"/><path class="cls-2" d="M473.74,438.38a8.5,8.5,0,0,1-1.26,2.15c-1.71,1.79-3.54,3.47-5.37,5.14a3.75,3.75,0,1,1-5.13-5.46c1.8-1.75,3.61-3.49,5.47-5.19a3.49,3.49,0,0,1,4-.65C473,435,473.67,436.21,473.74,438.38Z" transform="translate(-243.96 -284.15)"/><path class="cls-2" d="M457.6,453.51a11.43,11.43,0,0,1-1.42,2.49c-1.71,1.8-3.54,3.48-5.37,5.16a3.75,3.75,0,1,1-5.12-5.48q2.63-2.56,5.32-5.06a3.54,3.54,0,0,1,4.13-.71A4.26,4.26,0,0,1,457.6,453.51Z" transform="translate(-243.96 -284.15)"/><path class="cls-2" d="M563.55,434.71c.46-1.43.8-2.53,1.18-3.62q7.24-20.74,14.49-41.48a2,2,0,0,0-.41-2,8.88,8.88,0,0,1-.6-10.13,9.34,9.34,0,0,1,16.92,1.6,9.2,9.2,0,0,1-6.33,12c-.79.22-1.43.41-1.77,1.39-2.78,8.19-4.64,13.44-7.48,21.6-.06.18-1.11,3.27-1.25,3.78L615.56,399l.28.24-22.39,55.1h28.68c0,3.34,0,6.52,0,9.69,0,.24-.46.55-.77.67a2.6,2.6,0,0,1-1,0h-65c-1.57,0-1.57,0-1.57-1.63V454.3h1.53q13.92,0,27.84,0a1.48,1.48,0,0,0,1.67-1c4.83-12,9.72-24,14.58-36,.09-.21.17-.43.37-1Z" transform="translate(-243.96 -284.15)"/></g></svg>