<svg xmlns="http://www.w3.org/2000/svg" xmlns:xlink="http://www.w3.org/1999/xlink" viewBox="0 0 511.84 432.42"><defs><style>.cls-1{fill:url(#Безымянный_градиент_3);}.cls-2{fill:#fff;}</style><linearGradient id="Безымянный_градиент_3" x1="1.3" y1="1000.17" x2="2.53" y2="999.01" gradientTransform="matrix(331.51, 0, 0, -280.07, -135.51, 280455.09)" gradientUnits="userSpaceOnUse"><stop offset="0" stop-color="#ffde80"/><stop offset="1" stop-color="#f4ce54"/></linearGradient></defs><g id="Слой_1" data-name="Слой 1"><path id="Многоугольник_10-3-2" data-name="Многоугольник 10-3-2" class="cls-1" d="M627.84,284.15l128,216.21-128,216.21H371.92L244,500.36l128-216.21Z" transform="translate(-243.96 -284.15)"/></g><g id="Слой_2" data-name="Слой 2"><path class="cls-2" d="M589.91,418l-3.12-4.05c-.55.85-1.07,1.62-1.59,2.41-1.07-.53-2.09-1.06-3.13-1.54a1,1,0,0,0-.75,0,13.27,13.27,0,0,0-1.53.93.56.56,0,0,1-.78,0c-.66-.51-1.35-1-2-1.52-.82,1.21-1.57,2.36-2.36,3.48a.53.53,0,0,0,.07.81,3.27,3.27,0,0,1,1.25,2.58c0,.05,0,.1.07.15l1,.09,1.25.06c1,.06,1,.06,1.26,1,.14.47.27.95.41,1.43s.26.93.39,1.43c1-.43,1.91-.85,2.84-1.2a1.46,1.46,0,0,1,1,0c1.45.6,2.87,1.26,4.43,1.95-.39-1.81-.73-3.48-1.1-5.14a.82.82,0,0,1,.3-.93C588.47,419.3,589.18,418.64,589.91,418Z" transform="translate(-243.96 -284.15)"/><path class="cls-2" d="M624,384.7l-38.81-11.65a5,5,0,0,0-3,0l-38.8,11.65c-2,.61-2.76,1.56-2.76,3.69v43c0,6,2.19,11.28,5.61,16.09,4.36,6.11,10,11,16,15.3a122.46,122.46,0,0,0,20.55,11.95s.08.09.12.14h1.59c2.74-1.41,5.5-2.76,8.2-4.24a106.06,106.06,0,0,0,20.54-14.36c4.71-4.3,8.87-9.06,11.46-15a24.71,24.71,0,0,0,2.07-9.87q0-21.5,0-43C626.71,386.26,626,385.31,624,384.7ZM609.35,418c-.86.94-1.73,1.87-2.56,2.84a.77.77,0,0,1-1,.26q-2.58-1.12-5.19-2.14a5.2,5.2,0,0,0-1.37-.27c-2.91-.28-5.46,1.06-8.21,1.8.35,1.24.72,2.43,1,3.65a6.74,6.74,0,0,0,1.49,2.85c4,4.86,8,9.75,12,14.63a.61.61,0,0,1,.17.35c-.14-.11-.29-.21-.42-.33q-7-6.19-14-12.39a2.47,2.47,0,0,0-1-.51c-1.2-.28-2.41-.51-3.72-.79.35,1.7.69,3.31,1,5.05l3.15-3.47.1.05c-.07.13-.13.28-.21.41-.79,1.47-1.6,2.93-2.36,4.42a1.86,1.86,0,0,0-.16,1.06c1.11,5.82,2.25,11.63,3.38,17.45.06.29.11.58.17.87l-.09,0-8.8-26.26-4.44,1.22-.48-1.59c-1.8,4.61-3.56,9.09-5.32,13.57l-.13,0c.67-3.51,1.34-7,2-10.6l-5.64.24,0-.08,1.86-.57,3.66-1.08a.64.64,0,0,0,.55-.58c.22-1.3.48-2.58.75-3.95-1.4,0-2.68-.31-4,.36-4.53,2.23-9.13,4.32-13.7,6.46a1,1,0,0,1-.56.13l.57-.4q6.9-4.77,13.81-9.54a1.15,1.15,0,0,0,.56-.9c.21-1.52.46-3,.72-4.54a.55.55,0,0,0-.29-.67c-1.69-1.13-3.35-2.31-5.06-3.39a5.86,5.86,0,0,0-1.75-.54c-2.36-.53-4.74-1-7.11-1.54a.29.29,0,0,1-.2-.12c.12,0,.25,0,.38,0,2.81,0,5.62-.09,8.42-.1a3.3,3.3,0,0,1,1.31.3c2.34,1.11,4.66,2.24,7,3.37l.63.28c.05-.91.16-1.77.15-2.63a22.79,22.79,0,0,1,1.33-6.7c.28-.95.58-1.9.81-2.87a1.22,1.22,0,0,0-.14-.86c-1.29-1.94-2.62-3.85-3.93-5.77a1.57,1.57,0,0,1-.28-.58l.29.25c1.94,1.89,3.87,3.78,5.82,5.66a.92.92,0,0,1,.31.94c-.46,2.42-.94,4.84-1.27,7.28a14.91,14.91,0,0,0,.18,3c0,.45.1.9.16,1.49l1.16-1c.49.53,1,1,1.41,1.56a.51.51,0,0,0,.71.16c1-.52,2-1,3.05-1.5a2,2,0,0,0,.56-.43c1.56-1.59,3.13-3.18,4.66-4.8a1.65,1.65,0,0,0,.42-.87c.2-1.26.34-2.53.53-3.78a1.21,1.21,0,0,1,.32-.67c2.28-2.12,4.57-4.21,6.86-6.31,0,0,.06,0,.21-.11-.17.22-.26.35-.37.47-1.84,2.09-3.7,4.17-5.52,6.28a1.42,1.42,0,0,0-.28.9c.07,1.37.22,2.73.29,4.11a1.47,1.47,0,0,1-.25.86c-1.26,1.79-2.55,3.57-3.82,5.35-.13.17-.25.35-.43.61,1.33.86,2.61,1.74,3.94,2.53a3.31,3.31,0,0,0,1.28.2c.82.09,1.63.18,2.44.21a1,1,0,0,0,.69-.32c1.27-1.37,2.52-2.77,3.78-4.15a1.13,1.13,0,0,1,.54-.4c-.9,1.66-1.79,3.33-2.68,5,.07.05.1.1.13.1,1.19-.07,2,.66,3,1.23l3.95,2.45,3.86-3,.1.1C609.86,417.42,609.6,417.71,609.35,418Z" transform="translate(-243.96 -284.15)"/><path class="cls-2" d="M376.63,522.89c1.37-3.22,3.84-4.36,7.28-4.27,5.87.16,11.76,0,17.64.09a2.43,2.43,0,0,0,2.64-1.78c2.46-5.56,5-11.1,7.59-16.59,5-10.34,13.32-16.56,24.05-20.09a148.14,148.14,0,0,1,36.66-6.73,192,192,0,0,1,39.45,1.33A113.23,113.23,0,0,1,542,483c8,3.49,13.26,9.58,17.11,17.05,2.85,5.52,5.3,11.26,7.81,17a2.44,2.44,0,0,0,2.66,1.75c6.09-.1,12.19-.06,18.28,0,5,0,7.25,2.86,6.27,7.71-.9,4.44-1.78,8.88-2.72,13.32-.78,3.7-2.75,5.28-6.54,5.32-1.76,0-3.52,0-5.61,0,.51.73.82,1.25,1.19,1.71a38.33,38.33,0,0,1-2.55,50,5,5,0,0,0-1.23,3.11c-.12,6.1,0,12.2-.07,18.29,0,5.61-3.39,9-9,9q-9.15,0-18.29,0c-5.53,0-8.84-3.35-8.92-8.86,0-2.55,0-5.1,0-7.85H430.72c0,2.72,0,5.32,0,7.93-.09,5.4-3.41,8.73-8.8,8.77-6.09.05-12.19,0-18.28,0-5.78,0-9.12-3.35-9.14-9.1,0-6.31,0-12.61-.06-18.92a4,4,0,0,0-1-2.57c-13.19-12.79-14.52-35.52-2.88-50.14.26-.33.47-.69,1-1.4h-4.85c-4.36,0-6.15-1.52-7-5.74-.94-4.49-2-8.95-3-13.42ZM553,527.39c-3-7.88-5.86-15.38-10.1-22.28a16.83,16.83,0,0,0-6.71-6.3,72.8,72.8,0,0,0-20.76-6.56,173.88,173.88,0,0,0-48-1.64c-10.1,1-20.05,2.75-29.48,6.74-4.28,1.81-8.12,4.21-10.15,8.55-3.24,6.9-6.27,13.9-9.37,20.87-.07.15.07.39.12.62Zm10.88,44.33a16.41,16.41,0,1,0-16.46,16.47A16.5,16.5,0,0,0,563.86,571.72ZM424.5,588.13c9.28-.68,16.26-8.31,15.75-16.93-.58-9.65-8.27-16.16-16.88-15.82a16.07,16.07,0,0,0-15.9,16.94C408,581.83,415.71,588.77,424.5,588.13Z" transform="translate(-243.96 -284.15)"/><path class="cls-2" d="M373.05,423.77c1.17-2.38,2.62-3.31,4.6-2.75a5.42,5.42,0,0,1,2.14,1.29q23.43,22.51,46.83,45.08l.94.89,2-1.87c1.8-1.69,4.05-1.76,5.58-.16s1.39,3.86-.37,5.57c-1.43,1.38-2.87,2.74-4.32,4.11-1.9,1.8-3.92,1.79-5.81,0l-48.36-46.57c-1.21-1.17-2.63-2.17-3.23-3.86Z" transform="translate(-243.96 -284.15)"/><path class="cls-2" d="M474.56,427.09c-2.56.37-5,.72-7.39,1a10.61,10.61,0,0,1-2.63.16,3.71,3.71,0,0,1-.14-7.31c3.81-.62,7.64-1.13,11.46-1.68.67-.1,1.33-.2,2-.26a3.69,3.69,0,0,1,4.19,3.75q0,6.56,0,13.09a3.74,3.74,0,1,1-7.48,0c0-2.52,0-5,0-7.56Z" transform="translate(-243.96 -284.15)"/><path class="cls-2" d="M468.91,438.38a8.73,8.73,0,0,1-1.25,2.15c-1.71,1.79-3.54,3.47-5.37,5.14a3.75,3.75,0,1,1-5.14-5.46c1.81-1.75,3.62-3.49,5.47-5.19a3.49,3.49,0,0,1,4-.65C468.13,435,468.84,436.21,468.91,438.38Z" transform="translate(-243.96 -284.15)"/><path class="cls-2" d="M452.78,453.51a11.85,11.85,0,0,1-1.42,2.49c-1.71,1.8-3.54,3.48-5.37,5.16a3.75,3.75,0,1,1-5.12-5.48q2.63-2.56,5.32-5.06a3.54,3.54,0,0,1,4.13-.71A4.28,4.28,0,0,1,452.78,453.51Z" transform="translate(-243.96 -284.15)"/></g></svg>