<svg xmlns="http://www.w3.org/2000/svg" xmlns:xlink="http://www.w3.org/1999/xlink" viewBox="0 0 511.84 432.42"><defs><style>.cls-1{fill:url(#Безымянный_градиент_3);}.cls-2{fill:#fff;}</style><linearGradient id="Безымянный_градиент_3" x1="1.3" y1="1000.17" x2="2.53" y2="999.01" gradientTransform="matrix(331.51, 0, 0, -280.07, -135.51, 280455.09)" gradientUnits="userSpaceOnUse"><stop offset="0" stop-color="#ffde80"/><stop offset="1" stop-color="#f4ce54"/></linearGradient></defs><g id="Слой_1" data-name="Слой 1"><path id="Многоугольник_10-3-2" data-name="Многоугольник 10-3-2" class="cls-1" d="M627.84,284.15l128,216.21-128,216.21H371.92L244,500.36l128-216.21Z" transform="translate(-243.96 -284.15)"/></g><g id="Слой_2" data-name="Слой 2"><path class="cls-2" d="M375.23,524.52c1.37-3.22,3.83-4.36,7.27-4.27,5.88.16,11.77,0,17.65.08a2.41,2.41,0,0,0,2.63-1.77q3.69-8.35,7.6-16.59c4.95-10.34,13.31-16.57,24.05-20.09a148.53,148.53,0,0,1,36.66-6.74,192.61,192.61,0,0,1,39.44,1.34,113.23,113.23,0,0,1,30,8.11c8,3.48,13.27,9.58,17.12,17,2.85,5.53,5.3,11.26,7.81,17a2.42,2.42,0,0,0,2.65,1.75c6.1-.09,12.19-.05,18.29,0,5,0,7.25,2.85,6.27,7.71-.9,4.44-1.79,8.88-2.72,13.31-.78,3.71-2.75,5.29-6.54,5.33-1.76,0-3.52,0-5.61,0,.51.74.82,1.25,1.18,1.72a38.33,38.33,0,0,1-2.54,50,5,5,0,0,0-1.24,3.11c-.11,6.09,0,12.19-.06,18.29,0,5.61-3.4,9-9,9q-9.15.06-18.29,0c-5.53,0-8.85-3.35-8.93-8.86,0-2.54,0-5.09,0-7.84H429.32c0,2.71,0,5.32,0,7.93-.08,5.39-3.4,8.73-8.79,8.77-6.1.05-12.19,0-18.29,0-5.78,0-9.11-3.36-9.14-9.1,0-6.31,0-12.62,0-18.93a3.91,3.91,0,0,0-1-2.56c-13.19-12.79-14.51-35.53-2.87-50.15.26-.32.47-.68.95-1.39h-4.84c-4.37,0-6.16-1.52-7.05-5.75-.95-4.48-2-8.94-3-13.41ZM551.57,529c-3-7.88-5.85-15.37-10.1-22.27a16.69,16.69,0,0,0-6.71-6.3A72.42,72.42,0,0,0,514,493.88,173.13,173.13,0,0,0,466,492.24c-10.1,1-20,2.74-29.48,6.73-4.28,1.82-8.12,4.21-10.16,8.55-3.23,6.91-6.27,13.91-9.37,20.88-.06.14.08.38.13.61Zm10.88,44.34A16.41,16.41,0,1,0,546,589.82,16.5,16.5,0,0,0,562.45,573.35Zm-139.36,16.4c9.28-.68,16.27-8.3,15.75-16.92-.58-9.66-8.27-16.16-16.87-15.82A16.08,16.08,0,0,0,406.06,574C406.58,583.46,414.31,590.39,423.09,589.75Z" transform="translate(-243.96 -284.15)"/><path class="cls-2" d="M602.81,472.15H589.49a4.38,4.38,0,0,1-2.36-3c-.8-2.65-1.74-5.25-2.58-7.88-.2-.61-.43-.88-1.14-.87q-12.9,0-25.81,0c-.71,0-.94.26-1.14.87-.84,2.63-1.78,5.23-2.58,7.88a4.38,4.38,0,0,1-2.36,3H538.2c-1.69-.78-2.21-2.12-2.18-3.94.09-4.47.05-8.94,0-13.41a1.81,1.81,0,0,0-.54-1.22q-13.11-11.34-10.77-28.48a25.49,25.49,0,0,1,2.28-7.47c9.19,8.49,19.77,11.46,31.63,7.36S577,412.05,579,399.79c3.15,0,6.3,0,9.46,0a1.38,1.38,0,0,0,1.47-.73c2.89-4.77,7-8,12.57-8.75a86.32,86.32,0,0,1,11.61-.37,2.59,2.59,0,0,1,2.41,2c.42,1.29,0,2.42-1.32,3.48a21.45,21.45,0,0,0-7.63,11.65,1.68,1.68,0,0,0,.43,1.82c1.21,1.31,2.27,2.77,3.44,4.12a2.21,2.21,0,0,0,1.15.74c2.82.52,5.64,1,8.48,1.43a4,4,0,0,1,3.44,2.31v19.19a4.59,4.59,0,0,1-2.81,2.36c-2.25.85-4.47,1.76-6.68,2.73a2.47,2.47,0,0,0-1.2,1.1,30.5,30.5,0,0,1-8.29,10.62,1.48,1.48,0,0,0-.61,1.31c0,4.46-.05,8.92,0,13.39C605,470,604.49,471.37,602.81,472.15ZM602,419.24a2.94,2.94,0,1,0-2.86,3A3,3,0,0,0,602,419.24Z" transform="translate(-243.96 -284.15)"/><path class="cls-2" d="M548.76,371.9a24.48,24.48,0,1,1-24.45,24.49A24.52,24.52,0,0,1,548.76,371.9Zm-2.12,37.3s0,.22,0,.44c0,1.51.8,2.41,2,2.4s1.93-.89,1.9-2.44a1,1,0,0,1,.82-1.19,7.79,7.79,0,0,0,4.85-9.24,7.06,7.06,0,0,0-4.74-4.82c-.33-.12-.85-.39-.86-.61-.07-2,0-3.94,0-6.11.51.36.82.57,1.13.8a1.93,1.93,0,0,0,2.73-.14,1.86,1.86,0,0,0-.19-2.78,12.31,12.31,0,0,0-2.85-1.61c-.56-.23-.85-.38-.85-1a1.94,1.94,0,1,0-3.86,0c0,.84-.31,1.14-1,1.45a6.27,6.27,0,0,0-3.91,5.32,5.55,5.55,0,0,0,2.39,5.63c.83.58,2,1,2.42,1.76s.1,2.11.11,3.18v4.93c-.94-.45-1.67-.76-2.37-1.15-1.19-.66-2.31-.5-2.93.45a2,2,0,0,0,.9,2.88C543.63,408,545.09,408.53,546.64,409.2Z" transform="translate(-243.96 -284.15)"/><path class="cls-2" d="M550.64,404.39v-6.1a2.74,2.74,0,0,1,1.89,2.32A3.75,3.75,0,0,1,550.64,404.39Z" transform="translate(-243.96 -284.15)"/><path class="cls-2" d="M546.61,388.23V392C545.29,391.51,545.21,389.83,546.61,388.23Z" transform="translate(-243.96 -284.15)"/></g></svg>