<svg xmlns="http://www.w3.org/2000/svg" xmlns:xlink="http://www.w3.org/1999/xlink" viewBox="0 0 511.84 432.42"><defs><style>.cls-1{fill:url(#Безымянный_градиент_3);}.cls-2{fill:#fff;}</style><linearGradient id="Безымянный_градиент_3" x1="1.3" y1="1000.17" x2="2.53" y2="999.01" gradientTransform="matrix(331.51, 0, 0, -280.07, -135.51, 280455.09)" gradientUnits="userSpaceOnUse"><stop offset="0" stop-color="#ffde80"/><stop offset="1" stop-color="#f4ce54"/></linearGradient></defs><g id="Слой_1" data-name="Слой 1"><path id="Многоугольник_10-3-2" data-name="Многоугольник 10-3-2" class="cls-1" d="M627.84,284.15l128,216.21-128,216.21H371.92L244,500.36l128-216.21Z" transform="translate(-243.96 -284.15)"/></g><g id="Слой_2" data-name="Слой 2"><path class="cls-2" d="M379.67,522.89c1.38-3.22,3.84-4.36,7.28-4.27,5.88.16,11.77,0,17.65.09a2.42,2.42,0,0,0,2.63-1.78c2.46-5.56,5-11.1,7.6-16.59,4.95-10.34,13.31-16.56,24.05-20.09a148.05,148.05,0,0,1,36.66-6.73A191.93,191.93,0,0,1,515,474.85,113.23,113.23,0,0,1,545,483c8,3.49,13.27,9.58,17.12,17.05,2.85,5.52,5.29,11.26,7.81,17a2.43,2.43,0,0,0,2.65,1.75c6.1-.1,12.19-.06,18.29,0,5,0,7.25,2.86,6.26,7.71-.89,4.44-1.78,8.88-2.71,13.32-.78,3.7-2.75,5.28-6.54,5.32-1.76,0-3.52,0-5.61,0,.5.73.81,1.25,1.18,1.71a38.32,38.32,0,0,1-2.55,50,5,5,0,0,0-1.23,3.11c-.12,6.1,0,12.2-.06,18.29,0,5.61-3.4,9-9,9q-9.15,0-18.29,0c-5.53,0-8.85-3.35-8.93-8.86,0-2.55,0-5.1,0-7.85H433.77c0,2.72,0,5.32,0,7.93-.08,5.4-3.4,8.73-8.79,8.77-6.1.05-12.19,0-18.29,0-5.78,0-9.11-3.35-9.14-9.1,0-6.31,0-12.61-.05-18.92a4,4,0,0,0-1-2.57c-13.19-12.79-14.52-35.52-2.87-50.14.26-.33.47-.69,1-1.4H389.7c-4.37,0-6.16-1.52-7.05-5.74-.95-4.49-2-8.95-3-13.42ZM556,527.39c-2.95-7.88-5.85-15.38-10.1-22.28a16.76,16.76,0,0,0-6.71-6.3,72.7,72.7,0,0,0-20.76-6.56,173.87,173.87,0,0,0-48.05-1.64c-10.09,1-20,2.75-29.47,6.74-4.28,1.81-8.12,4.21-10.16,8.55-3.24,6.9-6.27,13.9-9.37,20.87-.06.15.08.39.13.62Zm10.88,44.33a16.41,16.41,0,1,0-16.46,16.47A16.49,16.49,0,0,0,566.9,571.72ZM427.54,588.13c9.28-.68,16.27-8.31,15.75-16.93-.58-9.65-8.27-16.16-16.87-15.82a16.08,16.08,0,0,0-15.91,16.94C411,581.83,418.76,588.77,427.54,588.13Z" transform="translate(-243.96 -284.15)"/><path class="cls-2" d="M620.33,431.88a12.05,12.05,0,0,1-3.11,5.58Q600,454.58,582.89,471.75a11.07,11.07,0,0,1-2,1.64c-3.8,2.42-8.49,1.79-11.86-1.59q-16.86-16.86-33.72-33.74a4.06,4.06,0,0,0-1.43-.93c-2.79-1-5.61-1.86-8.41-2.79l-7.78-2.59q26.92-27,53.95-54l5.25,5.3c.09-.35.17-.68.25-1a12.38,12.38,0,0,1,24.36,3.21c0,7.05,0,14.11,0,21.16a3.13,3.13,0,0,0,1.06,2.5c4.5,4.45,8.93,9,13.46,13.41,2,1.95,3.77,4,4.31,6.85Zm-43.47-48.62v42.22a3,3,0,0,0,3,3h0a3,3,0,0,0,3-3V389.63l12.1,12,.28-.17a10.83,10.83,0,0,0-.1-1.69l.11-10.93S596,379,589.16,379a6.22,6.22,0,0,0-6.22,6.54c0,1.15,0,2.3,0,3.45l-.32.13Z" transform="translate(-243.96 -284.15)"/><path class="cls-2" d="M523.8,438.06c-.1.16-.23.31-.32.48-2.56,4.43-5.17,8.84-7.67,13.3a9.22,9.22,0,0,0,5.57,13.53,8.77,8.77,0,0,0,9.57-3,8.5,8.5,0,0,0,1.26-9.92c-2.54-4.86-5.43-9.54-8.18-14.3C524,438.14,523.92,438.13,523.8,438.06Z" transform="translate(-243.96 -284.15)"/></g></svg>