<svg xmlns="http://www.w3.org/2000/svg" xmlns:xlink="http://www.w3.org/1999/xlink" viewBox="0 0 511.84 432.42"><defs><style>.cls-1{fill:url(#Безымянный_градиент_3);}.cls-2{fill:#fff;}</style><linearGradient id="Безымянный_градиент_3" x1="1.3" y1="1000.17" x2="2.53" y2="999.01" gradientTransform="matrix(331.51, 0, 0, -280.07, -135.51, 280455.09)" gradientUnits="userSpaceOnUse"><stop offset="0" stop-color="#ffde80"/><stop offset="1" stop-color="#f4ce54"/></linearGradient></defs><g id="Слой_1" data-name="Слой 1"><path id="Многоугольник_10-3-2" data-name="Многоугольник 10-3-2" class="cls-1" d="M627.84,284.15l128,216.21-128,216.21H371.92L244,500.36l128-216.21Z" transform="translate(-243.96 -284.15)"/></g><g id="Слой_2" data-name="Слой 2"><path class="cls-2" d="M589.25,373.17a10.44,10.44,0,0,1,3.8,3.81c7.79,11.62,15.61,23.22,22.62,35.35a147.85,147.85,0,0,1,10.56,21.74c3.6,9.52,2.76,18.78-1.31,27.88a40.09,40.09,0,0,1-39.35,23.42,40.16,40.16,0,0,1-36.23-30.57,33.9,33.9,0,0,1,1.14-20.55,141.7,141.7,0,0,1,10.32-21.38c7.23-12.54,15.26-24.57,23.37-36.56a8.62,8.62,0,0,1,3.55-3.14Zm33.14,74.63c.07-4.24-3.19-6.67-6.46-5.45-2.24.83-3,2.68-3.19,4.91a23,23,0,0,1-2.49,9,25.52,25.52,0,0,1-9.83,10.33,4.83,4.83,0,1,0,5.14,8.18,38.41,38.41,0,0,0,4.72-3.36A34.18,34.18,0,0,0,622.39,447.8Z" transform="translate(-243.96 -284.15)"/><path class="cls-2" d="M371.25,523.25c1.38-3.22,3.84-4.36,7.28-4.27,5.88.16,11.77,0,17.65.09a2.43,2.43,0,0,0,2.63-1.78c2.46-5.56,5-11.1,7.6-16.59,4.95-10.34,13.31-16.57,24-20.09a148.53,148.53,0,0,1,36.66-6.74,192.64,192.64,0,0,1,39.44,1.34,113.23,113.23,0,0,1,30,8.11c8,3.48,13.27,9.58,17.12,17,2.85,5.53,5.29,11.26,7.81,16.95a2.42,2.42,0,0,0,2.65,1.75c6.1-.09,12.19,0,18.29,0,4.95,0,7.25,2.85,6.26,7.71-.89,4.44-1.78,8.88-2.71,13.31-.78,3.71-2.75,5.29-6.54,5.33-1.76,0-3.52,0-5.61,0,.5.74.81,1.25,1.18,1.72a38.32,38.32,0,0,1-2.55,50,5,5,0,0,0-1.23,3.11c-.12,6.1,0,12.19-.06,18.29,0,5.61-3.4,9-9,9q-9.15.06-18.29,0c-5.53,0-8.85-3.35-8.93-8.86,0-2.54,0-5.09,0-7.84H425.35c0,2.71,0,5.32,0,7.93-.08,5.39-3.4,8.73-8.79,8.77-6.1,0-12.19,0-18.29,0-5.78,0-9.11-3.36-9.14-9.1,0-6.31,0-12.62-.05-18.93a4,4,0,0,0-1-2.56c-13.19-12.79-14.52-35.52-2.87-50.15.26-.32.47-.68.95-1.39h-4.84c-4.37,0-6.16-1.52-7-5.75-1-4.48-2-8.94-3-13.41Zm176.35,4.49c-3-7.87-5.85-15.37-10.1-22.27a16.69,16.69,0,0,0-6.71-6.3A72.7,72.7,0,0,0,510,492.61,173.1,173.1,0,0,0,462,491c-10.09,1-20,2.75-29.47,6.74-4.28,1.81-8.12,4.2-10.16,8.55-3.24,6.9-6.27,13.9-9.37,20.87-.06.15.08.38.13.61Zm10.88,44.34A16.41,16.41,0,1,0,542,588.55,16.48,16.48,0,0,0,558.48,572.08Zm-139.36,16.4c9.28-.68,16.27-8.3,15.75-16.92-.58-9.66-8.27-16.16-16.87-15.82a16.08,16.08,0,0,0-15.91,16.94C402.61,582.19,410.34,589.13,419.12,588.48Z" transform="translate(-243.96 -284.15)"/><path class="cls-2" d="M371.25,424.13c1.17-2.38,2.63-3.32,4.61-2.75a5.38,5.38,0,0,1,2.13,1.29q23.44,22.51,46.84,45.07l.94.89,2-1.87c1.81-1.69,4.06-1.75,5.59-.16s1.39,3.86-.37,5.58c-1.43,1.38-2.87,2.74-4.32,4.11-1.9,1.8-3.93,1.79-5.82,0Q398.66,453,374.49,429.69c-1.21-1.17-2.63-2.18-3.24-3.86Z" transform="translate(-243.96 -284.15)"/><path class="cls-2" d="M472.77,427.45c-2.56.36-5,.72-7.39,1a10.64,10.64,0,0,1-2.63.16,3.71,3.71,0,0,1-.15-7.31c3.82-.62,7.64-1.13,11.47-1.68.66-.1,1.33-.21,2-.26a3.69,3.69,0,0,1,4.19,3.75q0,6.54,0,13.09a3.74,3.74,0,1,1-7.48,0c0-2.52,0-5,0-7.56Z" transform="translate(-243.96 -284.15)"/><path class="cls-2" d="M467.12,438.74a8.91,8.91,0,0,1-1.25,2.15c-1.71,1.79-3.55,3.46-5.37,5.14a3.75,3.75,0,1,1-5.14-5.46c1.8-1.75,3.62-3.49,5.47-5.19a3.49,3.49,0,0,1,4-.65C466.34,435.39,467.05,436.57,467.12,438.74Z" transform="translate(-243.96 -284.15)"/><path class="cls-2" d="M451,453.86a11.68,11.68,0,0,1-1.42,2.5c-1.71,1.79-3.54,3.48-5.37,5.15a3.71,3.71,0,0,1-5.35-.05,3.76,3.76,0,0,1,.22-5.42c1.76-1.71,3.53-3.4,5.33-5.06a3.54,3.54,0,0,1,4.13-.71A4.28,4.28,0,0,1,451,453.86Z" transform="translate(-243.96 -284.15)"/></g></svg>