<svg xmlns="http://www.w3.org/2000/svg" xmlns:xlink="http://www.w3.org/1999/xlink" viewBox="0 0 511.84 432.42"><defs><style>.cls-1{fill:url(#Безымянный_градиент_3);}.cls-2{fill:#fff;}</style><linearGradient id="Безымянный_градиент_3" x1="1.3" y1="1000.17" x2="2.53" y2="999.01" gradientTransform="matrix(331.51, 0, 0, -280.07, -135.51, 280455.09)" gradientUnits="userSpaceOnUse"><stop offset="0" stop-color="#ffde80"/><stop offset="1" stop-color="#f4ce54"/></linearGradient></defs><g id="Слой_1" data-name="Слой 1"><path id="Многоугольник_10-3-2" data-name="Многоугольник 10-3-2" class="cls-1" d="M627.84,284.15l128,216.21-128,216.21H371.92L244,500.36l128-216.21Z" transform="translate(-243.96 -284.15)"/></g><g id="Слой_2" data-name="Слой 2"><path class="cls-2" d="M371.55,522.89c1.38-3.22,3.84-4.36,7.28-4.27,5.88.16,11.76,0,17.65.09a2.42,2.42,0,0,0,2.63-1.78c2.46-5.56,5-11.1,7.6-16.59,5-10.34,13.31-16.56,24.05-20.09a148.06,148.06,0,0,1,36.65-6.73,192,192,0,0,1,39.45,1.33,113.23,113.23,0,0,1,30,8.11c8,3.49,13.27,9.58,17.11,17.05,2.86,5.52,5.3,11.26,7.82,17a2.43,2.43,0,0,0,2.65,1.75c6.09-.1,12.19-.06,18.29,0,5,0,7.25,2.86,6.26,7.71-.89,4.44-1.78,8.88-2.71,13.32-.79,3.7-2.75,5.28-6.55,5.32-1.75,0-3.51,0-5.6,0,.5.73.81,1.25,1.18,1.71a38.32,38.32,0,0,1-2.55,50,5,5,0,0,0-1.23,3.11c-.12,6.1,0,12.2-.07,18.29,0,5.61-3.39,9-9,9q-9.13,0-18.28,0c-5.53,0-8.85-3.35-8.93-8.86,0-2.55,0-5.1,0-7.85H425.65c0,2.72,0,5.32,0,7.93-.08,5.4-3.4,8.73-8.79,8.77-6.1.05-12.2,0-18.29,0-5.78,0-9.12-3.35-9.14-9.1,0-6.31,0-12.61-.05-18.92a4.06,4.06,0,0,0-1-2.57c-13.19-12.79-14.52-35.52-2.87-50.14.25-.33.47-.69.95-1.4h-4.84c-4.37,0-6.16-1.52-7.05-5.74-.95-4.49-2-8.95-3-13.42Zm176.35,4.5C545,519.51,542,512,537.8,505.11a16.83,16.83,0,0,0-6.71-6.3,72.7,72.7,0,0,0-20.76-6.56,173.88,173.88,0,0,0-48.05-1.64c-10.09,1-20,2.75-29.47,6.74-4.29,1.81-8.12,4.21-10.16,8.55-3.24,6.9-6.27,13.9-9.37,20.87-.07.15.07.39.13.62Zm10.88,44.33a16.41,16.41,0,1,0-16.46,16.47A16.5,16.5,0,0,0,558.78,571.72ZM419.42,588.13c9.28-.68,16.26-8.31,15.75-16.93-.58-9.65-8.27-16.16-16.87-15.82a16.08,16.08,0,0,0-15.91,16.94C402.91,581.83,410.64,588.77,419.42,588.13Z" transform="translate(-243.96 -284.15)"/><path class="cls-2" d="M516,379.73l.36-1.35c1.15-4.6,5.84-6.8,10.4-4.85a14.82,14.82,0,0,1,7.14,7,17.68,17.68,0,0,1,2.48,8.86c-.06,3.77-2.6,5.83-6.32,5.12a18.64,18.64,0,0,1-9.29-5.1c-2.3-2.18-4.15-4.63-4.58-7.9,0-.09-.12-.17-.19-.25Z" transform="translate(-243.96 -284.15)"/><path class="cls-2" d="M622.51,485.12a26.62,26.62,0,0,1-4.12-2.11,5.89,5.89,0,0,1-2.4-4.83,4.55,4.55,0,0,1,4.38-4.69,7.81,7.81,0,0,1,6.62,2.77,5.38,5.38,0,0,1-2.8,8.57c-.27.07-.53.19-.8.29Z" transform="translate(-243.96 -284.15)"/><path class="cls-2" d="M600.06,467.79a10.54,10.54,0,0,1-7.64-3.83c-2.34-2.57-4.7-5.13-7.78-6.87-4.61-2.61-8.95-2.2-12.73,1.53a43,43,0,0,0-4.52,5.75c-1.12,1.57-1.88,3.42-3.12,4.88-2.9,3.42-6.83,4.91-11.2,5.26a16.41,16.41,0,0,1-10.27-2.41c-3.73-2.33-5.6-5.82-6.55-10-1.3-5.58.76-10.24,3.93-14.62.89-1.25,1.81-2.49,2.58-3.81,1.84-3.1,1.44-5.71-1.43-7.91a53,53,0,0,0-5.7-3.45c-2-1.14-4-2.09-5.89-3.37a7.71,7.71,0,0,1-1.48-11.21c1.76-2.25,4.12-2.64,6.71-2,3.42.82,6.1,2.9,8.5,5.37a63.46,63.46,0,0,0,4.44,4.54,6.09,6.09,0,0,0,7.25.77A6.52,6.52,0,0,0,557,416c-1.31-1.57-2.78-3-3.4-5.06-1.17-3.88,2-8.27,6-8.22a18.14,18.14,0,0,1,4.55.93c1.44.4,2.79,1.1,4.24,1.42,2.77.61,4.94-.51,6.56-2.73,1.89-2.59,2.49-5.62,3-8.7a16.15,16.15,0,0,1,1.38-4.9c1.48-2.76,4.57-3.75,8.12-3,4.18.89,7.46,4.76,7.21,8.85a9.08,9.08,0,0,1-1.45,4.05c-1.37,2.16-3,4.12-4.55,6.18a14,14,0,0,0-3,6.46,5.57,5.57,0,0,0,5.68,6.27,9.85,9.85,0,0,0,6.5-3,12.56,12.56,0,0,1,3.08-2.4c2.95-1.35,6.48-.14,8.61,2.7a8.21,8.21,0,0,1-1.43,11.56c-.87.72-1.77,1.42-2.64,2.14a10.16,10.16,0,0,0-2.87,12.37,25.32,25.32,0,0,0,5,6.74,26.49,26.49,0,0,1,4.27,5.65c2.7,5.17.75,10.48-4.49,13.06A15.23,15.23,0,0,1,600.06,467.79Z" transform="translate(-243.96 -284.15)"/><path class="cls-2" d="M617.88,389.74c0,3.36-3.25,8.09-6.37,9.36-2.06.84-3.74,0-4-2.17a10.34,10.34,0,0,1,2.39-8.58c1.62-1.89,3.78-2.2,6.08-1.66C617.28,387,617.89,388.1,617.88,389.74Z" transform="translate(-243.96 -284.15)"/><path class="cls-2" d="M562.49,384c0,3.19-2.22,4.72-5.13,3.38-2.46-1.14-4.3-2.88-4.74-5.74a4.69,4.69,0,0,1,3.13-5c2.07-.79,3.68-.21,5,1.76A12.19,12.19,0,0,1,562.49,384Z" transform="translate(-243.96 -284.15)"/><path class="cls-2" d="M371.55,423.77c1.17-2.38,2.63-3.31,4.61-2.75a5.45,5.45,0,0,1,2.13,1.29q23.44,22.51,46.84,45.08l.94.89c.67-.64,1.33-1.25,2-1.87,1.8-1.69,4.06-1.76,5.59-.16s1.39,3.86-.37,5.57c-1.43,1.38-2.88,2.74-4.32,4.11-1.91,1.8-3.93,1.79-5.82,0Q399,452.62,374.79,429.33c-1.21-1.17-2.63-2.17-3.24-3.86Z" transform="translate(-243.96 -284.15)"/><path class="cls-2" d="M473.07,427.09c-2.56.37-5,.72-7.39,1a10.64,10.64,0,0,1-2.63.16,3.71,3.71,0,0,1-.15-7.31c3.81-.62,7.64-1.13,11.47-1.68.66-.1,1.33-.2,2-.26a3.69,3.69,0,0,1,4.19,3.75q0,6.56,0,13.09a3.74,3.74,0,1,1-7.48,0c0-2.52,0-5,0-7.56Z" transform="translate(-243.96 -284.15)"/><path class="cls-2" d="M467.42,438.38a8.73,8.73,0,0,1-1.25,2.15c-1.72,1.79-3.55,3.47-5.37,5.14a3.75,3.75,0,1,1-5.14-5.46c1.8-1.75,3.62-3.49,5.47-5.19a3.49,3.49,0,0,1,4-.65C466.63,435,467.35,436.21,467.42,438.38Z" transform="translate(-243.96 -284.15)"/><path class="cls-2" d="M451.28,453.51a11.4,11.4,0,0,1-1.41,2.49c-1.72,1.8-3.54,3.48-5.38,5.16a3.71,3.71,0,0,1-5.34-.06,3.76,3.76,0,0,1,.22-5.42q2.64-2.56,5.32-5.06a3.55,3.55,0,0,1,4.13-.71A4.24,4.24,0,0,1,451.28,453.51Z" transform="translate(-243.96 -284.15)"/></g></svg>