<svg xmlns="http://www.w3.org/2000/svg" xmlns:xlink="http://www.w3.org/1999/xlink" viewBox="0 0 511.84 432.42"><defs><style>.cls-1{fill:url(#Безымянный_градиент_3);}.cls-2{fill:#fff;}</style><linearGradient id="Безымянный_градиент_3" x1="1.3" y1="1000.17" x2="2.53" y2="999.01" gradientTransform="matrix(331.51, 0, 0, -280.07, -135.51, 280455.09)" gradientUnits="userSpaceOnUse"><stop offset="0" stop-color="#ffde80"/><stop offset="1" stop-color="#f4ce54"/></linearGradient></defs><g id="Слой_1" data-name="Слой 1"><path id="Многоугольник_10-3-2" data-name="Многоугольник 10-3-2" class="cls-1" d="M627.84,284.15l128,216.21-128,216.21H371.92L244,500.36l128-216.21Z" transform="translate(-243.96 -284.15)"/></g><g id="Слой_2" data-name="Слой 2"><path class="cls-2" d="M378.15,523.64c1.37-3.21,3.84-4.35,7.27-4.26,5.88.15,11.77,0,17.65.08a2.42,2.42,0,0,0,2.64-1.78q3.68-8.34,7.59-16.58c4.95-10.34,13.32-16.57,24.05-20.1A149.06,149.06,0,0,1,474,474.27a192,192,0,0,1,39.45,1.34,112.58,112.58,0,0,1,30,8.11c8,3.48,13.26,9.58,17.11,17,2.85,5.52,5.3,11.26,7.81,17a2.43,2.43,0,0,0,2.66,1.75c6.09-.09,12.19-.06,18.28,0,5,0,7.25,2.86,6.27,7.71-.9,4.44-1.78,8.89-2.72,13.32-.78,3.71-2.75,5.29-6.54,5.33h-5.61c.51.73.82,1.25,1.19,1.71a38.35,38.35,0,0,1-2.55,50,5,5,0,0,0-1.24,3.11c-.11,6.09,0,12.19-.06,18.28,0,5.62-3.39,9-9,9q-9.15.06-18.29,0c-5.53,0-8.85-3.35-8.92-8.86,0-2.55,0-5.1,0-7.85H432.24c0,2.72,0,5.33,0,7.94-.09,5.39-3.41,8.73-8.8,8.77q-9.13.06-18.29,0c-5.77,0-9.11-3.35-9.13-9.09,0-6.31,0-12.62-.06-18.93a4,4,0,0,0-1-2.56c-13.2-12.79-14.52-35.53-2.88-50.15.26-.32.47-.68.95-1.39h-4.84c-4.37,0-6.15-1.52-7.05-5.75-.95-4.48-2-8.95-3-13.42Zm176.34,4.5c-3-7.88-5.85-15.37-10.09-22.27a16.76,16.76,0,0,0-6.71-6.3A72.18,72.18,0,0,0,516.93,493a173.5,173.5,0,0,0-48-1.65c-10.1,1-20.05,2.75-29.48,6.74-4.28,1.81-8.12,4.21-10.15,8.55-3.24,6.91-6.27,13.91-9.37,20.87-.07.15.07.39.12.62Zm10.89,44.33a16.41,16.41,0,1,0-16.46,16.47A16.51,16.51,0,0,0,565.38,572.47ZM426,588.88c9.27-.68,16.26-8.31,15.74-16.93-.57-9.65-8.26-16.15-16.87-15.81A16.07,16.07,0,0,0,409,573.08C409.5,582.59,417.23,589.52,426,588.88Z" transform="translate(-243.96 -284.15)"/><path class="cls-2" d="M541.19,372.06a3.72,3.72,0,0,1,2.34,3.72c.23,6.52,3.22,11.7,8,16a6.28,6.28,0,0,1,1.39,1.57c.7,1.3.28,2.71-1,3.84a24.17,24.17,0,0,0-7,9.42,23,23,0,0,0-1.49,7.69,3,3,0,0,1-5.46,1.53,4.08,4.08,0,0,1-.57-1.89c-.16-6.85-3.23-12.25-8.29-16.65-2-1.73-2-3.6,0-5.35a22.44,22.44,0,0,0,8.08-14.26,9.9,9.9,0,0,0,.13-1.81,3.51,3.51,0,0,1,2.41-3.77Z" transform="translate(-243.96 -284.15)"/><path class="cls-2" d="M621.61,449.84a3.4,3.4,0,0,1-1.59,2.7,30.66,30.66,0,0,0-7.24,7.27,22.12,22.12,0,0,0-4.17,12.35c-.05,2.53-2,4-4.14,3.22a3,3,0,0,1-2-3A22.62,22.62,0,0,0,597.73,459a32.68,32.68,0,0,0-6.8-6.59c-1.26-.94-1.78-2.14-1.28-3.42a4.69,4.69,0,0,1,1.45-1.86,33.93,33.93,0,0,0,6.81-6.73,23,23,0,0,0,4.63-13.32,3,3,0,0,1,4.45-2.65,2.87,2.87,0,0,1,1.59,2.54c.17,8.78,4.73,15.06,11.44,20.12A3.41,3.41,0,0,1,621.61,449.84Z" transform="translate(-243.96 -284.15)"/><path class="cls-2" d="M560.21,433.47C557.94,433,557,432,557,430.29s1-2.66,3.25-3.1c0-1,0-2.11,0-3.17a3,3,0,0,1,3-3.22,3.08,3.08,0,0,1,3,3.22c0,1,0,2.08,0,3.1,2.35.7,3.36,1.77,3.24,3.4s-1.22,2.59-3.24,2.9v2.88c0,2.15-1.18,3.52-3,3.53s-3-1.32-3-3.47Z" transform="translate(-243.96 -284.15)"/><path class="cls-2" d="M592.74,391.39c0-1,0-2,0-3a3,3,0,1,1,6.07,0c0,1,0,2.07,0,3.14.38.08.68.13,1,.21a3,3,0,0,1,2.28,3,2.92,2.92,0,0,1-2.38,2.87c-.78.12-.92.44-.88,1.12a22.9,22.9,0,0,1,0,2.62,3,3,0,0,1-6,.07c-.08-1,0-2-.06-2.93a1,1,0,0,0-.5-.78c-1.85-.57-2.79-1.6-2.73-3.12s1-2.51,2.93-3A2.09,2.09,0,0,0,592.74,391.39Z" transform="translate(-243.96 -284.15)"/><path class="cls-2" d="M587.41,436.81a3,3,0,0,1-3,3,3,3,0,0,1-3.06-3,3.12,3.12,0,0,1,3-3.05A3.05,3.05,0,0,1,587.41,436.81Z" transform="translate(-243.96 -284.15)"/><path class="cls-2" d="M569.74,387.85a3,3,0,0,1-3-3,3,3,0,1,1,6.07,0A3,3,0,0,1,569.74,387.85Z" transform="translate(-243.96 -284.15)"/><path class="cls-2" d="M579.54,404.58a3,3,0,0,1,3,3,3.06,3.06,0,0,1-3.06,3,3.1,3.1,0,0,1-3-3.07A3,3,0,0,1,579.54,404.58Z" transform="translate(-243.96 -284.15)"/><path class="cls-2" d="M527.38,417.56a3,3,0,0,1,3.07,3,3,3,0,1,1-3.07-3Z" transform="translate(-243.96 -284.15)"/><path class="cls-2" d="M569.81,459.8a3,3,0,0,1,3,3.06,3,3,0,1,1-6.07-.13A3,3,0,0,1,569.81,459.8Z" transform="translate(-243.96 -284.15)"/><path class="cls-2" d="M612.1,404.58a3,3,0,0,1,3,3,3.14,3.14,0,0,1-3.09,3,3.07,3.07,0,0,1-3-3.08A3,3,0,0,1,612.1,404.58Z" transform="translate(-243.96 -284.15)"/><path class="cls-2" d="M545.37,440.28a3,3,0,0,1,3,3.08,3,3,0,0,1-3.05,3,3,3,0,0,1-3-3.05A3.09,3.09,0,0,1,545.37,440.28Z" transform="translate(-243.96 -284.15)"/></g></svg>