<svg xmlns="http://www.w3.org/2000/svg" xmlns:xlink="http://www.w3.org/1999/xlink" viewBox="0 0 511.84 432.42"><defs><style>.cls-1{fill:url(#Безымянный_градиент_3);}.cls-2{fill:#fff;}</style><linearGradient id="Безымянный_градиент_3" x1="1.3" y1="1000.17" x2="2.53" y2="999.01" gradientTransform="matrix(331.51, 0, 0, -280.07, -135.51, 280455.09)" gradientUnits="userSpaceOnUse"><stop offset="0" stop-color="#ffde80"/><stop offset="1" stop-color="#f4ce54"/></linearGradient></defs><g id="Слой_1" data-name="Слой 1"><path id="Многоугольник_10-3-2" data-name="Многоугольник 10-3-2" class="cls-1" d="M627.84,284.15l128,216.21-128,216.21H371.92L244,500.36l128-216.21Z" transform="translate(-243.96 -284.15)"/></g><g id="Слой_2" data-name="Слой 2"><path class="cls-2" d="M372.67,524.16c1.37-3.22,3.83-4.36,7.27-4.27,5.88.16,11.77,0,17.65.09a2.42,2.42,0,0,0,2.63-1.78q3.69-8.34,7.6-16.59c4.95-10.34,13.31-16.57,24.05-20.09a148.05,148.05,0,0,1,36.66-6.73A191.9,191.9,0,0,1,508,476.12a113.23,113.23,0,0,1,30,8.11c8,3.49,13.27,9.58,17.12,17,2.85,5.52,5.3,11.25,7.81,17a2.42,2.42,0,0,0,2.65,1.74c6.1-.09,12.19-.05,18.29,0,5,0,7.25,2.85,6.27,7.71-.9,4.44-1.79,8.88-2.72,13.31-.78,3.71-2.75,5.29-6.54,5.33-1.76,0-3.52,0-5.61,0,.51.73.82,1.24,1.19,1.71a38.34,38.34,0,0,1-2.55,50,5,5,0,0,0-1.24,3.11c-.11,6.1,0,12.19-.06,18.29,0,5.61-3.4,9-9,9q-9.15,0-18.29,0c-5.53,0-8.85-3.35-8.92-8.86,0-2.55,0-5.1,0-7.85H426.76c0,2.71,0,5.32,0,7.93-.08,5.39-3.4,8.73-8.79,8.77-6.1.05-12.19,0-18.29,0-5.78,0-9.11-3.35-9.14-9.1,0-6.31,0-12.62,0-18.92a3.94,3.94,0,0,0-1-2.57c-13.19-12.79-14.51-35.52-2.87-50.15.26-.32.47-.68.95-1.39h-4.84c-4.37,0-6.16-1.52-7.05-5.75-.95-4.48-2-8.94-3-13.41ZM549,528.66c-3-7.88-5.85-15.38-10.1-22.28a16.69,16.69,0,0,0-6.71-6.3,72.64,72.64,0,0,0-20.75-6.56,173.9,173.9,0,0,0-48.05-1.64c-10.1,1-20,2.75-29.48,6.74-4.28,1.81-8.12,4.2-10.16,8.55-3.23,6.9-6.27,13.9-9.37,20.87-.06.15.08.39.13.62ZM559.89,573a16.41,16.41,0,1,0-16.46,16.47A16.49,16.49,0,0,0,559.89,573Zm-139.36,16.4c9.28-.67,16.27-8.3,15.75-16.92-.58-9.65-8.27-16.16-16.87-15.82a16.09,16.09,0,0,0-15.91,16.94C404,583.1,411.75,590,420.53,589.39Z" transform="translate(-243.96 -284.15)"/><path class="cls-2" d="M609.7,427.39c0-.85-.59-1.46-1.79-1.46H605.8v2.89h2.1C609.07,428.82,609.7,428.47,609.7,427.39Z" transform="translate(-243.96 -284.15)"/><path class="cls-2" d="M583.2,427.49c0,1.07.59,1.52,1.75,1.52h2.8v-3H585A1.63,1.63,0,0,0,583.2,427.49Z" transform="translate(-243.96 -284.15)"/><path class="cls-2" d="M608.4,429.66h-2.6v3.1h2.63c1.08,0,1.81-.41,1.81-1.47A1.68,1.68,0,0,0,608.4,429.66Z" transform="translate(-243.96 -284.15)"/><path class="cls-2" d="M624.32,383.25l-38.5-11.54c-.12,0-.23-.11-.35-.16H584.3l-15.5,4.69-23.45,7c-2,.58-2.67,1.53-2.67,3.54q0,21.17,0,42.32c0,5.86,2.17,11,5.51,15.67,4.23,5.94,9.67,10.64,15.52,14.88a126.9,126.9,0,0,0,19.41,11.44,3.77,3.77,0,0,0,3.53,0A113.47,113.47,0,0,0,614,453.3c4.58-4.17,8.59-8.81,11.1-14.58a24.09,24.09,0,0,0,2-9.68q0-21.06,0-42.12C627.09,384.78,626.4,383.88,624.32,383.25Zm-40.1,31.63H589V404.16l-4.5,2.77,0-4.14,4.48-3.24h3.83v15.33h3.73v3.84H584.22Zm-10.35-8.18H583v3.56h-9.17Zm-8.22-7.52c6.05,0,6.4,5.23,6.4,5.23h-4c-.19-.64-.62-1.49-2.38-1.45s-3.15,1.94-3.31,5c3-3.68,10.21-1.41,10.21,4.52,0,6.09-4.47,6.6-6.4,6.6-3.12,0-7.53-.44-7.53-9.22C558.68,404,560.33,399.18,565.65,399.18Zm1.43,34.41h-.87v-7.51l-2.94,7.51h-.78l-2.94-7.51v7.51h-.87v-8.5h1.38l2.82,7.28,2.8-7.28h1.4Zm6.85,0h-5.71v-8.5h5.71v.83h-4.85v2.7h4.08v.82h-4.08v3.33h4.85Zm3.91.17c-2.43,0-4-1.74-4-4.42A4.61,4.61,0,0,1,575,426a3.9,3.9,0,0,1,2.81-1.12A3.75,3.75,0,0,1,581.7,428h-.89a2.9,2.9,0,0,0-3-2.2c-1.54,0-3.14,1-3.14,3.56s1.6,3.56,3.14,3.56a2.88,2.88,0,0,0,3-2.41h.88A3.76,3.76,0,0,1,577.84,433.76Zm10.79-.17h-.88v-3.71h-2.53l-2.05,3.71h-1l2.07-3.71a2.23,2.23,0,0,1-1.88-2.39,2.57,2.57,0,0,1,2.78-2.4h3.51Zm9.31,1.7h-.86v-1.7h-7.31v-8.5h.87v7.68h5v-7.68h.86v7.68h1.42Zm6.31-9.37H599.4v2.7h4.08v.82H599.4v3.33h4.85v.83h-5.71v-8.5h5.71Zm4,7.67h-3.33v-8.5h3.22a2.36,2.36,0,0,1,2.41,2.39,1.79,1.79,0,0,1-1.08,1.72,1.91,1.91,0,0,1,1.6,2.15C611.09,432.7,610.24,433.59,608.27,433.59Zm2.82-14.87H598.2c0-2.55,0-1.64,0-3.84,0-4.22,3.17-6.09,6.24-6.78,2.26-.51,2.53-1.79,2.53-3.13a2.18,2.18,0,0,0-2.2-2.18c-1.83,0-2.87,1.08-2.87,2.53v.36h-4.2v-.36c0-3.62,2.24-6.14,6.66-6.14,4.78,0,6.5,2.41,6.5,6.14,0,3.57-2.39,5.31-5.41,6-2.36.56-3.47,1.4-3.47,3.54h9.13Z" transform="translate(-243.96 -284.15)"/><path class="cls-2" d="M566.16,415.65a3.19,3.19,0,0,0,0-6.36,3.19,3.19,0,0,0,0,6.36Z" transform="translate(-243.96 -284.15)"/></g></svg>