<svg xmlns="http://www.w3.org/2000/svg" xmlns:xlink="http://www.w3.org/1999/xlink" viewBox="0 0 511.84 432.42"><defs><style>.cls-1{fill:url(#Безымянный_градиент_3);}.cls-2{fill:#fff;}</style><linearGradient id="Безымянный_градиент_3" x1="1.3" y1="1000.17" x2="2.53" y2="999.01" gradientTransform="matrix(331.51, 0, 0, -280.07, -135.51, 280455.09)" gradientUnits="userSpaceOnUse"><stop offset="0" stop-color="#ffde80"/><stop offset="1" stop-color="#f4ce54"/></linearGradient></defs><g id="Слой_1" data-name="Слой 1"><path id="Многоугольник_10-3-2" data-name="Многоугольник 10-3-2" class="cls-1" d="M627.84,284.15l128,216.21-128,216.21H371.92L244,500.36l128-216.21Z" transform="translate(-243.96 -284.15)"/></g><g id="Слой_2" data-name="Слой 2"><path class="cls-2" d="M623.93,383.22q-19.06-5.72-38.12-11.45a5,5,0,0,0-3,0q-19.05,5.75-38.12,11.45c-2,.6-2.71,1.54-2.71,3.63v42.22c0,5.91,2.14,11.09,5.51,15.81,4.28,6,9.78,10.76,15.71,15a120.34,120.34,0,0,0,20.19,11.74c.05,0,.08.1.12.15h1.57c2.68-1.39,5.4-2.71,8-4.17a104.28,104.28,0,0,0,20.18-14.11c4.63-4.23,8.72-8.9,11.26-14.75a24.39,24.39,0,0,0,2-9.7V386.85C626.64,384.76,625.93,383.82,623.93,383.22Zm-54.55,58.14a10,10,0,0,1-9.94-9.91,9.26,9.26,0,0,1,1.08-4,37.64,37.64,0,0,1,5.24-7.74c.78-.93,1.59-1.83,2.41-2.72a1.59,1.59,0,0,1,2.39,0A45.62,45.62,0,0,1,578,427a9.7,9.7,0,0,1,1.34,4.57A10,10,0,0,1,569.38,441.36Zm14.93-19.88a11.66,11.66,0,0,1-11.59-11.59,12,12,0,0,1,1.54-5.32,51.28,51.28,0,0,1,6.31-9.46c.8-1,1.64-2,2.49-2.91a1.59,1.59,0,0,1,2.47-.06,55.31,55.31,0,0,1,9.17,13.11,10.93,10.93,0,0,1,1.23,5,11.64,11.64,0,0,1-10.22,11.08Zm14.92,19.88a10,10,0,0,1-9.93-9.93,9.31,9.31,0,0,1,1.09-4,37.51,37.51,0,0,1,5.21-7.7c.78-.94,1.6-1.85,2.44-2.75a1.58,1.58,0,0,1,2.39,0,45.68,45.68,0,0,1,7.46,10,9.69,9.69,0,0,1,1.32,4.58A10,10,0,0,1,599.23,441.36Z" transform="translate(-243.96 -284.15)"/><path class="cls-2" d="M377.33,524.16c1.37-3.22,3.84-4.36,7.28-4.27,5.87.16,11.76,0,17.64.09a2.43,2.43,0,0,0,2.64-1.78c2.46-5.56,5-11.1,7.59-16.59,4.95-10.34,13.32-16.57,24-20.09a148.14,148.14,0,0,1,36.66-6.73,192,192,0,0,1,39.45,1.33,113.23,113.23,0,0,1,30,8.11c8,3.49,13.26,9.58,17.11,17,2.85,5.52,5.3,11.25,7.81,17a2.43,2.43,0,0,0,2.66,1.74c6.09-.09,12.19-.05,18.28,0,5,0,7.25,2.85,6.27,7.71-.9,4.44-1.78,8.88-2.72,13.31-.78,3.71-2.74,5.29-6.54,5.33-1.76,0-3.52,0-5.6,0,.5.73.81,1.24,1.18,1.71a38.32,38.32,0,0,1-2.55,50,5,5,0,0,0-1.23,3.11c-.12,6.1,0,12.19-.07,18.29,0,5.61-3.39,9-9,9q-9.13,0-18.29,0c-5.52,0-8.84-3.35-8.92-8.86,0-2.55,0-5.1,0-7.85H431.43c0,2.71,0,5.32,0,7.93-.09,5.39-3.41,8.73-8.8,8.77-6.09.05-12.19,0-18.28,0-5.78,0-9.12-3.35-9.14-9.1,0-6.31,0-12.62-.06-18.92a4,4,0,0,0-1-2.57c-13.19-12.79-14.52-35.52-2.87-50.15.25-.32.46-.68.95-1.39h-4.85c-4.36,0-6.15-1.52-7.05-5.75-.94-4.48-2-8.94-3-13.41Zm176.35,4.5c-2.95-7.88-5.86-15.38-10.1-22.28a16.76,16.76,0,0,0-6.71-6.3,72.8,72.8,0,0,0-20.76-6.56,173.88,173.88,0,0,0-48.05-1.64c-10.1,1-20,2.75-29.48,6.74-4.28,1.81-8.11,4.2-10.15,8.55-3.24,6.9-6.27,13.9-9.37,20.87-.07.15.07.39.12.62ZM564.56,573a16.41,16.41,0,1,0-16.46,16.47A16.5,16.5,0,0,0,564.56,573ZM425.2,589.39c9.28-.67,16.26-8.3,15.75-16.92-.58-9.65-8.27-16.16-16.88-15.82a16.08,16.08,0,0,0-15.9,16.94C408.69,583.1,416.42,590,425.2,589.39Z" transform="translate(-243.96 -284.15)"/><path class="cls-2" d="M373.36,425.13c1.17-2.38,2.63-3.31,4.61-2.75a5.45,5.45,0,0,1,2.13,1.29q23.44,22.51,46.84,45.08l.94.89c.67-.64,1.33-1.25,2-1.87,1.8-1.69,4.05-1.76,5.58-.16s1.4,3.86-.37,5.57c-1.42,1.38-2.87,2.74-4.31,4.11-1.91,1.8-3.93,1.79-5.82,0Q400.77,454,376.6,430.69c-1.22-1.17-2.64-2.17-3.24-3.86Z" transform="translate(-243.96 -284.15)"/><path class="cls-2" d="M474.87,428.45c-2.56.37-5,.72-7.39,1a10.61,10.61,0,0,1-2.63.16,3.71,3.71,0,0,1-.14-7.31c3.81-.62,7.64-1.13,11.46-1.68.67-.1,1.33-.2,2-.26a3.69,3.69,0,0,1,4.19,3.75q0,6.56,0,13.09a3.74,3.74,0,1,1-7.47,0c0-2.52,0-5,0-7.56Z" transform="translate(-243.96 -284.15)"/><path class="cls-2" d="M469.23,439.74a8.67,8.67,0,0,1-1.26,2.15c-1.71,1.79-3.54,3.47-5.37,5.14a3.75,3.75,0,1,1-5.13-5.46c1.8-1.75,3.61-3.49,5.47-5.19a3.49,3.49,0,0,1,4-.65C468.44,436.39,469.16,437.57,469.23,439.74Z" transform="translate(-243.96 -284.15)"/><path class="cls-2" d="M453.09,454.87a11.43,11.43,0,0,1-1.42,2.49c-1.71,1.8-3.54,3.48-5.37,5.16a3.75,3.75,0,1,1-5.12-5.48q2.63-2.57,5.32-5.06a3.54,3.54,0,0,1,4.13-.71A4.26,4.26,0,0,1,453.09,454.87Z" transform="translate(-243.96 -284.15)"/></g></svg>