<svg xmlns="http://www.w3.org/2000/svg" xmlns:xlink="http://www.w3.org/1999/xlink" viewBox="0 0 511.84 432.42"><defs><style>.cls-1{fill:url(#Безымянный_градиент_3);}.cls-2{fill:#fff;}</style><linearGradient id="Безымянный_градиент_3" x1="1.3" y1="1000.17" x2="2.53" y2="999.01" gradientTransform="matrix(331.51, 0, 0, -280.07, -135.51, 280455.09)" gradientUnits="userSpaceOnUse"><stop offset="0" stop-color="#ffde80"/><stop offset="1" stop-color="#f4ce54"/></linearGradient></defs><g id="Слой_1" data-name="Слой 1"><path id="Многоугольник_10-3-2" data-name="Многоугольник 10-3-2" class="cls-1" d="M627.84,284.15l128,216.21-128,216.21H371.92L244,500.36l128-216.21Z" transform="translate(-243.96 -284.15)"/></g><g id="Слой_2" data-name="Слой 2"><path class="cls-2" d="M374.84,524c1.37-3.21,3.83-4.36,7.27-4.27,5.88.16,11.77,0,17.65.09A2.43,2.43,0,0,0,402.4,518q3.68-8.34,7.59-16.59c4.95-10.34,13.32-16.56,24.05-20.09a148.14,148.14,0,0,1,36.66-6.73A192,192,0,0,1,510.15,476a113.33,113.33,0,0,1,30,8.11c8,3.49,13.26,9.59,17.11,17.05,2.85,5.52,5.3,11.26,7.81,16.95a2.42,2.42,0,0,0,2.65,1.75c6.1-.09,12.2-.06,18.29,0,5,0,7.25,2.86,6.27,7.71-.9,4.44-1.79,8.88-2.72,13.32-.78,3.71-2.75,5.29-6.54,5.32-1.76,0-3.52,0-5.61,0,.51.73.82,1.25,1.19,1.71a38.35,38.35,0,0,1-2.55,50,5,5,0,0,0-1.24,3.11c-.11,6.09,0,12.19-.06,18.28,0,5.61-3.39,9-9,9q-9.15,0-18.29,0c-5.53,0-8.85-3.35-8.92-8.86,0-2.55,0-5.1,0-7.85H428.93c0,2.72,0,5.33,0,7.93-.09,5.4-3.41,8.73-8.8,8.77-6.09,0-12.19,0-18.29,0-5.77,0-9.11-3.35-9.14-9.1,0-6.3,0-12.61-.05-18.92a4,4,0,0,0-1-2.57c-13.2-12.78-14.52-35.52-2.88-50.14.26-.33.47-.68.95-1.39h-4.84c-4.37,0-6.16-1.51-7.05-5.74-.95-4.48-2-8.95-3-13.42Zm176.34,4.5c-2.95-7.88-5.85-15.38-10.09-22.28a16.7,16.7,0,0,0-6.72-6.29,72.34,72.34,0,0,0-20.75-6.57,173.88,173.88,0,0,0-48.05-1.64c-10.1,1-20.05,2.75-29.48,6.74-4.28,1.81-8.12,4.21-10.15,8.55-3.24,6.9-6.27,13.91-9.38,20.87-.06.15.08.39.13.62Zm10.88,44.33a16.41,16.41,0,1,0-16.46,16.47A16.49,16.49,0,0,0,562.06,572.82ZM422.71,589.23c9.27-.68,16.26-8.31,15.74-16.93-.57-9.65-8.27-16.15-16.87-15.81a16.08,16.08,0,0,0-15.91,16.94C406.19,582.94,413.92,589.87,422.71,589.23Z" transform="translate(-243.96 -284.15)"/><path class="cls-2" d="M578.89,471.54c-1.2-.25-2.41-.45-3.6-.77a22.33,22.33,0,0,1-16.68-21.45c-.05-10.23,0-20.47,0-30.7,0-1.61.74-2.38,2.33-2.27a10.3,10.3,0,0,1,9.78,9.2c.2,2.52.18,5.08.62,7.56a22.47,22.47,0,0,0,7.8,13.45,8.65,8.65,0,0,0,14.2-6.41c0-3.44.08-6.89-.18-10.32-.23-3-1.88-5.43-4-7.62a6.51,6.51,0,0,0-5.47-2.24c-3.53.18-7.08.07-10.62,0a1.54,1.54,0,0,1-1.12-.49,13.68,13.68,0,0,0-9.3-6.18l-.66-.16a12.29,12.29,0,0,1,.61-1.89,5.67,5.67,0,0,1,5.14-3.46c6-.08,12-.16,18,0a17.56,17.56,0,0,1,12,5.35q6.56,6.46,13,13a6,6,0,0,1,1.48,2.58c3.6,14.22.3,26.66-9.86,37.22a17.85,17.85,0,0,1-10.91,5.32,2.81,2.81,0,0,0-.54.17Z" transform="translate(-243.96 -284.15)"/><path class="cls-2" d="M611.86,421.25c-.13-.21-.28-.42-.4-.64q-5.62-9.74-11.23-19.48a3,3,0,0,1-.42-1.45q0-10.76,0-21.53a6.12,6.12,0,1,1,12.23-.58c0,1.33,0,2.67,0,4v39.64Z" transform="translate(-243.96 -284.15)"/><path class="cls-2" d="M604.45,415.32c-1.27-1.28-2.56-2.56-3.83-3.85a21.82,21.82,0,0,0-15.52-6.87,1.38,1.38,0,0,1-1.35-.7c-3.41-5.75-6.88-11.46-10.29-17.21a6.11,6.11,0,1,1,10.5-6.25q8.09,13.44,16.11,26.89c1.55,2.59,3,5.23,4.52,7.84Z" transform="translate(-243.96 -284.15)"/><path class="cls-2" d="M615.54,428.49a10.14,10.14,0,0,1-.2-1.31c0-4.36-.09-8.71-.09-13.06,0-7.54,0-15.08,0-22.62a2.32,2.32,0,0,1,.76-1.8,5.27,5.27,0,0,1,6.23-.74,5,5,0,0,1,2.52,5.62q-4.07,15.33-8.17,30.65c-.29,1.09-.59,2.18-.88,3.27Z" transform="translate(-243.96 -284.15)"/></g></svg>