<svg xmlns="http://www.w3.org/2000/svg" width="34.154" height="35.398" viewBox="0 0 34.154 35.398">
  <g transform="translate(-1043.439 -347.848)">
    <path id="Path_580" data-name="Path 580" d="M1051.864,398.559a3.523,3.523,0,0,1-1.808-1,3.032,3.032,0,0,1-.818-2.066c0-.5,0-1.01,0-1.538h26.46a14.9,14.9,0,0,1-.191,2.349,2.9,2.9,0,0,1-2.295,2.191,2.026,2.026,0,0,0-.192.069Z" transform="translate(-1.926 -15.313)" fill="#a8a8a8"/>
    <path id="Path_581" data-name="Path 581" d="M1060.518,381.526q-6.93,0-13.859,0a3.091,3.091,0,0,1-3.218-3.215q0-6.117,0-12.234a3.09,3.09,0,0,1,3.217-3.216h27.717a3.089,3.089,0,0,1,3.218,3.214q0,6.118,0,12.234a3.092,3.092,0,0,1-3.216,3.216Q1067.447,381.527,1060.518,381.526Zm-3.251-9.406h.018c0,1.22,0,2.44,0,3.661a1.054,1.054,0,0,0,1.2,1.207c.7,0,1.4,0,2.106-.018a3.581,3.581,0,0,0,2.928-1.5,5.674,5.674,0,0,0,.69-5.476,3.72,3.72,0,0,0-3.417-2.681c-.755-.063-1.518-.023-2.278-.024a1.093,1.093,0,0,0-1.252,1.244Q1057.265,370.324,1057.266,372.12Zm-6.771,1.669c.438,0,.828,0,1.217,0a3.286,3.286,0,0,0,3.2-2.792,3.135,3.135,0,0,0-2.42-3.556,15.547,15.547,0,0,0-3.192-.119.962.962,0,0,0-.882,1.059q0,3.87.018,7.74a1.033,1.033,0,1,0,2.056-.032C1050.5,375.341,1050.5,374.594,1050.5,373.789Zm18.8-.69c.652,0,1.26.005,1.869,0a1.018,1.018,0,0,0,.07-2.034c-.264-.021-.53-.011-.795-.012-.374,0-.748,0-1.127,0v-1.756c.082-.005.148-.014.215-.014.622,0,1.245.013,1.866-.007a1.033,1.033,0,1,0-.057-2.061q-1.5,0-3.007,0a1.048,1.048,0,0,0-1.108,1.1c-.007.357,0,.715,0,1.071q0,3.267,0,6.534a1.089,1.089,0,0,0,.67,1.1,1.037,1.037,0,0,0,1.4-1.04C1069.3,375.039,1069.3,374.094,1069.3,373.1Z" transform="translate(0 -4.986)" fill="#a8a8a8"/>
    <path id="Path_582" data-name="Path 582" d="M1075.331,355.789h-26.094v-.329q0-2.229,0-4.458a3.088,3.088,0,0,1,3.174-3.154q6.877,0,13.754,0a4.928,4.928,0,0,1,3.656,1.521c1.527,1.568,3.022,3.166,4.521,4.76A4.68,4.68,0,0,1,1075.331,355.789Z" transform="translate(-1.926 0)" fill="#a8a8a8"/>
    <path id="Path_583" data-name="Path 583" d="M1067.268,378.147v-5.609a13.858,13.858,0,0,1,1.767.14,1.568,1.568,0,0,1,1.1,1.061,4.089,4.089,0,0,1,.006,3.155,1.87,1.87,0,0,1-1.843,1.253C1067.969,378.147,1067.637,378.147,1067.268,378.147Z" transform="translate(-7.915 -8.201)" fill="#a8a8a8"/>
    <path id="Path_584" data-name="Path 584" d="M1054.018,374.972V372.6a13.128,13.128,0,0,1,1.377.009,1.211,1.211,0,0,1,1.013,1.181,1.235,1.235,0,0,1-1.013,1.149,2.445,2.445,0,0,1-.377.031C1054.7,374.975,1054.378,374.972,1054.018,374.972Z" transform="translate(-3.514 -8.216)" fill="#a8a8a8"/>
  </g>
</svg>
