<svg xmlns="http://www.w3.org/2000/svg" width="20.653" height="20.653" viewBox="0 0 20.653 20.653"><path d="M1164,654.478V644.073c.032-.177.056-.355.1-.53a5.6,5.6,0,0,1,4.107-4.394c.3-.088.611-.133.917-.2h10.405c.346.074.7.132,1.038.225a5.654,5.654,0,0,1,4.083,5.426c.006,3.112.012,6.224-.009,9.335a6.407,6.407,0,0,1-.224,1.586,5.627,5.627,0,0,1-5.407,4.075c-3.119.007-6.237.012-9.356-.008a5.665,5.665,0,0,1-5.483-4.288C1164.1,655.032,1164.058,654.753,1164,654.478Zm10.323.45a5.652,5.652,0,1,0-5.651-5.663A5.653,5.653,0,0,0,1174.326,654.928Zm7.711-11.652a1.709,1.709,0,1,0-1.716,1.707A1.7,1.7,0,0,0,1182.037,643.276Z" transform="translate(-1164.003 -638.951)" fill="#fff"/><path d="M1178.769,649.28a4.442,4.442,0,1,1-4.438-4.447A4.438,4.438,0,0,1,1178.769,649.28Z" transform="translate(-1164.003 -638.951)" fill="#fff"/><path d="M1180.828,643.273a.518.518,0,0,1-.494.509.541.541,0,0,1-.513-.518.518.518,0,0,1,.512-.49A.5.5,0,0,1,1180.828,643.273Z" transform="translate(-1164.003 -638.951)" fill="#fff"/></svg>