<svg xmlns="http://www.w3.org/2000/svg" width="138.854" height="26.952" viewBox="0 0 138.854 26.952"><path d="M682.66,234.756l5.355-25.88h17.479l-1.072,5.176H692.455l-.954,4.606h9.214l-1.071,5.176h-9.214l-2.26,10.921Z" transform="translate(-682.66 -208.33)" fill="#fff"/><path d="M728.382,208.876l-.974,5.176h-7.864l-3.9,20.7h-5.012l3.9-20.7h-7.87l.974-5.176Z" transform="translate(-683.015 -208.33)" fill="#fff"/><path d="M750.808,221.774c-1.836,8.873-8.138,13.453-14.615,13.453s-10.873-4.624-9.046-13.453c1.787-8.634,8.137-13.452,14.615-13.452C748.548,208.322,752.558,213.318,750.808,221.774Zm-5.354,0c1.147-5.539-1.119-8.095-4.8-8.095s-7.012,2.586-8.152,8.095c-1.15,5.558,1.111,8.1,4.8,8.1C741.016,229.87,744.3,227.332,745.454,221.774Z" transform="translate(-683.311 -208.322)" fill="#fff"/><path d="M772.1,234.748h-6.295l-2.988-9.314H758.28l-1.929,9.322h-5.51l5.356-25.883,11.488-.011c5.415,0,7.861,4.079,6.979,8.34a10.6,10.6,0,0,1-6.363,7.647Zm-6.375-14.336a4.117,4.117,0,0,0,4.127-3.209,2.613,2.613,0,0,0-2.775-3.319h-6.407l-1.351,6.528Z" transform="translate(-683.667 -208.33)" fill="#fff"/><path d="M792.8,227.623c-.7,3.371-3.874,7.651-10.574,7.651-5.964,0-8.087-4.435-7.3-8.221h2.516c-.567,2.735,1.337,5.6,5.584,5.6,4.549,0,6.777-2.624,7.339-5.338,1.511-7.3-14.53-1.585-12.344-12.152.788-3.807,4.373-6.83,9.652-6.83,4.949,0,7.357,3.179,6.435,7.63h-2.517c.59-2.853-1.028-5-4.462-5-3.376,0-6.023,1.476-6.608,4.3C778.929,222.947,794.959,217.177,792.8,227.623Z" transform="translate(-684.021 -208.322)" fill="#fff"/><path d="M794.578,234.756l5.359-25.895h2.529l-5.359,25.895Z" transform="translate(-684.313 -208.33)" fill="#fff"/><path d="M822.07,225.311c-2.346,7.263-7.247,9.952-11.428,9.952-6.028,0-8.992-5.286-7.556-13.466a18.96,18.96,0,0,1,4.7-10.054,10.639,10.639,0,0,1,7.583-3.413c4.949,0,7.842,3.482,7.914,9.325h-2.2c-.261-4.9-3.105-6.7-6.176-6.7-3.819,0-8.323,3.074-9.688,10.841-1.407,8.009,2.06,10.84,5.878,10.84,3.976,0,7.1-2.6,8.779-7.326Z" transform="translate(-684.433 -208.322)" fill="#fff"/></svg>