<svg xmlns="http://www.w3.org/2000/svg" width="132.055" height="28.848" viewBox="0 0 132.055 28.848"><g transform="translate(-253.723 -823.164)"><path d="M334.313,852.01a24.359,24.359,0,0,1-14.555-4.4,13.011,13.011,0,0,1-5.247-7.1c-1.144-4.206.082-7.837,3.018-10.934a20.637,20.637,0,0,1,11.929-5.959,26.515,26.515,0,0,1,16.109,2.031,17.339,17.339,0,0,1,5.757,4.216c4.532,5.163,4.14,11.815-.94,16.449a22.162,22.162,0,0,1-11.585,5.336A24.513,24.513,0,0,1,334.313,852.01Zm-.225-6.75a22.668,22.668,0,0,0,4.271-.4,17.941,17.941,0,0,0,3.17-.929,11.309,11.309,0,0,0,5.3-3.82,4.019,4.019,0,0,0-.019-5.046,9.137,9.137,0,0,0-2.98-2.657,19.247,19.247,0,0,0-13.111-2.141,15.1,15.1,0,0,0-7.866,3.547c-2.468,2.2-2.62,4.715-.407,7.151a8.509,8.509,0,0,0,1.292,1.15,17.7,17.7,0,0,0,10.355,3.143Z" fill="#a8a8a8"/><path d="M268.026,852a14.435,14.435,0,1,1,.107,0Zm.057-22.045a7.65,7.65,0,1,0,7.658,7.642v-.011a7.676,7.676,0,0,0-7.659-7.631Z" fill="#a8a8a8"/><path d="M379,838.4c0-3.822-.015-7.45.006-11.078a3.364,3.364,0,0,1,4.931-3.1,3.314,3.314,0,0,1,1.838,3.161q0,7.575,0,15.15v7.26c0,.58.085,1.2-.589,1.5-.612.266-1.039-.129-1.479-.477q-8.5-6.75-17.01-13.485c-.183-.143-.371-.282-.567-.43-.216.215-.112.462-.113.676-.008,3.393,0,6.786-.006,10.179a3.392,3.392,0,1,1-6.77.013q-.006-11.246,0-22.489c0-.544-.005-1.084.587-1.342.538-.235.943.048,1.354.376q8.468,6.726,16.946,13.433C378.361,837.932,378.611,838.108,379,838.4Z" fill="#a8a8a8"/><path d="M297.462,844.627H301.8q3.4,0,6.8,0a3.377,3.377,0,1,1,.04,6.738q-11.262.02-22.524.009c-.5,0-.965-.047-1.193-.565a1.22,1.22,0,0,1,.309-1.3q6.9-9.078,13.789-18.168c.153-.2.293-.415.447-.634a1.47,1.47,0,0,0-.889-.113c-2.793-.007-5.585.013-8.378-.011a3.373,3.373,0,0,1-.959-6.627,4.48,4.48,0,0,1,1.254-.109q10.116,0,20.232,0c.525,0,1.067-.053,1.371.535s-.04.994-.363,1.419q-6.848,9.021-13.689,18.045C297.887,844.05,297.735,844.26,297.462,844.627Z" fill="#a8a8a8"/></g></svg>