<svg xmlns="http://www.w3.org/2000/svg" width="30.09" height="35.398" viewBox="0 0 30.09 35.398"><g transform="translate(-1803.76 -52.173)"><path d="M1827.883,52.173h-18.154a5.976,5.976,0,0,0-5.969,5.97V81.6a5.975,5.975,0,0,0,5.969,5.968h18.154a5.975,5.975,0,0,0,5.968-5.968V58.143A5.977,5.977,0,0,0,1827.883,52.173ZM1830.1,81.6a2.213,2.213,0,0,1-2.213,2.213h-18.154a2.215,2.215,0,0,1-2.213-2.213V58.142a2.217,2.217,0,0,1,2.213-2.214h12.36l8.006,8.006Z" transform="translate(0 0)" fill="#a8a8a8"/><path d="M1811.394,62.745h-2.916a.282.282,0,0,0-.282.282v7.121a.281.281,0,0,0,.282.282h1.283a.281.281,0,0,0,.282-.282V67.607h1.5a2.615,2.615,0,0,0,1.845-.679,2.465,2.465,0,0,0,.061-3.466A2.733,2.733,0,0,0,1811.394,62.745Zm.825,2.41a.734.734,0,0,1-.224.572,1.018,1.018,0,0,1-.714.216h-1.236V64.369h1.121a1.184,1.184,0,0,1,.839.223A.793.793,0,0,1,1812.218,65.154Z" transform="translate(1.38 3.286)" fill="#a8a8a8"/><path d="M1815.96,62.743h-2.622a.282.282,0,0,0-.282.282v7.121a.281.281,0,0,0,.282.282h2.337a3.58,3.58,0,0,0,2.808-1.112,3.944,3.944,0,0,0,.979-2.718,4.068,4.068,0,0,0-.949-2.727A3.211,3.211,0,0,0,1815.96,62.743Zm1.544,3.782a2.487,2.487,0,0,1-.524,1.733,1.629,1.629,0,0,1-1.255.557h-.787v-4.5h.939a1.353,1.353,0,0,1,1.156.606,2.668,2.668,0,0,1,.465,1.6Z" transform="translate(2.891 3.287)" fill="#a8a8a8"/><path d="M1818.7,70.428h1.32a.281.281,0,0,0,.282-.282V67.423h2.229a.281.281,0,0,0,.282-.282v-1.07a.282.282,0,0,0-.282-.282H1820.3V64.408h2.9a.281.281,0,0,0,.282-.282v-1.1a.282.282,0,0,0-.282-.282h-4.5a.282.282,0,0,0-.282.282v7.121A.281.281,0,0,0,1818.7,70.428Z" transform="translate(4.558 3.287)" fill="#a8a8a8"/></g></svg>