<svg xmlns="http://www.w3.org/2000/svg" width="24.803" height="20.653" viewBox="0 0 24.803 20.653"><path d="M1296.642,639.9v.725a.321.321,0,0,0-.044.081q-.717,3.371-1.433,6.74-1.077,5.055-2.164,10.107a8.3,8.3,0,0,1-.386,1.387.976.976,0,0,1-1.259.615,2.32,2.32,0,0,1-.716-.334c-1.329-.954-2.646-1.925-3.967-2.891l-1.606-1.173c-.071.065-.132.116-.189.171q-1.368,1.3-2.734,2.6a1.231,1.231,0,0,1-.982.384c0-.056,0-.1,0-.133q.087-1.241.176-2.481c.068-.972.132-1.944.212-2.915a.573.573,0,0,1,.163-.349q4.344-3.908,8.7-7.8c.577-.517,1.156-1.031,1.722-1.559.079-.073.094-.216.139-.327a.914.914,0,0,0-.356-.074,1.6,1.6,0,0,0-.507.213c-4.108,2.561-8.22,5.116-12.312,7.7a1.6,1.6,0,0,1-1.544.207c-1.6-.549-3.221-1.017-4.833-1.519a1.378,1.378,0,0,1-.881-.625v-.339a2.3,2.3,0,0,1,1.235-.868l11.722-4.481q5.061-1.934,10.123-3.866a1.13,1.13,0,0,1,1.709.782A.061.061,0,0,0,1296.642,639.9Z" transform="translate(-1271.839 -638.951)" fill="#fff"/></svg>