<svg xmlns="http://www.w3.org/2000/svg" width="35.36" height="20.653" viewBox="0 0 35.36 20.653"><path d="M1062.8,639.675a1.076,1.076,0,0,1,1.078-.7q2.157-.009,4.314,0a1.337,1.337,0,0,1,1.293.871c.282.652.517,1.325.783,1.984a30.768,30.768,0,0,0,3.7,6.866,11.048,11.048,0,0,0,.887,1.056,4.136,4.136,0,0,0,.766.638c.622.4,1.059.194,1.175-.529a5.216,5.216,0,0,0,.032-.792q0-2.676,0-5.352a4.284,4.284,0,0,0-1.007-2.9,3.37,3.37,0,0,1-.385-.528.86.86,0,0,1,.6-1.3,2.6,2.6,0,0,1,.515-.038q2.8,0,5.593,0c.115,0,.231,0,.345.011a.918.918,0,0,1,.953.966c.018.24.023.482.024.724q0,3.453,0,6.9a5.493,5.493,0,0,0,.04.654c.087.692.564.97,1.139.574a8.5,8.5,0,0,0,1.563-1.388,25.812,25.812,0,0,0,3.443-5.31c.34-.664.659-1.34.962-2.022a1.636,1.636,0,0,1,1.56-1.1c1.438-.009,2.877-.018,4.314.021.774.022,1.139.5.887,1.229a13.216,13.216,0,0,1-1.152,2.6c-1.249,2.037-2.572,4.029-3.9,6.018-.739,1.109-.723,1.377.186,2.344,1.41,1.5,2.808,3.011,4.172,4.553a12.493,12.493,0,0,1,1.135,1.683,2.6,2.6,0,0,1,.279.7,1.048,1.048,0,0,1-1,1.446c-.3.028-.6.033-.9.034-1.036,0-2.072-.018-3.107.008a2.482,2.482,0,0,1-1.946-.8c-.756-.79-1.475-1.618-2.265-2.371-.839-.8-1.721-1.559-2.626-2.283a2.875,2.875,0,0,0-1.888-.742c-.579.016-.827.215-.853.8-.039.908-.043,1.817-.056,2.725-.006.437.017.875,0,1.312a1.038,1.038,0,0,1-.926,1.148,9.741,9.741,0,0,1-1.949.181,13.264,13.264,0,0,1-8.027-3.066,21.1,21.1,0,0,1-4.457-5,39.181,39.181,0,0,1-4.575-8.619c-.268-.742-.444-1.517-.664-2.276a.527.527,0,0,0-.064-.113Z" transform="translate(-1062.796 -638.951)" fill="#fff"/></svg>