<svg xmlns="http://www.w3.org/2000/svg" width="20.64" height="20.653" viewBox="0 0 20.64 20.653"><path d="M1203.672,659.057c.253-.669.494-1.306.736-1.943.2-.532.4-1.064.608-1.594a.323.323,0,0,0-.033-.342,9.721,9.721,0,0,1-1.837-6.369,10.086,10.086,0,0,1,6.485-9.113,9.5,9.5,0,0,1,4.273-.732,10.314,10.314,0,0,1,2.129,20.288,10.027,10.027,0,0,1-8.078-1.251.441.441,0,0,0-.4-.052q-1.828.534-3.661,1.058C1203.836,659.025,1203.772,659.035,1203.672,659.057Zm12.9-3.993a1.779,1.779,0,0,0,1.356-.53c.3-.31.611-.6.914-.9a1.188,1.188,0,0,0,.024-1.712c-.515-.529-1.034-1.055-1.567-1.566a1.061,1.061,0,0,0-1.791.4,1.045,1.045,0,0,1-1.342.658,4.748,4.748,0,0,1-2.884-2.8,1.029,1.029,0,0,1,.665-1.45,1.056,1.056,0,0,0,.385-1.75c-.53-.55-1.072-1.089-1.62-1.62a1.089,1.089,0,0,0-1.559.01c-.355.346-.7.7-1.052,1.049a1.422,1.422,0,0,0-.4.844,3.715,3.715,0,0,0,.387,2.1,14.346,14.346,0,0,0,6.309,6.616A5.064,5.064,0,0,0,1216.572,655.064Z" transform="translate(-1203.122 -638.951)" fill="#fff"/></svg>