<svg xmlns="http://www.w3.org/2000/svg" width="18" height="19" viewBox="0 0 18 19"><g transform="translate(389.147 -24.002)"><path d="M-389.147,43c.017-.057.03-.1.044-.145q.762-2.37,1.524-4.74a.171.171,0,0,0-.016-.151,9.4,9.4,0,0,1-1.056-2.878,9.55,9.55,0,0,1-.149-1.16,9.57,9.57,0,0,1-.008-1.231,9.5,9.5,0,0,1,1.022-3.794,8.96,8.96,0,0,1,5.267-4.515,8.211,8.211,0,0,1,1.262-.29,8.434,8.434,0,0,1,1.581-.089,8.406,8.406,0,0,1,5.044,1.89,9.171,9.171,0,0,1,3.236,5.186,9.329,9.329,0,0,1,.215,1.389,9.241,9.241,0,0,1,.02,1.253,9.36,9.36,0,0,1-1.937,5.329,8.742,8.742,0,0,1-4.122,3,8.224,8.224,0,0,1-1.309.337,8.314,8.314,0,0,1-1.572.126,8.453,8.453,0,0,1-4.1-1.119.138.138,0,0,0-.125-.01q-2.384.8-4.77,1.6Zm5.114-3.314.078.052a7.078,7.078,0,0,0,3.8,1.221,6.947,6.947,0,0,0,1.032-.054,6.563,6.563,0,0,0,.9-.171,7.221,7.221,0,0,0,3.788-2.444,7.778,7.778,0,0,0,1.78-4.556,7.831,7.831,0,0,0-.035-1.363,7.763,7.763,0,0,0-.267-1.348A7.635,7.635,0,0,0-375.33,27.3a7.054,7.054,0,0,0-4.546-1.748,6.8,6.8,0,0,0-1.095.07,6.429,6.429,0,0,0-1.151.263,7.4,7.4,0,0,0-4.344,3.739,7.726,7.726,0,0,0-.853,3.08,7.88,7.88,0,0,0-.007.971,7.987,7.987,0,0,0,.136,1.117,7.821,7.821,0,0,0,1.218,2.927.122.122,0,0,1,.014.121q-.434,1.344-.865,2.689c-.009.029-.017.058-.028.1Z" fill="#fff"/><path d="M-376.928,37.9a2.591,2.591,0,0,1,.556-1.625,4.353,4.353,0,0,1,.4-.421.874.874,0,0,1,.741-.222,3.431,3.431,0,0,0,.377.024.35.35,0,0,1,.319.167,1.529,1.529,0,0,1,.132.264c.186.5.367.991.551,1.487.039.1.079.208.122.31a.471.471,0,0,1-.02.413,2.549,2.549,0,0,1-.436.578c-.068.075-.141.146-.212.218l-.026.026a.3.3,0,0,0-.061.4,6.409,6.409,0,0,0,2.42,2.579c.158.092.322.172.484.257.078.041.159.08.239.118a.948.948,0,0,0,.109.047.312.312,0,0,0,.347-.078c.062-.063.123-.129.183-.2.222-.246.446-.491.647-.755a.3.3,0,0,1,.379-.12,1.708,1.708,0,0,1,.266.111c.495.258.988.52,1.481.781l.2.109c.039.022.076.045.114.068a.264.264,0,0,1,.129.235,1.871,1.871,0,0,1-.05.471c-.03.132-.072.262-.11.392a1.162,1.162,0,0,1-.355.537,2.827,2.827,0,0,1-.719.467,2.059,2.059,0,0,1-.5.169c-.092.017-.186.024-.279.038-.056.008-.111.021-.168.03a1.751,1.751,0,0,1-.723-.083,10.648,10.648,0,0,1-1.308-.473,8.946,8.946,0,0,1-1.012-.474,8.018,8.018,0,0,1-1.74-1.364A11.535,11.535,0,0,1-376,40.4c-.148-.237-.306-.468-.434-.717a4.627,4.627,0,0,1-.432-1.164A3,3,0,0,1-376.928,37.9Z" transform="translate(-7.701 -6.893)" fill="#fff"/></g></svg>