<svg xmlns="http://www.w3.org/2000/svg" width="132.054" height="25.511" viewBox="0 0 132.054 25.511"><g transform="translate(-253.723 -1133.346)"><path d="M253.723,1153.9a3.685,3.685,0,0,0,.558-1.1c.413-.887.852-1.763,1.242-2.659.439-1.013.97-1.984,1.362-3.021.129-.342.321-.662.464-1,.165-.394.157-.465-.219-.662a4.931,4.931,0,0,1-2.227-2.7,8.114,8.114,0,0,1-.4-3.766,6.2,6.2,0,0,1,1.684-3.923,5.422,5.422,0,0,1,2.464-1.429,8.664,8.664,0,0,1,2.474-.278c.792.012,1.584.02,2.375-.006.345-.011.413.11.413.429q-.014,9.93-.007,19.859c0,.612,0,.612-.633.612-.447,0-.9-.01-1.342.007-.23.008-.286-.074-.285-.3.008-2.393.005-4.787.007-7.181,0-.531,0-.531-.541-.531-.356,0-.712.013-1.067,0a.414.414,0,0,0-.44.3c-.646,1.449-1.308,2.89-1.942,4.344-.454,1.041-.9,2.084-1.369,3.119a.341.341,0,0,1-.372.246c-.734-.005-1.468,0-2.2-.005Zm7.912-14.024v-2.128c0-.7-.005-1.39,0-2.085,0-.275-.064-.428-.387-.4s-.665-.005-1,.01a3.159,3.159,0,0,0-2.864,1.837,5.251,5.251,0,0,0-.519,1.93,7.175,7.175,0,0,0,.446,3.621,2.814,2.814,0,0,0,1.9,1.618,7.894,7.894,0,0,0,2.01.152c.307.009.417-.071.413-.4-.018-1.384-.007-2.769-.008-4.153Z" fill="#a8a8a8"/><path d="M285.384,1146.023c0,2.061.005,4.123-.007,6.184,0,.211.055.253.242.245.253-.011.506.006.756-.006.153-.007.193.045.193.193q-.008,2.148,0,4.295c0,.171-.057.208-.216.205-.516-.009-1.033-.012-1.548,0-.195.005-.25-.052-.247-.247.011-.79,0-1.58.008-2.37,0-.228-.064-.285-.29-.284q-2.925.012-5.851,0c-.211,0-.27.048-.266.263.015.79,0,1.581.011,2.371,0,.2-.034.278-.258.269-.492-.02-.987-.014-1.48,0-.193,0-.279-.023-.277-.253q.018-2.1,0-4.191c0-.23.079-.253.276-.251.627.012.633.006.848-.578a17.907,17.907,0,0,0,.894-3.807,49.266,49.266,0,0,0,.363-5.319c.026-.983.019-1.966.029-2.948,0-.215.057-.264.267-.264q3.132.014,6.264,0c.254,0,.3.082.293.311C285.381,1141.9,285.384,1143.962,285.384,1146.023Zm-2.228.835c0-1.74,0-3.481,0-5.222,0-.223-.039-.319-.3-.311-.688.02-1.377.014-2.065,0-.184,0-.232.052-.233.229,0,.56-.008,1.121-.025,1.68-.038,1.3-.1,2.6-.228,3.9a20.725,20.725,0,0,1-1.05,5.034c-.067.183-.08.258.161.256,1.159-.013,2.317-.015,3.476,0,.261,0,.261-.122.26-.311Q283.154,1149.488,283.156,1146.858Z" fill="#a8a8a8"/><path d="M324.352,1135.662c0,.288,0,.534,0,.779-.022,1.291-.031,2.583-.072,3.874-.054,1.676-.133,3.351-.2,5.026-.043,1.013-.091,2.029-.135,3.043q-.1,2.466-.208,4.931a2.068,2.068,0,0,1-.049.3c-.039.206.1.544-.078.6a3.23,3.23,0,0,1-1.025.02c-.133-.007-.068-.145-.065-.225.062-1.321.134-2.642.191-3.964.058-1.367.087-2.735.158-4.1.082-1.55.141-3.1.207-4.651.046-1.083.089-2.167.14-3.25.048-1.013.084-2.026.141-3.039.029-.479.043-.957.055-1.435.005-.2.08-.222.241-.219.368.007.734.012,1.1,0a.253.253,0,0,1,.3.2c0,.011,0,.022,0,.034q1.409,5.849,2.828,11.694a33.984,33.984,0,0,1,.737,3.782.632.632,0,0,0,.042.117c.192-.181.126-.417.155-.6a57.426,57.426,0,0,1,1.337-5.835c.744-3.039,1.516-6.068,2.265-9.106.055-.223.142-.29.361-.28.355.017.712.014,1.067,0,.175-.006.231.043.236.224q.057,1.642.139,3.284c.084,1.607.149,3.214.211,4.821.039,1.013.087,2.026.133,3.039.073,1.608.15,3.214.209,4.823.037,1,.094,2,.138,3.006.022.49.055.979.062,1.47,0,.174-.03.247-.22.233a3.037,3.037,0,0,0-.688,0c-.376.061-.46-.127-.468-.443q-.033-1.371-.084-2.741c-.065-1.666-.122-3.332-.209-5-.05-.957-.084-1.915-.13-2.872-.117-2.454-.245-4.908-.2-7.366,0-.07.044-.188-.064-.2-.132-.012-.11.133-.119.2-.633,4.316-2,8.459-2.989,12.692-.169.73-.378,1.451-.546,2.182-.047.2-.132.245-.322.245-.845,0-.851.011-1.046-.77q-1.426-5.7-2.846-11.4a27.858,27.858,0,0,1-.52-2.951C324.508,1135.78,324.5,1135.729,324.352,1135.662Z" fill="#a8a8a8"/><path d="M266.874,1146.882c0-2.335,0-4.671-.005-7.006,0-.253.042-.362.33-.348a15.422,15.422,0,0,0,1.583,0c.279-.014.309.089.308.328-.009,1.866,0,3.733-.012,5.6,0,.282.06.363.353.356.951-.02,1.9-.016,2.855,0,.238,0,.3-.054.3-.3-.011-1.878,0-3.757-.013-5.634,0-.29.073-.363.356-.349.527.024,1.055.015,1.583,0,.2-.005.274.035.274.259q-.012,7.077,0,14.153c0,.232-.056.321-.306.312q-.791-.027-1.582,0c-.251.01-.325-.049-.323-.315.014-1.98,0-3.961.015-5.942,0-.277-.053-.369-.349-.362-.952.021-1.9.016-2.857,0-.239,0-.3.058-.3.3.011,1.992,0,3.984.012,5.977,0,.266-.062.349-.334.338-.527-.024-1.056-.028-1.583,0-.286.015-.3-.1-.3-.333Q266.88,1150.406,266.874,1146.882Z" fill="#a8a8a8"/><path d="M295.959,1151.533c.161.535.3,1.026.457,1.515a.21.21,0,0,1-.081.282,5.309,5.309,0,0,1-6.13.282,5,5,0,0,1-1.7-2.49,10.533,10.533,0,0,1-.506-3.051,16.18,16.18,0,0,1,.568-5.263,5.4,5.4,0,0,1,1.635-2.73,3.159,3.159,0,0,1,1.587-.733,3.546,3.546,0,0,1,2.752.616,4.115,4.115,0,0,1,1.369,2.079,10.988,10.988,0,0,1,.509,2.955c.036.639.051,1.277.051,1.916,0,.458,0,.459-.443.459-1.8,0-3.6.007-5.4-.008-.292,0-.366.075-.346.357a8.63,8.63,0,0,0,.73,3.539,2.324,2.324,0,0,0,2.37,1.224,9.633,9.633,0,0,0,1.363-.3A4.846,4.846,0,0,0,295.959,1151.533Zm-3.684-5.956h0c.539,0,1.077-.016,1.614.007.273.012.336-.084.314-.332-.035-.4-.033-.8-.074-1.194a5.926,5.926,0,0,0-.46-1.984,1.317,1.317,0,0,0-2.34-.335,2.35,2.35,0,0,0-.414.7,10.358,10.358,0,0,0-.552,2.939c-.017.193.091.2.229.2C291.153,1145.576,291.714,1145.577,292.275,1145.577Z" fill="#a8a8a8"/><path d="M307.492,1154.243c-.787,0-1.529,0-2.272,0-.152,0-.2-.1-.248-.194q-1.354-2.551-2.708-5.107c-.354-.666-.711-1.332-1.082-2.026a.5.5,0,0,0-.081.414c0,2.187-.008,4.374,0,6.561,0,.279-.056.372-.35.356a11.941,11.941,0,0,0-1.513,0c-.325.022-.361-.1-.361-.38q.014-6.459.006-12.916c0-.39.015-.779-.006-1.168-.012-.224.067-.263.27-.258.549.014,1.1.018,1.652,0,.241-.008.3.055.3.3-.01,2.026-.005,4.052-.005,6.08,0,.058,0,.115,0,.172s-.039.153.045.179c.105.033.123-.069.158-.137l1.516-2.9q.916-1.759,1.825-3.521c.049-.094.087-.169.222-.169.685.008,1.371,0,2.1,0-.35.662-.681,1.29-1.013,1.916-.844,1.595-1.682,3.191-2.535,4.779a.526.526,0,0,0,.067.567l3.006,5.6C306.825,1153,307.149,1153.6,307.492,1154.243Z" fill="#a8a8a8"/><path d="M349.7,1153.268v.556c0,1.568-.007,3.137.01,4.705,0,.286-.091.345-.344.324a3.588,3.588,0,0,0-.687,0c-.253.027-.291-.077-.291-.305q.009-9.344,0-18.686c0-.283.084-.338.346-.332.822.013.816,0,.835.844.01.443.042.886.067,1.329,0,.06-.035.146.062.168s.1-.071.124-.126a6.5,6.5,0,0,1,.791-1.224,2.951,2.951,0,0,1,5.065.345,8.629,8.629,0,0,1,1.112,3.443,15.322,15.322,0,0,1,.127,3,11.983,11.983,0,0,1-1.077,4.858,4.08,4.08,0,0,1-2.165,2.093,3.394,3.394,0,0,1-3.841-.941C349.813,1153.3,349.775,1153.3,349.7,1153.268Zm.011-5.721v3.812a.923.923,0,0,0,.031.335,2.7,2.7,0,0,0,2.231,1.788,2.36,2.36,0,0,0,2.542-1.29,8.309,8.309,0,0,0,.959-3.423,19.612,19.612,0,0,0,.012-4.139,7.841,7.841,0,0,0-.855-3,1.975,1.975,0,0,0-2.944-.854,5.433,5.433,0,0,0-1.961,2.654.85.85,0,0,0-.015.306q0,1.9,0,3.81Z" fill="#a8a8a8"/><path d="M315.506,1151.76c.155.495.293.962.451,1.422a.268.268,0,0,1-.092.351,4.415,4.415,0,0,1-2.78.967,4.473,4.473,0,0,1-4.209-2.463,9.478,9.478,0,0,1-.974-3.662,15.176,15.176,0,0,1,.15-3.681,6.687,6.687,0,0,1,1.969-4.188,4.322,4.322,0,0,1,2.617-1.111,4.964,4.964,0,0,1,2.927.571.329.329,0,0,1,.212.413v0c-.115.591-.174,1.19-.261,1.827a4.36,4.36,0,0,0-1.36-.78,2.343,2.343,0,0,0-3.226,1.412,7.858,7.858,0,0,0-.622,2.605,14.47,14.47,0,0,0-.053,1.986,9.851,9.851,0,0,0,.658,3.645,2.278,2.278,0,0,0,2.074,1.568,3.485,3.485,0,0,0,2.406-.808C315.418,1151.815,315.447,1151.8,315.506,1151.76Z" fill="#a8a8a8"/><path d="M338.265,1141.935c-.109-.357-.211-.7-.318-1.046a.251.251,0,0,1,.093-.271,4.463,4.463,0,0,1,3.892-1.3,4,4,0,0,1,1.562.46,3.26,3.26,0,0,1,1.519,2.308,8.291,8.291,0,0,1,.148,1.7c-.008,2.634,0,5.268-.005,7.9a10.7,10.7,0,0,0,.253,2.339c.046.211.048.326-.218.291a3.331,3.331,0,0,0-.447,0c-.5,0-.51,0-.608-.5-.089-.455-.155-.914-.232-1.373-.144-.018-.161.1-.207.185a3.44,3.44,0,0,1-3.564,1.879,2.911,2.911,0,0,1-2.426-2.045,5.663,5.663,0,0,1,.45-5.2,3.717,3.717,0,0,1,2.307-1.526,11.382,11.382,0,0,1,3.07-.211c.253,0,.338-.045.321-.311-.049-.866.059-1.737-.072-2.6-.273-1.818-1.407-2.368-3.014-2.146a3.514,3.514,0,0,0-2.406,1.406A.465.465,0,0,1,338.265,1141.935Zm5.582,6.664c0-.629,0-1.259,0-1.888,0-.169-.031-.244-.223-.236a21.667,21.667,0,0,0-2.335.066,2.7,2.7,0,0,0-2.319,1.625,5.13,5.13,0,0,0,0,3.9,2.06,2.06,0,0,0,2.96,1.13,3.691,3.691,0,0,0,1.906-2.986,14.229,14.229,0,0,0,.006-1.613Z" fill="#a8a8a8"/><path d="M375.827,1151.842c.053.137.091.228.126.321.319.856.324.914-.437,1.468a4.2,4.2,0,0,1-4.566.457,4.122,4.122,0,0,1-1.961-2.389,10.878,10.878,0,0,1-.638-2.922,18.87,18.87,0,0,1-.048-2.912,9.263,9.263,0,0,1,1.519-5.087,3.253,3.253,0,0,1,2.7-1.514,3.153,3.153,0,0,1,2.86,1.79,7.291,7.291,0,0,1,.834,2.757,15.869,15.869,0,0,1,.071,2.932c-.015.267-.077.361-.367.359-2.031-.014-4.061-.008-6.09-.005-.131,0-.309-.073-.293.193a11.706,11.706,0,0,0,.813,4.353,2.652,2.652,0,0,0,2.315,1.748,3.628,3.628,0,0,0,2.3-.682A3.1,3.1,0,0,0,375.827,1151.842Zm-3.509-5.779c.8,0,1.6-.008,2.406.006.232,0,.319-.05.317-.3a15.848,15.848,0,0,0-.077-2.19,5,5,0,0,0-.912-2.5,1.833,1.833,0,0,0-2.445-.447,3.035,3.035,0,0,0-1.116,1.307,10.13,10.13,0,0,0-.886,3.933c-.018.235.142.185.27.185Q371.1,1146.066,372.318,1146.063Z" fill="#a8a8a8"/><path d="M360.993,1146.378c.194-.047.239-.181.316-.29q2.283-3.19,4.567-6.378a.343.343,0,0,1,.327-.177c.332.01.665,0,1.055,0-.376.526-.728,1.02-1.081,1.512-1.214,1.692-2.424,3.388-3.648,5.073a.358.358,0,0,0-.013.479q2.454,3.686,4.9,7.372a2.716,2.716,0,0,1,.133.271c-.448,0-.867-.007-1.286,0-.152,0-.192-.1-.253-.194q-1.762-2.625-3.523-5.251-.653-.97-1.308-1.941c-.048-.07-.085-.195-.193-.166s-.052.158-.052.238c0,2.335-.011,4.671,0,7.007,0,.262-.064.338-.319.313a3.29,3.29,0,0,0-.688,0c-.228.023-.257-.073-.257-.27q.009-7.092,0-14.186c0-.206.042-.285.261-.266a4.765,4.765,0,0,0,.756,0c.238-.02.311.053.308.3-.013,1.168-.006,2.336-.006,3.5Z" fill="#a8a8a8"/><path d="M382.336,1147.471c0,2.152-.006,4.305.007,6.458,0,.279-.078.353-.34.326a3.28,3.28,0,0,0-.687,0c-.256.028-.293-.075-.292-.305.006-4.315,0-8.631.012-12.946,0-.3-.066-.38-.373-.375-.951.023-1.9,0-2.855.014-.211,0-.274-.064-.284-.268-.042-.839-.05-.838.788-.838,2.374,0,4.748,0,7.122-.006.253,0,.351.043.343.328-.02.778-.005.778-.783.778s-1.562.012-2.339-.007c-.256-.005-.325.054-.324.317.011,2.174.007,4.35.007,6.524Z" fill="#a8a8a8"/></g></svg>