<svg xmlns="http://www.w3.org/2000/svg" width="28.914" height="20.653" viewBox="0 0 28.914 20.653"><path d="M1131.085,659.6q-4.459,0-8.92,0a5.465,5.465,0,0,1-5.537-5.526q-.012-4.727-.005-9.451a5.469,5.469,0,0,1,5.592-5.667c.964-.012,1.928,0,2.891,0q7.37,0,14.738,0a5.463,5.463,0,0,1,5.423,3.85,5.614,5.614,0,0,1,.253,1.589c.023,3.256.018,6.512.009,9.768a5.443,5.443,0,0,1-5.453,5.437C1137.079,659.607,1134.082,659.6,1131.085,659.6Zm-3.772-14.715v8.835l7.541-4.417Z" transform="translate(-1116.622 -638.951)" fill="#fff"/></svg>