<?xml version="1.0" encoding="utf-8"?><svg xmlns="http://www.w3.org/2000/svg" width="34.154" height="35.398" viewBox="0 0 34.154 35.398"><g fill="#a8a8a8"><path data-name="Path 580" d="M6.499 35.398a3.523 3.523 0 01-1.808-1 3.032 3.032 0 01-.818-2.066v-1.538h26.46a14.9 14.9 0 01-.191 2.349 2.9 2.9 0 01-2.295 2.191 2.026 2.026 0 00-.192.069z"/><path data-name="Path 581" d="M17.079 28.692H3.22a3.091 3.091 0 01-3.218-3.215V13.243a3.09 3.09 0 013.217-3.216h27.717a3.089 3.089 0 013.218 3.214v12.234a3.092 3.092 0 01-3.216 3.216q-6.93.002-13.859.001zm-3.251-9.406h.018v3.661a1.054 1.054 0 001.2 1.207c.7 0 1.4 0 2.106-.018a3.581 3.581 0 002.928-1.5 5.674 5.674 0 00.69-5.476 3.72 3.72 0 00-3.417-2.681c-.755-.063-1.518-.023-2.278-.024a1.093 1.093 0 00-1.252 1.244q.003 1.791.004 3.587zm-6.771 1.669h1.217a3.286 3.286 0 003.2-2.792 3.135 3.135 0 00-2.42-3.556 15.547 15.547 0 00-3.192-.119.962.962 0 00-.882 1.059q0 3.87.018 7.74a1.033 1.033 0 102.056-.032c.007-.748.007-1.495.007-2.3zm18.8-.69c.652 0 1.26.005 1.869 0a1.018 1.018 0 00.07-2.034c-.264-.021-.53-.011-.795-.012h-1.127v-1.756c.082-.005.148-.014.215-.014.622 0 1.245.013 1.866-.007a1.033 1.033 0 10-.057-2.061h-3.007a1.048 1.048 0 00-1.108 1.1c-.007.357 0 .715 0 1.071v6.534a1.089 1.089 0 00.67 1.1 1.037 1.037 0 001.4-1.04c.008-.941.008-1.886.008-2.88z"/><path data-name="Path 582" d="M29.966 7.941H3.872v-.329-4.458A3.088 3.088 0 017.046 0H20.8a4.928 4.928 0 013.656 1.521c1.527 1.568 3.022 3.166 4.521 4.76a4.68 4.68 0 01.989 1.66z"/><path data-name="Path 583" d="M15.914 22.098v-5.609a13.858 13.858 0 011.767.14 1.568 1.568 0 011.1 1.061 4.089 4.089 0 01.006 3.155 1.87 1.87 0 01-1.843 1.253h-1.03z"/><path data-name="Path 584" d="M7.065 18.908v-2.372a13.128 13.128 0 011.377.009 1.211 1.211 0 011.013 1.181 1.235 1.235 0 01-1.013 1.149 2.445 2.445 0 01-.377.031c-.318.005-.64.002-1 .002z"/></g></svg>