<?xml version="1.0" encoding="utf-8"?><svg xmlns="http://www.w3.org/2000/svg" width="20.653" height="20.653" viewBox="0 0 20.653 20.653"><path d="M-.003 15.527V5.122c.032-.177.056-.355.1-.53A5.6 5.6 0 014.204.198c.3-.088.611-.133.917-.2h10.405c.346.074.7.132 1.038.225a5.654 5.654 0 014.083 5.426c.006 3.112.012 6.224-.009 9.335a6.407 6.407 0 01-.224 1.586 5.627 5.627 0 01-5.407 4.075c-3.119.007-6.237.012-9.356-.008a5.665 5.665 0 01-5.483-4.288c-.071-.268-.113-.547-.171-.822zm10.323.45a5.652 5.652 0 10-5.651-5.663 5.653 5.653 0 005.654 5.663zm7.711-11.652a1.709 1.709 0 10-1.716 1.707 1.7 1.7 0 001.719-1.707z" fill="#fff"/><path d="M14.766 10.329a4.442 4.442 0 11-4.438-4.447 4.438 4.438 0 014.438 4.447zM16.825 4.322a.518.518 0 01-.494.509.541.541 0 01-.513-.518.518.518 0 01.512-.49.5.5 0 01.495.499z" fill="#fff"/></svg>