<?xml version="1.0" encoding="utf-8"?><svg xmlns="http://www.w3.org/2000/svg" width="138.854" height="26.952" viewBox="0 0 138.854 26.952"><path d="M0 26.426L5.355.546h17.479l-1.072 5.176H9.795l-.954 4.606h9.214l-1.071 5.176H7.77L5.51 26.425zM45.367.546l-.974 5.176h-7.864l-3.9 20.7h-5.012l3.9-20.7h-7.87l.974-5.176zM67.497 13.452c-1.836 8.873-8.138 13.453-14.615 13.453s-10.873-4.624-9.046-13.453C45.623 4.818 51.973 0 58.451 0c6.786 0 10.796 4.996 9.046 13.452zm-5.354 0c1.147-5.539-1.119-8.095-4.8-8.095s-7.012 2.586-8.152 8.095c-1.15 5.558 1.111 8.1 4.8 8.1 3.714-.004 6.998-2.542 8.152-8.1zM88.433 26.418h-6.295l-2.988-9.314h-4.537l-1.929 9.322h-5.51L72.53.543 84.018.532c5.415 0 7.861 4.079 6.979 8.34a10.6 10.6 0 01-6.363 7.647zm-6.375-14.336a4.117 4.117 0 004.127-3.209 2.613 2.613 0 00-2.775-3.319h-6.407l-1.351 6.528zM108.779 19.301c-.7 3.371-3.874 7.651-10.574 7.651-5.964 0-8.087-4.435-7.3-8.221h2.516c-.567 2.735 1.337 5.6 5.584 5.6 4.549 0 6.777-2.624 7.339-5.338 1.511-7.3-14.53-1.585-12.344-12.152.788-3.807 4.373-6.83 9.652-6.83 4.949 0 7.357 3.179 6.435 7.63h-2.517c.59-2.853-1.028-5-4.462-5-3.376 0-6.023 1.476-6.608 4.3-1.592 7.684 14.438 1.914 12.279 12.36zM110.265 26.426L115.624.531h2.529l-5.359 25.895zM137.637 16.989c-2.346 7.263-7.247 9.952-11.428 9.952-6.028 0-8.992-5.286-7.556-13.466a18.96 18.96 0 014.7-10.054 10.639 10.639 0 017.583-3.413c4.949 0 7.842 3.482 7.914 9.325h-2.2c-.261-4.9-3.105-6.7-6.176-6.7-3.819 0-8.323 3.074-9.688 10.841-1.407 8.009 2.06 10.84 5.878 10.84 3.976 0 7.1-2.6 8.779-7.326z" fill="#fff"/></svg>