<?xml version="1.0" encoding="utf-8"?><svg xmlns="http://www.w3.org/2000/svg" width="132.055" height="28.848" viewBox="0 0 132.055 28.848"><g fill="#a8a8a8"><path d="M80.59 28.846a24.359 24.359 0 01-14.555-4.4 13.011 13.011 0 01-5.247-7.1c-1.144-4.206.082-7.837 3.018-10.934A20.637 20.637 0 0175.735.453a26.515 26.515 0 0116.109 2.031A17.339 17.339 0 0197.601 6.7c4.532 5.163 4.14 11.815-.94 16.449a22.162 22.162 0 01-11.585 5.336 24.513 24.513 0 01-4.486.361zm-.225-6.75a22.668 22.668 0 004.271-.4 17.941 17.941 0 003.17-.929 11.309 11.309 0 005.3-3.82 4.019 4.019 0 00-.019-5.046 9.137 9.137 0 00-2.98-2.657 19.247 19.247 0 00-13.111-2.141 15.1 15.1 0 00-7.866 3.547c-2.468 2.2-2.62 4.715-.407 7.151a8.509 8.509 0 001.292 1.15 17.7 17.7 0 0010.355 3.143zM14.303 28.836a14.435 14.435 0 11.107 0zm.057-22.045a7.65 7.65 0 107.658 7.642v-.011a7.676 7.676 0 00-7.659-7.631zM125.277 15.236c0-3.822-.015-7.45.006-11.078a3.364 3.364 0 014.931-3.1 3.314 3.314 0 011.838 3.161v22.41c0 .58.085 1.2-.589 1.5-.612.266-1.039-.129-1.479-.477q-8.5-6.75-17.01-13.485c-.183-.143-.371-.282-.567-.43-.216.215-.112.462-.113.676-.008 3.393 0 6.786-.006 10.179a3.392 3.392 0 11-6.77.013q-.006-11.246 0-22.489c0-.544-.005-1.084.587-1.342.538-.235.943.048 1.354.376q8.468 6.726 16.946 13.433c.233.185.483.361.872.653zM43.739 21.463h11.138a3.377 3.377 0 11.04 6.738q-11.262.02-22.524.009c-.5 0-.965-.047-1.193-.565a1.22 1.22 0 01.309-1.3q6.9-9.078 13.789-18.168c.153-.2.293-.415.447-.634a1.47 1.47 0 00-.889-.113c-2.793-.007-5.585.013-8.378-.011a3.373 3.373 0 01-.959-6.627 4.48 4.48 0 011.254-.109h20.232c.525 0 1.067-.053 1.371.535s-.04.994-.363 1.419q-6.848 9.021-13.689 18.045c-.16.204-.312.414-.585.781z"/></g></svg>