<?xml version="1.0" encoding="utf-8"?><svg xmlns="http://www.w3.org/2000/svg" width="30.09" height="35.398" viewBox="0 0 30.09 35.398"><g fill="#a8a8a8"><path d="M24.123 0H5.969A5.976 5.976 0 000 5.97v23.457a5.975 5.975 0 005.969 5.968h18.154a5.975 5.975 0 005.968-5.968V5.97A5.977 5.977 0 0024.123 0zm2.217 29.427a2.213 2.213 0 01-2.213 2.213H5.973a2.215 2.215 0 01-2.213-2.213V5.969a2.217 2.217 0 012.213-2.214h12.36l8.006 8.006z"/><path d="M9.014 13.858H6.098a.282.282 0 00-.282.282v7.121a.281.281 0 00.282.282h1.283a.281.281 0 00.282-.282V18.72h1.5a2.615 2.615 0 001.845-.679 2.465 2.465 0 00.061-3.466 2.733 2.733 0 00-2.055-.717zm.825 2.41a.734.734 0 01-.224.572 1.018 1.018 0 01-.714.216H7.665v-1.574h1.121a1.184 1.184 0 01.839.223.793.793 0 01.213.562zM15.091 13.857h-2.622a.282.282 0 00-.282.282v7.121a.281.281 0 00.282.282h2.337a3.58 3.58 0 002.808-1.112 3.944 3.944 0 00.979-2.718 4.068 4.068 0 00-.949-2.727 3.211 3.211 0 00-2.553-1.128zm1.544 3.782a2.487 2.487 0 01-.524 1.733 1.629 1.629 0 01-1.255.557h-.787v-4.5h.939a1.353 1.353 0 011.156.606 2.668 2.668 0 01.465 1.6zM19.498 21.542h1.32a.281.281 0 00.282-.282v-2.723h2.229a.281.281 0 00.282-.282v-1.07a.282.282 0 00-.282-.282h-2.231v-1.381h2.9a.281.281 0 00.282-.282v-1.1a.282.282 0 00-.282-.282h-4.5a.282.282 0 00-.282.282v7.121a.281.281 0 00.282.281z"/></g></svg>