<?xml version="1.0" encoding="utf-8"?><svg xmlns="http://www.w3.org/2000/svg" width="24.803" height="20.653" viewBox="0 0 24.803 20.653"><path d="M24.803.949v.725a.321.321 0 00-.044.081l-1.433 6.74q-1.077 5.055-2.164 10.107a8.3 8.3 0 01-.386 1.387.976.976 0 01-1.259.615 2.32 2.32 0 01-.716-.334c-1.329-.954-2.646-1.925-3.967-2.891l-1.606-1.173c-.071.065-.132.116-.189.171l-2.734 2.6a1.231 1.231 0 01-.982.384v-.133q.087-1.241.176-2.481c.068-.972.132-1.944.212-2.915a.573.573 0 01.163-.349q4.344-3.908 8.7-7.8c.577-.517 1.156-1.031 1.722-1.559.079-.073.094-.216.139-.327a.914.914 0 00-.356-.074 1.6 1.6 0 00-.507.213c-4.108 2.561-8.22 5.116-12.312 7.7a1.6 1.6 0 01-1.544.207c-1.6-.549-3.221-1.017-4.833-1.519a1.378 1.378 0 01-.881-.625V9.36a2.3 2.3 0 011.235-.868l11.722-4.481Q18.02 2.077 23.082.145a1.13 1.13 0 011.709.782.061.061 0 00.012.022z" fill="#fff"/></svg>