<?xml version="1.0" encoding="utf-8"?><svg xmlns="http://www.w3.org/2000/svg" width="35.36" height="20.653" viewBox="0 0 35.36 20.653"><path d="M.004.724a1.076 1.076 0 011.078-.7q2.157-.009 4.314 0a1.337 1.337 0 011.293.871c.282.652.517 1.325.783 1.984a30.768 30.768 0 003.7 6.866 11.048 11.048 0 00.887 1.056 4.136 4.136 0 00.766.638c.622.4 1.059.194 1.175-.529a5.216 5.216 0 00.032-.792V4.766a4.284 4.284 0 00-1.007-2.9 3.37 3.37 0 01-.385-.528.86.86 0 01.6-1.3A2.6 2.6 0 0113.755 0h5.593c.115 0 .231 0 .345.011a.918.918 0 01.953.966c.018.24.023.482.024.724v6.9a5.493 5.493 0 00.04.654c.087.692.564.97 1.139.574a8.5 8.5 0 001.563-1.388 25.812 25.812 0 003.443-5.31c.34-.664.659-1.34.962-2.022a1.636 1.636 0 011.56-1.1 129.24 129.24 0 014.314.021c.774.022 1.139.5.887 1.229a13.216 13.216 0 01-1.152 2.6c-1.249 2.037-2.572 4.029-3.9 6.018-.739 1.109-.723 1.377.186 2.344 1.41 1.5 2.808 3.011 4.172 4.553a12.493 12.493 0 011.135 1.683 2.6 2.6 0 01.279.7 1.048 1.048 0 01-1 1.446c-.3.028-.6.033-.9.034-1.036 0-2.072-.018-3.107.008a2.482 2.482 0 01-1.946-.8c-.756-.79-1.475-1.618-2.265-2.371a40.115 40.115 0 00-2.626-2.283 2.875 2.875 0 00-1.888-.742c-.579.016-.827.215-.853.8-.039.908-.043 1.817-.056 2.725-.006.437.017.875 0 1.312a1.038 1.038 0 01-.926 1.148 9.741 9.741 0 01-1.949.181 13.264 13.264 0 01-8.027-3.066 21.1 21.1 0 01-4.457-5A39.181 39.181 0 01.723 3.93C.455 3.188.279 2.413.059 1.654a.527.527 0 00-.064-.113z" fill="#fff"/></svg>