<?xml version="1.0" encoding="utf-8"?><svg xmlns="http://www.w3.org/2000/svg" width="20.64" height="20.653" viewBox="0 0 20.64 20.653"><path d="M.55 20.106a1371.897 1371.897 0 011.344-3.537.323.323 0 00-.033-.342A9.721 9.721 0 01.024 9.858 10.086 10.086 0 016.509.745a9.5 9.5 0 014.273-.732 10.314 10.314 0 012.129 20.288 10.027 10.027 0 01-8.078-1.251.441.441 0 00-.4-.052q-1.828.534-3.661 1.058c-.058.018-.122.028-.222.05zm12.9-3.993a1.779 1.779 0 001.356-.53c.3-.31.611-.6.914-.9a1.188 1.188 0 00.024-1.712 64.27 64.27 0 00-1.567-1.566 1.061 1.061 0 00-1.791.4 1.045 1.045 0 01-1.342.658 4.748 4.748 0 01-2.884-2.8 1.029 1.029 0 01.665-1.45 1.056 1.056 0 00.385-1.75 66.878 66.878 0 00-1.62-1.62 1.089 1.089 0 00-1.559.01c-.355.346-.7.7-1.052 1.049a1.422 1.422 0 00-.4.844 3.715 3.715 0 00.387 2.1 14.346 14.346 0 006.309 6.616 5.064 5.064 0 002.175.651z" fill="#fff"/></svg>