<?xml version="1.0" encoding="utf-8"?><svg xmlns="http://www.w3.org/2000/svg" width="18" height="19" viewBox="0 0 18 19"><g fill="#fff"><path d="M0 18.998l.044-.145 1.524-4.74a.171.171 0 00-.016-.151 9.4 9.4 0 01-1.056-2.878 9.55 9.55 0 01-.149-1.16 9.57 9.57 0 01-.008-1.231 9.5 9.5 0 011.022-3.794A8.96 8.96 0 016.628.384 8.211 8.211 0 017.89.094 8.434 8.434 0 019.471.005a8.406 8.406 0 015.044 1.89 9.171 9.171 0 013.236 5.186 9.329 9.329 0 01.215 1.389 9.241 9.241 0 01.02 1.253 9.36 9.36 0 01-1.937 5.329 8.742 8.742 0 01-4.122 3 8.224 8.224 0 01-1.309.337 8.314 8.314 0 01-1.572.126 8.453 8.453 0 01-4.1-1.119.138.138 0 00-.125-.01l-4.77 1.6zm5.114-3.314l.078.052a7.078 7.078 0 003.8 1.221 6.947 6.947 0 001.032-.054 6.563 6.563 0 00.9-.171 7.221 7.221 0 003.788-2.444 7.778 7.778 0 001.78-4.556 7.831 7.831 0 00-.035-1.363 7.763 7.763 0 00-.267-1.348 7.635 7.635 0 00-2.373-3.723A7.054 7.054 0 009.271 1.55a6.8 6.8 0 00-1.095.07 6.429 6.429 0 00-1.151.263 7.4 7.4 0 00-4.344 3.739 7.726 7.726 0 00-.853 3.08 7.88 7.88 0 00-.007.971 7.987 7.987 0 00.136 1.117 7.821 7.821 0 001.218 2.927.122.122 0 01.014.121q-.434 1.344-.865 2.689a2.256 2.256 0 00-.028.1z"/><path d="M4.518 7.005a2.591 2.591 0 01.556-1.625 4.353 4.353 0 01.4-.421.874.874 0 01.741-.222 3.431 3.431 0 00.377.024.35.35 0 01.319.167 1.529 1.529 0 01.132.264l.551 1.487c.039.1.079.208.122.31a.471.471 0 01-.02.413 2.549 2.549 0 01-.436.578c-.068.075-.141.146-.212.218l-.026.026a.3.3 0 00-.061.4 6.409 6.409 0 002.42 2.579c.158.092.322.172.484.257.078.041.159.08.239.118a.948.948 0 00.109.047.312.312 0 00.347-.078c.062-.063.123-.129.183-.2.222-.246.446-.491.647-.755a.3.3 0 01.379-.12 1.708 1.708 0 01.266.111c.495.258.988.52 1.481.781l.2.109c.039.022.076.045.114.068a.264.264 0 01.129.235 1.871 1.871 0 01-.05.471c-.03.132-.072.262-.11.392a1.162 1.162 0 01-.355.537 2.827 2.827 0 01-.719.467 2.059 2.059 0 01-.5.169c-.092.017-.186.024-.279.038-.056.008-.111.021-.168.03a1.751 1.751 0 01-.723-.083 10.648 10.648 0 01-1.308-.473 8.946 8.946 0 01-1.012-.474 8.018 8.018 0 01-1.74-1.364 11.535 11.535 0 01-1.549-1.981c-.148-.237-.306-.468-.434-.717a4.627 4.627 0 01-.432-1.164 3 3 0 01-.062-.619z"/></g></svg>