<?xml version="1.0" encoding="utf-8"?><svg xmlns="http://www.w3.org/2000/svg" width="132.055" height="15.593" viewBox="0 0 132.055 15.593"><g fill="#a8a8a8"><path d="M10.233 4.163L8.704 9.497q-.775 2.7-1.553 5.4c-.116.4-.118.4-.55.4-.772 0-1.544-.007-2.316.011a.316.316 0 01-.372-.248v-.036Q2.383 9.272.837 3.524c-.268-1-.53-2.009-.809-3.009C-.031.305.018.257.223.261c.716.008 1.433.013 2.149 0 .206 0 .264.082.309.258q1.361 5.094 2.73 10.187c.091.339.182.679.3 1.1.215-.739.413-1.394.593-2.054.2-.72.391-1.442.588-2.161.184-.668.387-1.335.6-2 .224-.714.413-1.439.622-2.158.29-1 .587-2 .874-3a.189.189 0 01.211-.165c.717 0 1.433.007 2.15 0 .175 0 .184.111.217.227l1.782 6.206 1.395 4.868c.023.077.052.154.1.288l.634-2.361q1.206-4.5 2.409-9.006c.042-.157.105-.226.28-.223q1.089.015 2.177 0c.226 0 .236.076.186.263q-1.956 7.269-3.9 14.541a.269.269 0 01-.293.244h-.028a86.026 86.026 0 00-2.54 0 .306.306 0 01-.355-.248v-.024q-1.512-5.31-3.04-10.618a.4.4 0 00-.14-.262zM62.566 7.511a4.338 4.338 0 011.341 1.136 4.155 4.155 0 01-.851 5.681 4.479 4.479 0 01-2.762.971c-2.121.008-4.242 0-6.363.01-.175 0-.239-.037-.239-.227q.008-7.29 0-14.581c0-.165.039-.224.216-.223 2.047.01 4.1-.045 6.139.035a4.081 4.081 0 013.653 2.4 3.852 3.852 0 01-1 4.67c-.043.039-.08.078-.134.128zm-4.261 5.5h1.785a2.111 2.111 0 00.064-4.221c-1.255-.02-2.511 0-3.766-.008-.168 0-.224.046-.223.219q.009 1.895 0 3.789c0 .2.073.228.245.226.631-.009 1.263 0 1.9 0zm-2.137-8.456c0 .585.008 1.17 0 1.755 0 .193.051.252.248.25 1.06-.009 2.12 0 3.18-.006a2.3 2.3 0 00.5-.043 1.932 1.932 0 001.514-2.077 1.909 1.909 0 00-1.941-1.836c-1.087-.017-2.175 0-3.263-.008-.185 0-.238.056-.235.237.011.576 0 1.152 0 1.728zM38.247 7.806c0-2.4 0-4.811-.005-7.217 0-.237.047-.316.3-.314 1.972.013 3.943 0 5.915.016A7.133 7.133 0 0151.24 6.24a7.866 7.866 0 01-.574 4.9 6.832 6.832 0 01-6.345 4.154c-1.934.036-3.87 0-5.8.012-.224 0-.276-.063-.275-.278.004-2.41.001-4.815.001-7.222zm2.494.007v4.9c0 .2.051.249.247.248 1.135-.01 2.27.012 3.4-.012a4.382 4.382 0 003.8-2.167 5.692 5.692 0 00.7-4.13 4.655 4.655 0 00-4.462-3.976c-1.125-.019-2.25 0-3.375-.017-.237 0-.314.049-.312.3.008 1.622.002 3.238.002 4.854zM74.085 12.942c.6 0 1.208.011 1.811 0 .185 0 .26.033.255.239q-.021.932 0 1.865c0 .2-.041.273-.258.267-.51-.014-1.021 0-1.532 0-.111-.005-.223-.014-.334-.014H67.3c-.217 0-.3-.032-.3-.28q.012-7.236 0-14.471c0-.248.087-.284.3-.282 2.187.007 4.373.005 6.56.005.111 0 .223-.009.334-.014.546 0 1.094.011 1.64.005.152 0 .209.035.206.2q-.014.985 0 1.972c0 .166-.058.2-.208.2-.6-.005-1.2 0-1.808.005l-4.374-.014c-.13 0-.18.039-.179.173q.006 1.782 0 3.564c0 .134.051.174.182.173q2.244-.011 4.487-.013c.381 0 .762.014 1.143 0 .173-.005.219.049.218.219-.006.7 0 1.393.007 2.089a.07.07 0 00-.03.043l-1.174.01-4.653-.014c-.131 0-.181.038-.18.173q.006 1.866 0 3.731c0 .135.052.174.183.174l4.431-.005zM27.844 7.783c0-2.407 0-4.813-.006-7.22 0-.236.067-.3.295-.289q.936.024 1.87 0c.242-.006.31.054.31.3q-.015 4.88-.007 9.757c0 .781.009 1.562-.005 2.342 0 .224.064.275.28.275 1.851-.009 3.7 0 5.554-.011.249 0 .314.066.306.309-.018.6-.011 1.208 0 1.812 0 .172-.033.241-.227.241q-4.075-.011-8.15 0c-.236 0-.22-.116-.22-.273V7.783zM22.398 7.771c0-2.388 0-4.776-.005-7.164 0-.243.045-.34.316-.331.641.021 1.284.017 1.925 0 .232-.006.3.062.3.294q-.011 5.059-.005 10.119v4.35c0 .2-.037.273-.258.268q-.977-.024-1.953 0c-.249.006-.326-.054-.325-.316.009-2.409.005-4.82.005-7.22zM99.45 9.471l3.412 5.835h-1.512c-.335 0-.67-.01-1 0a.338.338 0 01-.349-.2c-.972-1.688-1.953-3.37-2.923-5.059a.383.383 0 00-.389-.226c-.791.012-1.582.014-2.373 0-.227 0-.3.049-.3.287.011 1.624 0 3.252.014 4.877 0 .28-.08.336-.34.326a39.851 39.851 0 00-1.925 0c-.176 0-.216-.052-.216-.22q.008-7.3 0-14.606c0-.133 0-.225.182-.224 2.084.012 4.169-.033 6.25.037a4.745 4.745 0 014.408 4.245 4.672 4.672 0 01-2.754 4.835c-.052.032-.11.057-.185.093zm-5.426-4.375c0 .743.009 1.486-.005 2.228 0 .227.051.3.288.3 1.079-.012 2.157-.005 3.235-.006a2.261 2.261 0 00.526-.051 2.493 2.493 0 001.85-2.717 2.428 2.428 0 00-2.371-2.258c-1.1-.015-2.194 0-3.291-.009-.211 0-.238.077-.235.258.008.752.003 1.505.003 2.257zM89.626 15.308h-2.568c-.132 0-.168-.085-.22-.174-.985-1.692-1.976-3.381-2.954-5.076a.4.4 0 00-.416-.232c-.772.012-1.545.014-2.316 0-.244-.005-.326.045-.324.309.015 1.627 0 3.253.013 4.879 0 .223-.042.3-.284.3q-.961-.027-1.926 0c-.222.005-.275-.062-.274-.278q.009-5.117 0-10.233V.538c0-.137-.036-.269.2-.268 2.009.011 4.019 0 6.029.015a4.526 4.526 0 013.765 2.053 4.7 4.7 0 01-1.874 7.033c-.228.1-.177.185-.088.338q1.553 2.64 3.1 5.283a.729.729 0 01.137.316zM80.835 5.115c0 .752.009 1.505-.006 2.257 0 .216.064.26.267.258 1.06-.01 2.12 0 3.181 0a2.6 2.6 0 00.609-.058 2.478 2.478 0 001.822-2.76 2.416 2.416 0 00-2.383-2.211c-1.088-.014-2.176 0-3.264-.006-.189 0-.232.06-.23.238.01.758.004 1.52.004 2.282zM126.728 15.593a6.683 6.683 0 01-3.923-1.135 5.051 5.051 0 01-1.831-2.365c-.055-.141-.061-.224.093-.31.6-.338 1.2-.689 1.789-1.043.137-.082.192-.071.254.086.728 1.85 2.26 2.47 4.15 2.323a3.471 3.471 0 001.435-.407 1.741 1.741 0 00.061-2.98 13.116 13.116 0 00-2.689-1.05 12.719 12.719 0 01-2.65-1.072 3.414 3.414 0 01-1.851-2.685 3.994 3.994 0 011.463-3.843 5.14 5.14 0 013.23-1.106 5.593 5.593 0 013.777 1.248 5.825 5.825 0 011.472 1.835c.083.161.085.243-.1.341-.562.3-1.119.619-1.661.956-.2.125-.254.059-.339-.113a3.333 3.333 0 00-4.277-1.636 1.744 1.744 0 00-1.028 2.24 1.784 1.784 0 00.1.222 2.07 2.07 0 00.916.788 16.377 16.377 0 002.37.883 15.025 15.025 0 012.527 1.012 4.047 4.047 0 01.3 6.831 6.249 6.249 0 01-3.588.98zM110.046 7.791c0-2.407 0-4.813-.005-7.22 0-.227.051-.3.288-.3q4.242.012 8.485 0c.221 0 .279.06.274.276q-.023.906 0 1.812c.005.213-.046.279-.272.278-2-.01-4 0-6-.011-.237 0-.315.046-.311.3.016 1.1.013 2.192 0 3.289 0 .245.048.328.314.326 1.806-.013 3.611 0 5.415-.014.267 0 .318.082.312.325a34.19 34.19 0 000 1.783c0 .2-.06.246-.252.245-1.823-.006-3.647 0-5.47-.01-.258 0-.322.068-.319.321.014 1.161.012 2.323 0 3.485 0 .22.059.277.278.276 2.038-.008 4.075 0 6.113-.012.254 0 .307.069.3.308a36.41 36.41 0 000 1.84c0 .174-.051.218-.219.218q-4.355-.008-8.708 0c-.232 0-.222-.113-.222-.274l-.001-7.241zM107.134 7.798c0 2.407 0 4.814.005 7.221 0 .221-.038.3-.282.295a33.433 33.433 0 00-1.9 0c-.228.006-.3-.047-.294-.285.013-1.3.006-2.6.006-3.9 0-3.5 0-7.006-.008-10.51 0-.3.091-.364.37-.355.6.02 1.209.018 1.813 0 .232-.007.294.054.293.289-.006 2.413-.003 4.829-.003 7.245z"/></g></svg>