<?xml version="1.0" encoding="utf-8"?><svg xmlns="http://www.w3.org/2000/svg" width="132.054" height="25.511" viewBox="0 0 132.054 25.511"><g fill="#a8a8a8"><path d="M0 20.554a3.685 3.685 0 00.558-1.1c.413-.887.852-1.763 1.242-2.659.439-1.013.97-1.984 1.362-3.021.129-.342.321-.662.464-1 .165-.394.157-.465-.219-.662a4.931 4.931 0 01-2.227-2.7 8.114 8.114 0 01-.4-3.766 6.2 6.2 0 011.684-3.923A5.422 5.422 0 014.928.294 8.664 8.664 0 017.402.016c.792.012 1.584.02 2.375-.006.345-.011.413.11.413.429q-.014 9.93-.007 19.859c0 .612 0 .612-.633.612-.447 0-.9-.01-1.342.007-.23.008-.286-.074-.285-.3.008-2.393.005-4.787.007-7.181 0-.531 0-.531-.541-.531-.356 0-.712.013-1.067 0a.414.414 0 00-.44.3c-.646 1.449-1.308 2.89-1.942 4.344-.454 1.041-.9 2.084-1.369 3.119a.341.341 0 01-.372.246c-.734-.005-1.468 0-2.2-.005zM7.912 6.53V4.402c0-.7-.005-1.39 0-2.085 0-.275-.064-.428-.387-.4s-.665-.005-1 .01a3.159 3.159 0 00-2.864 1.837 5.251 5.251 0 00-.519 1.93 7.175 7.175 0 00.446 3.621 2.814 2.814 0 001.9 1.618 7.894 7.894 0 002.01.152c.307.009.417-.071.413-.4-.018-1.384-.007-2.769-.008-4.153zM31.661 12.677c0 2.061.005 4.123-.007 6.184 0 .211.055.253.242.245.253-.011.506.006.756-.006.153-.007.193.045.193.193q-.008 2.148 0 4.295c0 .171-.057.208-.216.205a38.04 38.04 0 00-1.548 0c-.195.005-.25-.052-.247-.247.011-.79 0-1.58.008-2.37 0-.228-.064-.285-.29-.284q-2.925.012-5.851 0c-.211 0-.27.048-.266.263.015.79 0 1.581.011 2.371 0 .2-.034.278-.258.269a21.48 21.48 0 00-1.48 0c-.193 0-.279-.023-.277-.253q.018-2.1 0-4.191c0-.23.079-.253.276-.251.627.012.633.006.848-.578a17.907 17.907 0 00.894-3.807 49.266 49.266 0 00.363-5.319c.026-.983.019-1.966.029-2.948 0-.215.057-.264.267-.264q3.132.014 6.264 0c.254 0 .3.082.293.311-.007 2.059-.004 4.121-.004 6.182zm-2.228.835V8.29c0-.223-.039-.319-.3-.311-.688.02-1.377.014-2.065 0-.184 0-.232.052-.233.229 0 .56-.008 1.121-.025 1.68-.038 1.3-.1 2.6-.228 3.9a20.725 20.725 0 01-1.05 5.034c-.067.183-.08.258.161.256 1.159-.013 2.317-.015 3.476 0 .261 0 .261-.122.26-.311l.004-5.255zM70.629 2.316v.779c-.022 1.291-.031 2.583-.072 3.874-.054 1.676-.133 3.351-.2 5.026-.043 1.013-.091 2.029-.135 3.043q-.1 2.466-.208 4.931a2.068 2.068 0 01-.049.3c-.039.206.1.544-.078.6a3.23 3.23 0 01-1.025.02c-.133-.007-.068-.145-.065-.225.062-1.321.134-2.642.191-3.964.058-1.367.087-2.735.158-4.1.082-1.55.141-3.1.207-4.651.046-1.083.089-2.167.14-3.25.048-1.013.084-2.026.141-3.039.029-.479.043-.957.055-1.435.005-.2.08-.222.241-.219.368.007.734.012 1.1 0a.253.253 0 01.3.2V.24q1.409 5.849 2.828 11.694a33.984 33.984 0 01.737 3.782.632.632 0 00.042.117c.192-.181.126-.417.155-.6a57.426 57.426 0 011.337-5.835c.744-3.039 1.516-6.068 2.265-9.106.055-.223.142-.29.361-.28.355.017.712.014 1.067 0 .175-.006.231.043.236.224q.057 1.642.139 3.284c.084 1.607.149 3.214.211 4.821.039 1.013.087 2.026.133 3.039.073 1.608.15 3.214.209 4.823.037 1 .094 2 .138 3.006.022.49.055.979.062 1.47 0 .174-.03.247-.22.233a3.037 3.037 0 00-.688 0c-.376.061-.46-.127-.468-.443q-.033-1.371-.084-2.741c-.065-1.666-.122-3.332-.209-5-.05-.957-.084-1.915-.13-2.872-.117-2.454-.245-4.908-.2-7.366 0-.07.044-.188-.064-.2-.132-.012-.11.133-.119.2-.633 4.316-2 8.459-2.989 12.692-.169.73-.378 1.451-.546 2.182-.047.2-.132.245-.322.245-.845 0-.851.011-1.046-.77q-1.426-5.7-2.846-11.4a27.858 27.858 0 01-.52-2.951c-.014-.054-.022-.105-.17-.172zM13.151 13.536c0-2.335 0-4.671-.005-7.006 0-.253.042-.362.33-.348a15.422 15.422 0 001.583 0c.279-.014.309.089.308.328-.009 1.866 0 3.733-.012 5.6 0 .282.06.363.353.356.951-.02 1.9-.016 2.855 0 .238 0 .3-.054.3-.3-.011-1.878 0-3.757-.013-5.634 0-.29.073-.363.356-.349.527.024 1.055.015 1.583 0 .2-.005.274.035.274.259q-.012 7.077 0 14.153c0 .232-.056.321-.306.312q-.791-.027-1.582 0c-.251.01-.325-.049-.323-.315.014-1.98 0-3.961.015-5.942 0-.277-.053-.369-.349-.362-.952.021-1.9.016-2.857 0-.239 0-.3.058-.3.3.011 1.992 0 3.984.012 5.977 0 .266-.062.349-.334.338a16.073 16.073 0 00-1.583 0c-.286.015-.3-.1-.3-.333q.001-3.51-.005-7.034zM42.236 18.187c.161.535.3 1.026.457 1.515a.21.21 0 01-.081.282 5.309 5.309 0 01-6.13.282 5 5 0 01-1.7-2.49 10.533 10.533 0 01-.506-3.051 16.18 16.18 0 01.568-5.263 5.4 5.4 0 011.635-2.73 3.159 3.159 0 011.587-.733 3.546 3.546 0 012.752.616 4.115 4.115 0 011.369 2.079 10.988 10.988 0 01.509 2.955c.036.639.051 1.277.051 1.916 0 .458 0 .459-.443.459-1.8 0-3.6.007-5.4-.008-.292 0-.366.075-.346.357a8.63 8.63 0 00.73 3.539 2.324 2.324 0 002.37 1.224 9.633 9.633 0 001.363-.3 4.846 4.846 0 001.215-.649zm-3.684-5.956c.539 0 1.077-.016 1.614.007.273.012.336-.084.314-.332-.035-.4-.033-.8-.074-1.194a5.926 5.926 0 00-.46-1.984 1.317 1.317 0 00-2.34-.335 2.35 2.35 0 00-.414.7 10.358 10.358 0 00-.552 2.939c-.017.193.091.2.229.2.561-.002 1.122-.001 1.683-.001zM53.769 20.897h-2.272c-.152 0-.2-.1-.248-.194q-1.354-2.551-2.708-5.107c-.354-.666-.711-1.332-1.082-2.026a.5.5 0 00-.081.414c0 2.187-.008 4.374 0 6.561 0 .279-.056.372-.35.356a11.941 11.941 0 00-1.513 0c-.325.022-.361-.1-.361-.38q.014-6.459.006-12.916c0-.39.015-.779-.006-1.168-.012-.224.067-.263.27-.258.549.014 1.1.018 1.652 0 .241-.008.3.055.3.3-.01 2.026-.005 4.052-.005 6.08v.172c0 .057-.039.153.045.179.105.033.123-.069.158-.137l1.516-2.9q.916-1.759 1.825-3.521c.049-.094.087-.169.222-.169.685.008 1.371 0 2.1 0l-1.013 1.916c-.844 1.595-1.682 3.191-2.535 4.779a.526.526 0 00.067.567l3.006 5.6c.34.609.664 1.209 1.007 1.852zM95.977 19.922v.556c0 1.568-.007 3.137.01 4.705 0 .286-.091.345-.344.324a3.588 3.588 0 00-.687 0c-.253.027-.291-.077-.291-.305q.009-9.344 0-18.686c0-.283.084-.338.346-.332.822.013.816 0 .835.844.01.443.042.886.067 1.329 0 .06-.035.146.062.168s.1-.071.124-.126a6.5 6.5 0 01.791-1.224 2.951 2.951 0 015.065.345 8.629 8.629 0 011.112 3.443 15.322 15.322 0 01.127 3 11.983 11.983 0 01-1.077 4.858 4.08 4.08 0 01-2.165 2.093 3.394 3.394 0 01-3.841-.941c-.021-.019-.059-.019-.134-.051zm.011-5.721v3.812a.923.923 0 00.031.335 2.7 2.7 0 002.231 1.788 2.36 2.36 0 002.542-1.29 8.309 8.309 0 00.959-3.423 19.612 19.612 0 00.012-4.139 7.841 7.841 0 00-.855-3 1.975 1.975 0 00-2.944-.854 5.433 5.433 0 00-1.961 2.654.85.85 0 00-.015.306v3.81zM61.783 18.414c.155.495.293.962.451 1.422a.268.268 0 01-.092.351 4.415 4.415 0 01-2.78.967 4.473 4.473 0 01-4.209-2.463 9.478 9.478 0 01-.974-3.662 15.176 15.176 0 01.15-3.681 6.687 6.687 0 011.969-4.188 4.322 4.322 0 012.617-1.111 4.964 4.964 0 012.927.571.329.329 0 01.212.413c-.115.591-.174 1.19-.261 1.827a4.36 4.36 0 00-1.36-.78 2.343 2.343 0 00-3.226 1.412 7.858 7.858 0 00-.622 2.605 14.47 14.47 0 00-.053 1.986 9.851 9.851 0 00.658 3.645 2.278 2.278 0 002.074 1.568 3.485 3.485 0 002.406-.808c.025-.019.054-.034.113-.074zM84.542 8.589c-.109-.357-.211-.7-.318-1.046a.251.251 0 01.093-.271 4.463 4.463 0 013.892-1.3 4 4 0 011.562.46A3.26 3.26 0 0191.29 8.74a8.291 8.291 0 01.148 1.7c-.008 2.634 0 5.268-.005 7.9a10.7 10.7 0 00.253 2.339c.046.211.048.326-.218.291a3.331 3.331 0 00-.447 0c-.5 0-.51 0-.608-.5-.089-.455-.155-.914-.232-1.373-.144-.018-.161.1-.207.185a3.44 3.44 0 01-3.564 1.879 2.911 2.911 0 01-2.426-2.045 5.663 5.663 0 01.45-5.2 3.717 3.717 0 012.307-1.526 11.382 11.382 0 013.07-.211c.253 0 .338-.045.321-.311-.049-.866.059-1.737-.072-2.6-.273-1.818-1.407-2.368-3.014-2.146a3.514 3.514 0 00-2.406 1.406.465.465 0 01-.098.061zm5.582 6.664v-1.888c0-.169-.031-.244-.223-.236a21.667 21.667 0 00-2.335.066 2.7 2.7 0 00-2.319 1.625 5.13 5.13 0 000 3.9 2.06 2.06 0 002.96 1.13 3.691 3.691 0 001.906-2.986 14.229 14.229 0 00.006-1.613zM122.104 18.496c.053.137.091.228.126.321.319.856.324.914-.437 1.468a4.2 4.2 0 01-4.566.457 4.122 4.122 0 01-1.961-2.389 10.878 10.878 0 01-.638-2.922 18.87 18.87 0 01-.048-2.912 9.263 9.263 0 011.519-5.087 3.253 3.253 0 012.7-1.514 3.153 3.153 0 012.86 1.79 7.291 7.291 0 01.834 2.757 15.869 15.869 0 01.071 2.932c-.015.267-.077.361-.367.359-2.031-.014-4.061-.008-6.09-.005-.131 0-.309-.073-.293.193a11.706 11.706 0 00.813 4.353 2.652 2.652 0 002.315 1.748 3.628 3.628 0 002.3-.682 3.1 3.1 0 00.862-.867zm-3.509-5.779c.8 0 1.6-.008 2.406.006.232 0 .319-.05.317-.3a15.848 15.848 0 00-.077-2.19 5 5 0 00-.912-2.5 1.833 1.833 0 00-2.445-.447 3.035 3.035 0 00-1.116 1.307 10.13 10.13 0 00-.886 3.933c-.018.235.142.185.27.185q1.225.009 2.443.006zM107.27 13.032c.194-.047.239-.181.316-.29l4.567-6.378a.343.343 0 01.327-.177c.332.01.665 0 1.055 0-.376.526-.728 1.02-1.081 1.512-1.214 1.692-2.424 3.388-3.648 5.073a.358.358 0 00-.013.479q2.454 3.686 4.9 7.372a2.716 2.716 0 01.133.271c-.448 0-.867-.007-1.286 0-.152 0-.192-.1-.253-.194l-3.523-5.251-1.308-1.941c-.048-.07-.085-.195-.193-.166s-.052.158-.052.238c0 2.335-.011 4.671 0 7.007 0 .262-.064.338-.319.313a3.29 3.29 0 00-.688 0c-.228.023-.257-.073-.257-.27q.009-7.092 0-14.186c0-.206.042-.285.261-.266a4.765 4.765 0 00.756 0c.238-.02.311.053.308.3-.013 1.168-.006 2.336-.006 3.5zM128.613 14.125c0 2.152-.006 4.305.007 6.458 0 .279-.078.353-.34.326a3.28 3.28 0 00-.687 0c-.256.028-.293-.075-.292-.305.006-4.315 0-8.631.012-12.946 0-.3-.066-.38-.373-.375-.951.023-1.9 0-2.855.014-.211 0-.274-.064-.284-.268-.042-.839-.05-.838.788-.838 2.374 0 4.748 0 7.122-.006.253 0 .351.043.343.328-.02.778-.005.778-.783.778s-1.562.012-2.339-.007c-.256-.005-.325.054-.324.317.011 2.174.007 4.35.007 6.524z"/></g></svg>